{"glyphs":{"0":{"ha":816,"x_min":0,"x_max":0,"o":""},"1":{"ha":593,"x_min":0,"x_max":0,"o":""},"2":{"ha":720,"x_min":34,"x_max":686,"o":"m 581 0 l 568 1 q 404 11 490 11 q 245 5 311 11 q 140 0 191 1 q 98 15 115 0 q 73 53 81 30 q 65 102 65 77 q 76 157 65 131 q 106 195 86 182 q 239 326 172 235 q 351 519 305 417 q 397 688 397 622 q 381 741 397 724 q 342 758 366 758 q 289 734 315 758 q 263 673 263 711 q 267 649 263 661 q 270 627 270 637 q 237 572 270 591 q 161 553 203 553 q 101 564 131 553 q 53 598 72 575 q 34 658 34 622 q 86 830 36 760 q 216 936 137 900 q 380 972 296 972 q 516 943 452 972 q 620 857 580 915 q 660 710 660 799 q 597 472 658 595 q 434 235 536 348 q 570 270 514 252 q 604 276 588 276 q 650 259 632 276 q 677 215 668 242 q 686 157 686 189 q 673 84 686 120 q 638 24 661 47 q 581 0 614 0 z "},"3":{"ha":713,"x_min":0,"x_max":0,"o":""},"4":{"ha":832,"x_min":34,"x_max":798,"o":"m 512 0 q 438 13 471 0 q 386 52 405 26 q 367 120 367 79 q 373 200 367 145 q 383 336 380 267 l 139 336 q 88 358 112 336 q 49 414 64 380 q 34 480 34 447 q 62 557 34 525 q 212 767 94 592 q 317 920 269 850 q 384 961 337 946 q 485 975 431 975 q 578 963 536 975 q 645 926 620 951 q 670 859 670 900 q 663 782 670 846 q 644 530 646 608 q 689 533 675 532 q 718 535 703 535 q 762 519 744 535 q 789 478 780 503 q 798 428 798 454 q 790 382 798 404 q 765 346 782 360 q 721 332 747 332 q 701 334 711 332 q 653 338 686 337 q 665 264 656 303 q 676 196 671 232 q 681 119 681 160 q 656 55 681 81 q 592 14 631 28 q 512 0 553 0 m 247 507 q 385 517 300 512 q 376 728 383 627 q 247 507 298 615 z "},"5":{"ha":705,"x_min":0,"x_max":0,"o":""},"6":{"ha":725,"x_min":34,"x_max":691,"o":"m 406 -1 q 242 39 312 -1 q 125 149 172 80 q 57 304 79 218 q 34 480 34 390 q 57 660 34 572 q 126 818 80 748 q 239 930 172 888 q 396 972 307 972 q 537 926 471 972 q 641 784 602 880 q 647 752 647 768 q 629 702 647 724 q 585 669 611 681 q 534 657 559 657 q 498 666 514 657 q 477 692 483 674 q 448 731 467 719 q 414 744 428 744 q 339 674 368 741 q 304 513 311 608 q 488 596 388 595 q 602 558 557 596 q 669 459 646 520 q 691 324 691 397 q 651 141 691 214 q 545 34 610 69 q 406 -1 480 -1 m 414 195 q 474 233 454 198 q 494 309 494 267 q 484 366 494 338 q 454 411 474 393 q 403 429 433 429 q 359 412 377 429 q 333 370 342 396 q 324 315 324 345 q 333 258 324 286 q 361 213 342 231 q 406 195 379 195 l 414 195 z "},"7":{"ha":695,"x_min":0,"x_max":0,"o":""},"8":{"ha":718,"x_min":34,"x_max":684,"o":"m 361 587 q 401 603 385 587 q 424 645 416 619 q 432 698 432 670 q 424 755 432 727 q 398 800 415 783 q 356 818 381 818 q 298 781 317 816 q 278 702 278 747 q 296 625 278 660 q 361 587 317 587 m 355 205 q 404 234 382 205 q 427 320 427 262 q 405 416 427 385 q 357 447 383 447 q 321 433 338 447 q 293 389 304 418 q 282 314 282 359 q 293 253 282 277 q 321 217 304 229 q 355 205 338 205 m 351 -1 q 235 16 292 -1 q 133 65 178 32 q 61 147 88 98 q 34 263 34 197 q 61 394 34 335 q 155 498 88 453 q 85 600 108 545 q 62 710 62 654 q 96 839 62 779 q 195 936 130 899 q 355 973 260 973 q 478 949 425 973 q 566 886 530 926 q 619 798 602 847 q 637 697 637 748 q 618 596 637 645 q 562 511 600 547 q 656 402 629 460 q 684 278 684 344 q 579 68 684 144 q 472 17 531 34 q 351 -1 412 -1 z "},"9":{"ha":725,"x_min":34,"x_max":691,"o":"m 328 -1 q 188 45 254 -1 q 84 186 123 91 q 78 218 78 203 q 96 269 78 248 q 140 302 114 290 q 191 314 166 314 q 227 306 211 314 q 248 279 242 297 q 277 239 258 252 q 311 227 296 227 q 386 297 357 231 q 420 458 414 363 q 237 375 336 375 q 125 412 171 375 q 57 510 80 449 q 34 644 34 572 q 74 828 34 755 q 179 937 114 901 q 319 972 244 972 q 483 932 413 972 q 600 822 553 891 q 668 668 646 753 q 691 491 691 582 q 668 311 691 399 q 599 153 645 223 q 486 41 553 83 q 328 -1 418 -1 m 321 543 q 366 559 348 543 q 392 602 383 576 q 401 656 401 627 q 392 713 401 686 q 364 759 382 741 q 318 777 345 777 q 252 742 274 774 q 231 663 231 709 q 241 605 231 633 q 271 560 251 578 q 321 543 291 543 z "},"\u0000":{"ha":0,"x_min":0,"x_max":0,"o":""},"\r":{"ha":347,"x_min":0,"x_max":0,"o":""}," ":{"ha":345,"x_min":0,"x_max":0,"o":""}," ":{"ha":345,"x_min":0,"x_max":0,"o":""},"!":{"ha":378,"x_min":37,"x_max":341,"o":"m 180 287 q 113 299 145 287 q 59 337 80 311 q 39 403 39 363 q 41 425 39 414 q 52 611 52 491 q 44 769 52 681 l 37 868 q 37 884 37 874 q 60 957 37 928 q 121 999 84 985 q 195 1013 157 1013 q 266 1000 233 1013 q 320 965 299 988 q 341 907 341 941 q 338 884 341 897 q 312 603 312 761 q 328 420 312 489 q 331 396 331 408 q 309 337 331 361 q 252 300 287 313 q 180 287 218 287 m 181 0 q 85 33 125 0 q 45 113 45 66 q 85 193 45 160 q 181 227 125 227 q 277 193 237 227 q 317 113 317 160 q 277 33 317 66 q 181 0 237 0 z "},"\"":{"ha":325,"x_min":34,"x_max":291,"o":"m 237 722 q 195 770 195 722 q 172 916 195 814 q 170 928 170 922 q 189 962 170 951 q 230 972 208 972 q 272 962 252 972 q 291 931 291 951 q 286 887 291 911 q 279 823 279 859 q 286 777 279 798 q 288 764 288 770 q 271 733 288 745 q 237 722 255 722 m 100 722 q 59 770 59 722 q 35 916 59 814 q 34 928 34 922 q 53 962 34 951 q 94 972 71 972 q 135 962 116 972 q 155 931 155 951 q 150 887 155 911 q 142 823 142 859 q 149 777 142 798 q 151 764 151 770 q 135 733 151 745 q 100 722 119 722 z "},"#":{"ha":972,"x_min":34,"x_max":939,"o":"m 583 -1 q 527 10 553 -1 q 485 42 500 20 q 469 96 469 63 q 475 136 469 114 q 516 315 494 207 l 410 316 q 402 164 402 235 l 403 132 q 378 60 403 90 q 316 15 353 31 q 241 -1 279 -1 q 185 10 211 -1 q 143 42 159 20 q 127 96 127 63 q 133 136 127 115 q 174 313 152 205 q 119 307 135 310 q 100 305 109 305 q 52 334 69 305 q 34 397 34 363 q 49 450 34 427 q 98 474 64 474 l 115 473 q 203 469 133 471 l 215 559 q 122 551 145 556 q 108 549 115 549 q 59 578 77 549 q 42 642 42 608 q 58 695 42 671 q 106 719 73 719 l 123 718 q 226 714 144 715 l 226 733 q 220 829 226 785 q 218 853 218 842 q 239 922 218 896 q 293 961 260 949 q 363 974 326 974 q 438 961 402 974 q 497 925 474 949 q 521 867 521 901 q 515 836 521 852 q 478 711 496 780 l 567 711 l 568 737 q 562 829 568 787 q 559 854 559 842 q 581 922 559 896 q 635 961 602 949 q 705 974 668 974 q 780 961 743 974 q 839 925 816 949 q 862 867 862 901 q 857 836 862 852 q 821 718 838 783 l 855 720 q 902 706 884 720 q 929 669 920 691 q 939 624 939 647 q 924 568 939 593 q 881 544 909 544 q 861 546 873 544 q 785 553 841 549 q 770 471 777 512 l 847 476 q 894 461 876 476 q 921 425 912 447 q 930 379 930 403 q 915 324 930 349 q 873 300 901 300 q 859 301 866 300 q 751 309 836 306 q 743 163 743 231 l 744 132 q 720 60 744 90 q 658 15 695 31 q 583 -1 621 -1 m 543 467 q 556 559 551 513 l 444 561 q 429 467 435 514 l 543 467 z "},"$":{"ha":781,"x_min":34,"x_max":747,"o":"m 349 -124 q 290 -108 316 -124 q 264 -63 264 -92 q 266 -47 264 -58 q 273 16 269 -35 q 115 84 182 39 q 37 202 37 137 q 60 281 37 243 q 119 344 84 319 q 185 369 153 369 q 240 336 218 369 q 305 296 254 317 q 397 275 356 275 q 444 309 444 275 q 430 342 444 325 q 385 373 415 359 q 313 403 353 388 q 217 442 266 419 q 127 499 169 465 q 60 587 85 534 q 34 718 34 640 q 73 844 34 792 q 175 927 113 897 q 311 967 238 958 q 308 1015 310 1002 l 307 1029 q 337 1078 307 1061 q 400 1096 366 1096 q 457 1080 432 1096 q 483 1029 483 1063 q 481 1017 483 1025 q 477 964 479 998 q 675 871 598 943 q 721 774 721 827 q 700 703 721 736 q 647 651 679 671 q 584 631 616 631 q 519 664 544 631 q 443 739 488 705 q 347 775 397 772 q 309 760 321 775 q 296 726 296 745 q 303 697 296 712 q 324 671 310 683 q 380 637 347 652 q 452 608 413 622 q 554 565 503 589 q 649 505 605 541 q 720 413 692 468 q 747 276 747 358 q 713 147 747 207 q 612 48 679 87 q 446 1 545 9 q 448 -18 447 -11 q 448 -41 448 -25 q 433 -88 448 -70 q 396 -115 418 -106 q 349 -124 373 -124 z "},"%":{"ha":958,"x_min":34,"x_max":924,"o":"m 303 2 q 245 17 273 2 q 200 61 218 33 q 182 126 182 89 q 214 225 182 170 q 389 529 290 342 q 530 853 488 715 q 581 935 547 910 q 654 960 615 960 q 723 942 690 960 q 778 897 756 925 q 800 835 800 869 q 772 766 800 801 q 562 438 676 644 q 396 75 448 233 q 358 20 384 37 q 303 2 332 2 m 724 162 q 771 189 755 162 q 787 248 787 216 q 772 301 787 277 q 727 325 758 325 q 676 301 692 323 q 660 247 660 279 q 676 189 660 216 q 724 162 692 162 m 725 -1 q 631 25 676 -1 q 556 102 585 50 q 528 230 528 153 q 556 353 528 304 q 631 428 585 403 q 726 452 676 452 q 823 427 778 452 q 895 352 868 402 q 924 225 922 301 q 895 100 924 150 q 820 24 865 50 q 725 -1 774 -1 m 230 682 q 277 710 260 682 q 294 768 294 737 q 279 821 294 797 q 233 844 264 844 q 182 821 199 843 q 165 766 165 799 q 182 709 165 735 q 230 682 199 682 m 231 519 q 137 545 182 519 q 63 622 92 570 q 34 750 34 673 q 62 873 34 824 q 136 948 91 923 q 232 972 182 972 q 330 947 285 972 q 401 872 374 922 q 429 745 428 821 q 400 620 429 670 q 326 545 371 570 q 231 519 281 519 z "},"&":{"ha":882,"x_min":34,"x_max":848,"o":"m 736 4 q 665 39 698 4 q 597 92 635 67 l 568 112 q 304 6 451 6 q 104 81 174 10 q 34 247 34 151 q 66 372 34 309 q 165 486 98 435 q 100 723 104 587 q 123 827 100 782 q 185 904 146 873 q 272 951 224 935 q 369 968 320 968 q 480 944 428 968 q 566 869 533 920 q 599 742 599 819 q 557 581 597 648 q 454 459 518 515 q 536 391 492 425 q 595 498 585 439 q 618 530 600 520 q 662 540 637 540 q 720 528 690 540 q 770 496 750 517 q 791 446 791 475 q 785 418 791 433 q 696 257 749 334 q 806 183 726 216 q 848 122 848 165 q 833 68 848 96 q 791 22 817 41 q 736 4 766 4 m 298 210 q 353 219 325 210 q 397 237 381 228 q 294 326 344 280 q 260 292 272 307 q 244 252 244 274 q 298 210 246 210 m 328 623 q 393 736 393 689 q 380 769 393 758 q 352 780 368 780 q 317 765 333 780 q 300 719 300 749 q 328 623 304 671 z "},"'":{"ha":189,"x_min":34,"x_max":155,"o":"m 100 722 q 59 770 59 722 q 35 916 59 814 q 34 928 34 922 q 53 962 34 951 q 94 972 71 972 q 135 962 116 972 q 155 931 155 951 q 150 887 155 911 q 142 823 142 859 q 149 777 142 798 q 151 764 151 770 q 135 733 151 745 q 100 722 119 722 z "},"(":{"ha":526,"x_min":34,"x_max":492,"o":"m 378 -117 q 230 -62 294 -117 q 122 82 165 -8 q 56 286 78 173 q 34 515 34 399 q 54 731 34 627 q 116 919 75 836 q 221 1052 158 1002 q 371 1101 285 1101 q 422 1096 396 1101 q 473 1058 455 1089 q 492 992 492 1027 q 474 936 492 960 q 419 911 457 911 q 359 876 385 911 q 316 780 334 840 q 291 645 299 720 q 282 492 282 570 q 291 338 282 413 q 316 203 299 263 q 359 108 334 144 q 419 73 385 73 q 474 48 457 73 q 492 -8 492 24 q 473 -74 492 -43 q 422 -113 455 -105 q 378 -117 399 -117 z "},")":{"ha":526,"x_min":34,"x_max":492,"o":"m 147 -117 q 102 -113 125 -117 q 52 -74 71 -105 q 34 -8 34 -43 q 51 48 34 24 q 106 73 68 73 q 166 108 140 73 q 209 203 192 144 q 234 338 226 263 q 243 492 243 413 q 234 645 243 570 q 209 780 226 720 q 166 876 191 840 q 106 911 140 911 q 51 936 68 911 q 34 992 34 960 q 52 1058 34 1027 q 102 1096 71 1089 q 154 1101 130 1101 q 303 1052 240 1101 q 409 919 367 1002 q 471 731 450 836 q 492 515 492 627 q 469 286 492 399 q 404 82 447 173 q 296 -62 360 -8 q 147 -117 231 -117 z "},"*":{"ha":469,"x_min":34,"x_max":435,"o":"m 340 562 q 308 581 322 562 q 235 684 261 654 q 161 581 208 654 q 130 562 147 562 q 86 584 106 562 q 65 628 65 606 q 77 652 65 642 l 94 665 q 169 730 136 692 q 58 784 135 751 q 34 819 34 795 q 54 864 34 842 q 95 886 74 886 q 115 879 106 886 q 133 861 123 871 q 197 806 161 831 q 190 836 195 819 q 180 877 184 854 q 175 931 175 901 q 192 963 175 953 q 229 972 208 972 q 267 963 250 972 q 285 935 285 953 q 281 895 285 916 q 275 837 275 869 q 277 808 275 822 q 337 862 311 833 q 354 879 346 871 q 374 886 363 886 q 415 865 395 886 q 435 819 435 843 q 410 784 435 795 q 300 730 334 751 q 375 665 334 692 l 391 652 q 404 627 404 642 q 383 584 404 606 q 340 562 363 562 z "},"+":{"ha":683,"x_min":34,"x_max":649,"o":"m 350 178 q 267 200 302 178 q 232 261 232 221 q 236 314 232 291 q 244 357 239 337 q 251 395 248 377 q 174 385 210 391 q 113 376 132 376 q 70 394 87 376 q 43 440 52 412 q 34 494 34 467 q 41 542 34 519 q 65 580 49 565 q 105 595 81 595 q 184 589 149 594 q 250 583 214 585 q 243 621 248 602 q 235 663 239 640 q 232 715 232 685 q 250 758 232 740 q 295 784 268 775 q 350 793 323 793 q 397 786 374 793 q 436 763 420 779 q 451 723 451 747 q 444 643 450 679 q 438 583 441 616 q 503 589 471 585 q 555 594 530 592 q 565 595 562 595 q 576 595 569 595 q 617 581 602 595 q 641 543 633 566 q 649 494 649 519 q 640 440 649 467 q 614 395 631 413 q 572 376 597 376 q 479 388 517 379 q 438 395 458 392 q 444 339 440 368 q 451 260 451 302 q 436 213 451 231 q 398 186 421 195 q 350 178 375 178 z "},",":{"ha":324,"x_min":34,"x_max":290,"o":"m 176 -170 q 115 -148 144 -170 q 86 -104 86 -125 q 99 -84 86 -93 q 123 -65 106 -80 q 154 -32 139 -50 q 168 -6 168 -15 q 160 0 168 -1 q 71 33 109 0 q 34 113 34 66 q 71 193 34 160 q 160 227 109 227 q 237 204 208 227 q 278 147 266 182 q 290 69 290 111 q 268 -60 290 3 q 176 -170 229 -170 z "},"-":{"ha":682,"x_min":34,"x_max":648,"o":"m 572 346 q 494 355 551 346 q 342 370 387 370 q 227 359 302 370 q 130 347 183 353 q 121 346 124 347 q 111 346 118 346 q 70 364 87 346 q 43 409 52 382 q 34 464 34 436 q 53 536 34 507 q 113 565 72 565 q 170 561 125 565 q 341 549 286 549 q 494 558 398 549 q 555 564 526 562 q 564 565 560 564 q 575 565 568 565 q 617 550 601 565 q 641 512 633 535 q 648 464 648 489 q 639 409 648 436 q 613 364 630 382 q 572 346 596 346 z "},"­":{"ha":682,"x_min":34,"x_max":648,"o":"m 572 346 q 494 355 551 346 q 342 370 387 370 q 227 359 302 370 q 130 347 183 353 q 121 346 124 347 q 111 346 118 346 q 70 364 87 346 q 43 409 52 382 q 34 464 34 436 q 53 536 34 507 q 113 565 72 565 q 170 561 125 565 q 341 549 286 549 q 494 558 398 549 q 555 564 526 562 q 564 565 560 564 q 575 565 568 565 q 617 550 601 565 q 641 512 633 535 q 648 464 648 489 q 639 409 648 436 q 613 364 630 382 q 572 346 596 346 z "},".":{"ha":320,"x_min":34,"x_max":286,"o":"m 160 0 q 71 33 108 0 q 34 113 34 66 q 71 193 34 160 q 160 227 108 227 q 249 193 212 227 q 286 113 286 160 q 249 33 286 66 q 160 0 212 0 z "},"/":{"ha":619,"x_min":34,"x_max":585,"o":"m 164 -7 q 102 5 132 -7 q 53 43 72 18 q 34 105 34 68 q 64 203 34 146 q 197 525 132 332 q 288 849 262 718 q 344 945 302 916 q 433 974 385 974 q 506 958 471 974 q 563 915 541 943 q 585 852 585 888 q 570 798 585 827 q 465 587 524 712 q 358 330 406 461 q 296 94 311 198 q 250 18 289 43 q 164 -7 210 -7 z "},":":{"ha":289,"x_min":16,"x_max":269,"o":"m 142 0 q 53 33 90 0 q 16 113 16 66 q 53 193 16 160 q 142 227 90 227 q 232 193 195 227 q 269 113 269 160 q 232 33 269 66 q 142 0 195 0 m 142 576 q 53 609 90 576 q 16 689 16 642 q 53 769 16 736 q 142 802 90 802 q 232 769 195 802 q 269 689 269 736 q 232 609 269 642 q 142 576 195 576 z "},";":{"ha":292,"x_min":16,"x_max":273,"o":"m 159 -170 q 98 -148 127 -170 q 68 -104 68 -125 q 81 -84 68 -93 q 105 -65 89 -80 q 136 -32 121 -50 q 151 -6 151 -15 q 142 0 151 -1 q 53 33 90 0 q 16 113 16 66 q 53 193 16 160 q 142 227 90 227 q 219 204 191 227 q 260 146 248 182 q 273 68 273 111 q 250 -60 273 3 q 159 -170 212 -170 m 142 576 q 53 609 90 576 q 16 689 16 642 q 53 769 16 736 q 142 802 90 802 q 232 769 195 802 q 269 689 269 736 q 232 609 269 642 q 142 576 195 576 z "},"<":{"ha":692,"x_min":34,"x_max":658,"o":"m 567 174 q 525 188 547 174 q 313 302 442 241 q 90 393 184 363 q 48 429 62 403 q 34 486 34 456 q 48 543 34 517 q 90 578 62 569 q 313 670 184 608 q 525 785 442 731 q 566 798 547 798 q 613 780 593 798 q 646 733 634 761 q 658 676 658 705 q 646 631 658 651 q 609 603 635 610 q 319 486 454 560 q 609 369 454 412 q 646 341 635 361 q 658 296 658 321 q 646 239 658 267 q 613 193 634 212 q 567 174 593 174 z "},"=":{"ha":643,"x_min":34,"x_max":609,"o":"m 538 267 q 519 269 530 267 q 438 279 475 273 q 321 290 361 290 q 220 280 273 290 q 123 269 178 273 q 115 268 119 269 q 106 267 112 267 q 67 284 83 267 q 42 326 51 300 q 34 377 34 351 q 41 422 34 400 q 62 458 48 444 q 98 472 77 472 q 198 465 150 471 q 321 458 252 458 q 474 467 378 458 l 521 471 q 530 471 526 471 q 540 472 534 472 q 579 458 564 472 q 602 422 594 444 q 609 377 609 401 q 601 327 609 352 q 577 284 593 301 q 538 267 561 267 m 531 500 l 519 501 q 321 523 408 523 q 123 501 235 523 l 112 500 q 70 517 87 500 q 43 558 52 533 q 34 610 34 583 q 42 656 34 635 q 66 691 50 678 q 109 705 83 705 l 122 704 q 208 695 146 699 q 321 690 269 690 q 521 704 425 690 l 534 705 q 577 691 560 705 q 601 656 593 678 q 609 610 609 635 q 600 558 609 583 q 573 517 591 533 q 531 500 556 500 z "},">":{"ha":692,"x_min":34,"x_max":658,"o":"m 125 174 q 78 193 99 174 q 46 239 58 212 q 34 296 34 267 q 45 341 34 321 q 83 369 57 361 q 373 486 238 412 q 83 603 238 560 q 45 631 57 610 q 34 676 34 651 q 46 733 34 705 q 78 780 58 761 q 125 798 99 798 q 167 785 145 798 q 379 670 250 731 q 602 578 508 608 q 644 543 630 569 q 658 486 658 517 q 644 429 658 456 q 602 393 630 403 q 379 302 508 363 q 167 188 250 241 q 125 174 144 174 z "},"?":{"ha":692,"x_min":34,"x_max":658,"o":"m 346 0 q 250 33 290 0 q 210 113 210 66 q 250 193 210 160 q 346 227 290 227 q 442 193 402 227 q 482 113 482 160 q 442 33 482 66 q 346 0 402 0 m 347 258 q 287 268 315 258 q 239 298 258 277 q 220 351 220 319 q 237 433 220 395 q 277 504 253 471 q 327 566 302 536 q 377 629 356 599 q 397 688 397 660 q 380 743 397 726 q 339 760 363 760 q 288 738 312 760 q 263 680 263 717 q 267 655 263 667 q 270 632 270 643 q 240 582 270 599 q 172 565 210 565 q 108 577 140 565 q 55 614 76 589 q 34 678 34 640 q 85 843 36 778 q 211 940 134 908 q 371 972 288 972 q 518 940 453 972 q 621 855 583 908 q 658 738 658 802 q 637 642 658 690 q 566 545 616 593 q 518 495 544 524 q 473 433 492 466 q 454 367 454 399 q 457 345 454 355 q 460 326 460 335 q 425 276 460 294 q 347 258 390 258 z "},"@":{"ha":924,"x_min":34,"x_max":890,"o":"m 471 7 q 251 70 350 7 q 93 243 152 133 q 34 495 34 353 q 75 694 34 608 q 182 837 115 780 q 332 923 250 895 q 496 952 414 952 q 642 928 571 952 q 768 854 712 903 q 857 730 824 804 q 890 548 890 656 q 815 300 890 401 q 717 223 779 252 q 600 193 656 193 q 527 215 556 193 q 496 284 497 236 q 350 216 416 216 q 282 239 311 216 q 238 297 254 261 q 223 376 223 334 q 250 474 223 427 q 336 550 277 520 q 493 580 396 580 q 536 578 513 580 q 536 595 536 591 l 536 625 q 527 659 536 649 q 506 669 518 669 q 459 649 485 669 q 418 609 434 629 q 376 588 399 588 q 320 614 347 588 q 294 675 294 640 q 325 739 294 710 q 407 787 360 770 q 504 804 454 804 q 600 786 554 804 q 673 731 645 768 q 702 638 702 694 q 696 566 701 614 q 687 414 687 485 q 709 331 687 331 q 738 355 720 331 q 793 544 793 429 q 703 782 793 698 q 608 839 661 820 q 500 858 555 858 q 374 835 436 858 q 263 766 313 812 q 183 652 213 720 q 153 492 153 583 q 192 302 153 384 q 300 174 231 220 q 457 128 368 128 q 602 158 524 128 q 631 164 618 164 q 675 144 659 164 q 692 100 692 123 q 662 52 692 67 q 471 7 564 7 m 447 393 q 474 399 457 393 q 507 422 492 405 q 526 472 522 439 l 529 498 l 506 498 q 446 488 465 498 q 422 462 427 478 q 416 428 416 446 q 425 405 416 416 q 447 393 433 393 z "},"A":{"ha":864,"x_min":4,"x_max":859,"o":"m 376 507 l 486 509 q 431 702 462 604 q 376 507 401 603 m 688 3 q 610 28 644 3 q 567 104 575 52 q 532 308 553 205 l 330 308 q 296 104 310 205 q 254 28 288 52 q 175 3 219 3 q 96 22 135 3 q 30 75 56 41 q 4 157 4 110 q 20 274 4 217 q 61 388 36 331 q 116 503 87 444 q 198 683 160 588 q 254 889 237 778 q 315 955 262 933 q 431 977 368 977 q 548 955 495 977 q 609 889 601 933 q 665 683 626 778 q 747 503 703 588 q 802 387 777 444 q 843 274 827 330 q 859 157 859 217 q 833 75 859 110 q 768 22 807 41 q 688 3 728 3 z "},"B":{"ha":808,"x_min":36,"x_max":792,"o":"m 205 0 q 131 14 167 0 q 72 58 95 28 q 48 132 48 87 q 54 245 50 190 q 60 445 60 349 q 38 836 60 699 q 36 860 36 849 q 56 923 36 899 q 110 959 77 947 q 179 971 142 971 q 263 956 222 971 q 329 910 304 940 q 486 959 406 959 q 615 922 558 959 q 705 826 672 884 q 739 704 739 768 q 710 598 739 649 q 618 509 682 547 q 751 406 710 472 q 792 262 792 339 q 764 140 792 195 q 682 51 736 85 q 552 17 629 17 q 345 76 458 17 q 289 20 328 39 q 205 0 250 0 m 321 562 q 432 587 391 566 q 493 637 474 608 q 511 696 511 667 q 491 753 511 729 q 439 778 471 778 q 333 712 387 778 q 321 562 325 635 m 414 229 q 461 243 442 229 q 491 279 481 257 q 501 326 501 301 q 487 375 501 352 q 441 412 472 398 q 360 426 410 426 q 321 424 342 426 q 333 260 323 344 q 414 229 380 229 z "},"C":{"ha":773,"x_min":2,"x_max":770,"o":"m 458 1 q 260 44 345 1 q 117 158 174 87 q 31 318 60 229 q 2 499 2 407 q 29 673 2 589 q 110 825 56 758 q 245 932 164 892 q 436 972 327 972 q 584 928 520 972 q 683 813 648 884 q 719 661 718 743 q 700 601 719 624 q 653 566 682 577 q 593 554 624 554 q 520 573 553 554 q 487 628 487 593 q 491 656 487 641 q 495 686 495 671 q 480 738 495 717 q 435 759 465 759 q 346 688 374 755 q 317 529 317 621 q 334 390 317 458 q 382 277 351 321 q 458 232 413 232 q 528 264 497 235 q 577 328 558 294 q 621 349 592 349 q 685 331 650 349 q 745 286 720 313 q 770 231 770 259 q 763 205 770 218 q 685 103 730 149 q 583 29 640 57 q 458 1 526 1 z "},"D":{"ha":811,"x_min":36,"x_max":781,"o":"m 413 0 q 297 25 354 0 q 204 1 254 1 q 131 16 167 1 q 72 59 95 30 q 48 134 48 88 q 54 254 50 195 q 61 449 61 335 q 38 836 61 672 q 36 859 36 849 q 56 923 36 898 q 110 959 77 947 q 179 971 142 971 q 288 945 236 971 q 412 972 348 972 q 575 932 505 972 q 690 825 644 892 q 758 673 736 758 q 781 498 781 588 q 757 317 781 406 q 687 157 733 228 q 572 43 640 85 q 413 0 503 0 m 408 215 q 481 259 451 217 q 527 369 511 302 q 543 507 543 436 q 529 629 543 571 q 487 723 515 686 q 416 759 459 759 q 367 749 391 759 q 316 604 316 726 q 318 542 316 572 q 320 482 320 511 q 334 248 320 368 q 408 215 371 215 z "},"E":{"ha":720,"x_min":35,"x_max":692,"o":"m 587 -1 l 573 1 q 449 10 506 10 q 334 5 389 10 q 212 -1 278 -1 q 128 15 165 -1 q 70 62 91 31 q 48 140 48 94 l 49 158 q 60 443 60 291 q 37 836 60 668 q 35 863 35 850 q 98 955 35 930 q 224 972 144 972 q 337 968 279 972 q 456 963 395 963 q 573 971 513 963 l 587 972 q 644 950 621 972 q 680 894 667 928 q 692 824 692 860 q 682 764 692 792 q 650 718 671 736 q 595 700 628 700 q 574 702 585 700 q 334 721 481 717 q 323 599 327 659 l 340 599 q 471 608 403 599 l 482 609 q 528 591 509 609 q 557 546 547 574 q 567 490 567 518 q 558 441 567 464 q 533 404 550 418 q 488 389 515 389 q 472 391 480 389 q 321 404 412 401 q 334 252 325 330 q 574 270 481 256 q 595 272 585 272 q 650 254 628 272 q 682 208 671 236 q 692 148 692 180 q 680 78 692 112 q 644 21 667 43 q 587 -1 621 -1 z "},"F":{"ha":693,"x_min":35,"x_max":692,"o":"m 204 0 q 130 15 165 0 q 71 61 94 30 q 48 140 48 92 l 49 158 q 60 443 60 290 q 37 836 60 669 q 35 860 35 849 q 58 925 35 901 q 114 960 80 949 q 185 970 149 970 l 208 970 q 406 959 333 959 q 522 966 462 959 l 573 971 q 582 972 578 972 q 593 972 585 972 q 647 950 625 972 q 680 893 669 928 q 692 824 692 859 q 682 764 692 792 q 650 718 671 735 q 595 700 629 700 q 575 702 585 700 q 334 721 481 717 q 323 599 327 659 l 351 599 q 471 608 408 599 q 482 609 476 609 q 528 591 509 609 q 557 546 547 573 q 567 490 567 519 q 558 441 567 464 q 533 404 550 418 q 488 389 515 389 q 473 391 481 389 q 321 404 412 401 q 350 129 327 276 q 351 111 351 120 q 330 51 351 76 q 275 13 309 26 q 204 0 241 0 z "},"G":{"ha":745,"x_min":7,"x_max":739,"o":"m 405 0 q 119 132 227 0 q 7 496 12 264 q 31 671 7 586 q 103 824 55 756 q 225 932 152 892 q 395 972 298 972 q 542 928 479 972 q 641 813 606 884 q 677 661 676 743 q 659 601 677 624 q 611 566 640 577 q 552 554 583 554 q 478 573 511 554 q 446 628 446 593 q 450 655 446 640 q 454 686 454 671 q 438 738 454 717 q 393 759 423 759 q 286 499 286 755 q 307 340 286 400 q 358 253 327 280 q 422 226 390 226 q 481 247 454 226 q 522 305 508 268 q 444 294 494 302 q 433 294 439 294 q 387 311 406 294 q 358 357 368 329 q 348 414 348 385 q 356 462 348 439 q 382 499 365 485 q 427 513 399 513 q 443 512 434 513 q 645 501 522 501 l 688 501 q 726 479 713 501 q 739 426 739 456 q 728 369 739 397 q 696 321 717 340 l 697 291 q 672 161 697 216 q 605 70 647 106 q 511 17 563 35 q 405 0 459 0 z "},"H":{"ha":849,"x_min":37,"x_max":802,"o":"m 658 0 q 577 14 616 0 q 512 56 538 28 q 487 121 487 83 q 488 138 487 130 q 516 410 511 283 q 435 412 479 412 q 322 410 380 412 q 350 138 328 283 q 351 121 351 130 q 326 56 351 83 q 261 14 300 28 q 180 0 222 0 q 111 12 143 0 q 57 49 78 24 q 37 113 37 74 q 39 136 37 123 q 62 527 62 302 q 50 813 62 680 l 50 831 q 72 911 50 880 q 131 957 95 942 q 205 971 166 971 q 276 958 242 971 q 331 920 310 945 q 353 859 353 895 q 351 842 353 851 q 325 606 331 717 q 513 615 423 607 q 488 842 506 722 q 486 860 486 851 q 508 920 486 895 q 563 958 529 945 q 633 971 596 971 q 708 957 672 971 q 766 911 743 942 q 789 831 789 880 l 788 813 q 777 527 777 680 q 800 136 777 302 q 802 113 802 123 q 781 49 802 74 q 728 12 760 24 q 658 0 695 0 z "},"I":{"ha":397,"x_min":38,"x_max":357,"o":"m 186 -1 q 116 12 149 -1 q 63 49 83 24 q 43 113 43 74 q 44 134 43 123 q 65 484 65 281 q 41 811 65 680 q 38 843 38 828 q 60 916 38 887 q 118 958 83 944 q 191 971 153 971 q 263 958 229 971 q 320 920 298 945 q 342 859 342 895 l 342 844 q 319 528 319 679 q 356 139 319 341 q 357 121 357 130 q 332 55 357 82 q 267 14 307 28 q 186 -1 228 -1 z "},"J":{"ha":634,"x_min":5,"x_max":597,"o":"m 300 0 q 119 63 192 0 q 12 263 47 125 q 5 314 5 291 q 26 389 5 359 q 78 432 47 418 q 138 446 109 446 q 180 436 163 446 q 198 407 197 426 q 227 308 201 342 q 281 275 252 275 q 320 297 306 275 q 339 358 334 320 q 345 443 345 396 q 331 632 345 536 q 308 768 317 729 q 159 754 218 764 q 143 753 151 753 q 99 767 116 753 q 73 804 81 781 q 65 853 65 827 q 75 909 65 882 q 103 954 85 937 q 149 972 122 972 l 161 971 q 300 959 237 959 q 401 968 351 959 q 452 972 425 972 q 520 963 486 972 q 575 931 553 954 q 597 869 597 909 q 595 847 597 859 q 565 642 571 688 q 557 508 557 574 q 580 262 557 406 q 582 236 582 250 q 548 125 582 180 q 452 36 515 71 q 300 0 389 0 z "},"K":{"ha":799,"x_min":35,"x_max":801,"o":"m 604 0 l 602 0 q 500 61 547 2 q 418 205 454 119 q 357 376 382 291 q 325 342 340 359 q 347 155 333 253 q 351 111 351 119 q 330 51 351 76 q 275 13 309 26 q 204 0 241 0 q 130 15 165 0 q 71 61 94 30 q 48 140 48 92 l 49 158 q 60 443 60 290 q 55 661 60 556 q 37 836 49 765 q 35 859 35 848 q 56 923 35 898 q 110 959 77 947 q 179 971 142 971 q 260 957 220 971 q 325 916 299 943 q 351 850 351 888 q 349 833 351 842 q 327 648 335 736 q 471 884 446 783 q 516 950 482 928 q 589 972 549 972 q 681 937 637 972 q 726 835 724 903 q 655 691 723 776 q 499 517 588 606 q 599 390 538 454 q 753 266 659 326 q 801 180 801 235 q 744 61 801 119 q 604 0 687 3 z "},"L":{"ha":688,"x_min":35,"x_max":691,"o":"m 595 -1 q 504 6 544 1 q 424 12 463 12 q 277 4 362 12 q 212 0 237 0 q 133 15 170 0 q 72 61 95 30 q 48 140 48 92 l 49 158 q 60 444 60 292 q 37 836 60 669 q 35 859 35 848 q 56 923 35 898 q 110 959 77 947 q 179 971 142 971 q 260 957 220 971 q 325 916 299 943 q 351 850 351 888 q 349 833 351 842 q 328 652 336 739 q 319 482 319 566 q 333 252 319 370 q 574 270 481 255 q 595 272 585 272 q 649 254 628 272 q 681 208 671 237 q 691 148 691 180 q 680 79 691 113 q 647 22 669 45 q 595 -1 625 -1 z "},"M":{"ha":939,"x_min":42,"x_max":899,"o":"m 731 0 q 660 12 694 0 q 606 50 627 24 q 585 115 585 76 q 586 136 585 125 q 602 454 602 241 l 602 543 q 543 422 571 483 q 507 385 530 397 q 458 372 484 372 q 409 385 433 372 q 374 422 386 397 l 320 532 q 328 340 320 433 q 357 137 335 248 q 358 119 358 128 q 333 55 358 81 q 270 14 308 28 q 190 0 231 0 q 119 12 153 0 q 64 50 85 24 q 43 115 43 76 q 45 136 43 125 q 61 448 61 239 q 47 758 61 562 l 43 821 q 42 842 42 829 q 66 915 42 886 q 128 958 91 944 q 202 972 165 972 q 257 964 231 972 q 302 940 283 956 q 376 844 340 906 q 448 713 413 782 l 458 694 l 475 728 q 540 849 507 794 q 617 938 574 904 q 726 972 661 972 q 800 960 763 972 q 862 925 837 949 q 886 865 886 901 q 886 850 886 854 q 885 842 886 847 q 875 729 880 783 q 865 624 869 675 q 861 523 861 573 q 898 137 861 323 q 899 119 899 128 q 874 55 899 81 q 811 14 849 28 q 731 0 772 0 z "},"N":{"ha":870,"x_min":35,"x_max":833,"o":"m 665 0 q 594 12 627 0 q 540 50 561 24 q 519 115 519 76 q 524 166 519 144 q 528 192 528 182 q 512 241 528 209 q 453 339 496 273 q 330 522 410 406 q 357 141 334 288 q 359 117 359 128 q 337 52 359 77 q 281 13 315 26 q 209 1 247 1 q 132 13 170 1 q 69 50 94 26 q 44 109 44 74 l 44 115 l 45 132 q 57 251 51 195 q 67 359 62 307 q 71 463 71 412 q 37 838 71 644 q 35 859 35 848 q 55 920 35 895 q 106 958 75 945 q 174 970 138 970 q 260 950 218 970 q 328 886 302 930 q 438 724 368 821 q 532 590 488 656 q 515 813 526 712 q 513 836 513 825 q 536 912 513 882 q 593 957 558 943 q 667 972 629 972 q 738 959 704 972 q 794 920 772 945 q 816 858 816 895 l 815 843 q 793 532 793 680 q 831 138 793 343 q 833 119 833 128 q 808 55 833 81 q 745 14 783 28 q 665 0 706 0 z "},"O":{"ha":810,"x_min":7,"x_max":781,"o":"m 396 252 q 455 282 427 252 q 501 372 483 312 q 519 523 519 433 q 500 653 519 601 q 453 731 482 705 q 393 757 425 757 q 334 732 363 757 q 288 656 306 707 q 269 530 269 606 q 288 375 270 437 q 335 282 306 313 q 396 252 363 252 m 393 0 q 252 31 321 0 q 128 123 182 62 q 40 277 73 184 q 7 494 7 370 q 40 702 7 613 q 128 851 73 791 q 252 941 183 911 q 394 971 321 971 q 534 942 465 971 q 659 855 604 913 q 747 708 714 797 q 781 500 781 620 q 747 279 781 373 q 659 123 714 185 q 534 31 603 61 q 393 0 465 0 z "},"P":{"ha":776,"x_min":36,"x_max":751,"o":"m 203 5 q 129 20 165 5 q 71 66 94 35 q 48 145 48 97 l 49 163 q 60 453 60 299 q 55 665 60 563 q 38 836 49 766 q 36 860 36 848 q 56 923 36 899 q 110 959 77 947 q 179 971 142 971 q 258 958 220 971 q 321 920 296 945 q 496 969 414 969 q 632 928 575 969 q 720 821 689 886 q 751 682 751 755 q 680 473 751 552 q 403 377 593 377 q 323 381 366 377 q 349 134 329 266 q 351 117 351 125 q 329 56 351 81 q 274 18 308 31 q 203 5 241 5 m 372 538 q 449 554 419 538 q 494 597 479 571 q 509 650 509 623 q 484 716 509 686 q 412 745 459 745 q 334 725 378 745 q 321 543 323 631 q 372 538 349 538 z "},"Q":{"ha":815,"x_min":7,"x_max":780,"o":"m 395 252 q 454 282 426 252 q 500 372 482 312 q 518 523 518 433 q 500 653 518 601 q 453 731 481 705 q 393 757 424 757 q 333 731 361 757 q 287 654 305 705 q 269 526 269 603 q 289 373 271 434 q 335 282 307 312 q 395 252 363 252 m 597 -166 q 535 -141 563 -166 q 486 -77 507 -116 q 448 5 464 -39 q 393 0 420 0 q 251 31 320 0 q 127 123 182 62 q 40 277 73 184 q 7 493 7 370 q 65 759 9 652 q 208 918 120 865 q 394 971 296 971 q 536 942 467 971 q 660 855 605 913 q 747 710 714 798 q 780 507 780 623 q 757 313 780 397 q 693 169 734 229 q 601 70 653 109 q 706 28 637 44 q 747 -21 747 19 q 703 -113 747 -64 q 597 -166 659 -162 z "},"R":{"ha":822,"x_min":35,"x_max":824,"o":"m 628 0 q 535 36 579 0 q 455 129 492 72 q 393 250 419 186 q 351 374 366 315 q 323 376 337 374 q 341 202 329 285 q 351 117 351 138 q 329 55 351 81 q 274 14 308 28 q 203 0 241 0 q 129 16 165 0 q 71 65 94 33 q 47 146 47 98 l 48 163 q 60 452 60 298 q 37 836 60 673 q 35 859 35 848 q 56 923 35 898 q 110 959 77 947 q 179 971 142 971 q 255 959 218 971 q 318 922 292 946 q 486 970 410 970 q 620 931 562 970 q 710 830 677 892 q 743 695 743 767 q 725 566 743 626 q 662 463 707 507 q 538 395 616 419 q 615 325 564 355 q 758 264 667 294 q 808 229 792 254 q 824 175 824 205 q 801 96 824 137 q 733 28 777 56 q 628 0 690 0 m 359 534 q 440 551 408 534 q 486 594 471 568 q 501 647 501 620 q 476 714 501 684 q 406 743 452 743 q 334 725 374 743 q 320 536 323 627 q 359 534 340 534 z "},"S":{"ha":768,"x_min":28,"x_max":741,"o":"m 385 -1 q 220 28 301 -1 q 71 117 139 57 q 31 202 31 153 q 55 281 31 243 q 113 344 79 319 q 180 369 148 369 q 235 336 212 369 q 299 296 248 317 q 392 275 350 275 q 439 309 438 275 q 424 341 439 323 q 379 373 410 359 q 307 402 348 387 q 212 440 261 418 q 122 497 163 463 q 54 583 80 531 q 28 711 28 634 q 58 828 28 779 q 138 909 88 877 q 251 957 189 941 q 378 972 313 972 q 539 947 462 972 q 670 871 617 922 q 715 774 715 827 q 694 703 715 736 q 642 651 673 671 q 578 631 610 631 q 513 664 538 631 q 469 712 496 686 q 341 775 401 775 q 303 760 317 775 q 290 726 290 745 q 318 671 290 699 q 374 637 340 652 q 448 607 408 622 q 548 565 497 589 q 643 504 600 541 q 714 413 687 468 q 741 277 741 359 q 703 141 741 203 q 585 39 664 78 q 385 -1 507 -1 z "},"T":{"ha":755,"x_min":-3,"x_max":751,"o":"m 385 0 q 311 15 347 0 q 252 61 275 30 q 229 140 229 92 l 230 158 q 241 445 241 292 q 232 715 241 587 q 115 702 163 711 q 94 700 104 700 q 39 718 61 700 q 7 764 18 735 q -3 824 -3 792 q 8 893 -3 859 q 41 950 20 927 q 93 972 62 972 q 154 970 117 972 q 243 965 190 968 q 370 963 297 963 q 530 966 456 963 q 641 972 626 970 q 652 972 645 972 q 706 950 684 972 q 739 893 728 927 q 751 824 751 859 q 741 764 751 792 q 709 718 730 735 q 654 700 688 700 q 634 702 644 700 q 514 714 587 709 q 500 482 500 595 q 509 312 500 398 q 530 129 517 225 q 532 111 532 120 q 510 51 532 76 q 455 13 489 26 q 385 0 422 0 z "},"U":{"ha":812,"x_min":33,"x_max":777,"o":"m 281 0 q 108 59 169 0 q 47 226 47 117 q 51 283 47 254 q 62 485 62 379 q 37 812 62 663 q 33 844 33 829 q 55 916 33 888 q 111 958 77 944 q 182 971 144 971 q 256 958 220 971 q 315 918 292 944 q 338 855 338 892 q 325 659 338 774 q 315 526 315 589 q 328 358 315 448 q 352 306 333 322 q 396 290 372 290 q 481 334 442 290 q 486 467 486 401 q 479 585 486 516 q 464 718 472 653 q 450 860 450 821 q 472 920 450 896 q 529 958 494 945 q 602 970 564 970 q 677 957 642 970 q 734 913 712 943 q 755 839 755 884 q 744 678 755 779 q 732 528 732 582 q 743 311 732 415 q 772 136 753 207 q 777 102 777 117 q 757 45 777 68 q 706 12 737 23 q 637 1 674 1 q 545 19 590 1 q 475 70 500 37 q 402 19 448 37 q 281 0 356 0 z "},"V":{"ha":877,"x_min":6,"x_max":861,"o":"m 433 3 q 317 25 370 3 q 256 92 264 47 q 200 297 239 203 q 118 477 162 392 q 63 593 89 536 q 22 707 38 650 q 6 823 6 764 q 32 905 6 871 q 97 959 58 940 q 177 977 137 977 q 256 953 221 977 q 298 876 290 928 q 336 683 313 767 q 391 501 359 598 l 430 380 q 483 541 458 471 q 533 701 511 623 q 569 876 555 778 q 612 953 577 928 q 690 977 646 977 q 770 959 730 977 q 836 905 810 940 q 861 823 861 871 q 845 707 861 764 q 804 593 829 650 q 749 478 779 536 q 666 298 705 393 q 611 92 627 203 q 550 25 603 47 q 433 3 497 3 z "},"W":{"ha":1155,"x_min":4,"x_max":1141,"o":"m 843 -2 q 724 22 779 -2 q 661 94 669 47 q 628 248 652 176 q 572 387 604 321 q 518 248 542 321 q 484 94 494 176 q 422 22 477 47 q 302 -2 367 -2 q 200 18 245 -2 q 145 79 154 37 q 107 336 123 218 q 70 587 91 468 q 9 826 48 706 q 4 854 4 842 q 34 918 4 892 q 108 959 63 945 q 198 973 153 973 q 265 964 233 973 q 316 934 296 954 q 335 882 335 913 q 328 746 334 806 q 321 631 321 689 q 331 512 321 574 q 366 372 340 450 q 406 569 395 477 q 424 758 418 661 l 431 849 q 480 936 438 907 q 573 965 522 965 q 665 936 623 965 q 714 849 707 907 l 722 758 q 739 569 728 661 q 779 372 751 477 q 815 512 805 450 q 825 631 825 574 q 818 747 825 693 q 810 882 812 806 q 830 934 810 913 q 881 964 849 954 q 947 973 912 973 q 1038 959 994 973 q 1112 918 1082 945 q 1141 854 1141 892 q 1137 826 1141 842 q 1076 587 1097 706 q 1038 336 1055 468 q 1000 79 1023 218 q 946 18 991 37 q 843 -2 900 -2 z "},"X":{"ha":785,"x_min":24,"x_max":756,"o":"m 204 3 q 123 23 163 3 q 57 80 83 44 q 31 162 31 116 q 57 263 31 214 q 124 359 83 312 q 211 451 165 406 q 268 511 240 481 q 158 620 211 572 q 68 710 105 669 q 24 814 24 762 q 51 896 24 860 q 118 952 77 932 q 198 973 158 973 q 265 953 235 973 q 306 889 294 933 q 397 686 334 777 q 443 779 422 729 q 474 888 464 829 q 510 953 482 932 q 576 974 538 974 q 658 953 616 974 q 728 895 700 932 q 756 812 756 859 q 711 703 756 762 q 624 600 675 656 q 543 507 585 557 l 556 492 q 684 341 629 416 q 753 186 739 267 q 755 165 755 176 q 726 82 755 119 q 655 24 698 45 q 572 3 613 3 q 507 24 535 3 q 473 89 479 44 q 406 313 454 218 q 313 87 347 214 q 271 23 300 43 q 204 3 241 3 z "},"Y":{"ha":775,"x_min":-2,"x_max":770,"o":"m 401 0 q 325 15 361 0 q 264 61 288 30 q 241 140 241 92 l 241 158 q 253 381 252 259 l 194 460 q 83 614 133 538 q 5 776 33 690 q -2 820 -2 799 q 26 901 -2 867 q 95 954 54 935 q 178 972 137 972 q 251 951 220 972 q 289 884 282 930 q 382 595 309 726 q 442 736 414 659 q 479 884 469 812 q 517 951 486 930 q 589 972 548 972 q 672 954 631 972 q 742 901 714 935 q 770 821 770 867 q 762 776 770 800 q 685 614 734 690 q 574 460 635 538 l 522 391 q 551 129 528 269 q 552 111 552 120 q 530 51 552 76 q 474 13 509 26 q 401 0 439 0 z "},"Z":{"ha":734,"x_min":21,"x_max":707,"o":"m 610 -1 q 541 4 573 1 q 458 9 506 9 q 310 4 385 9 q 180 0 240 0 q 108 23 145 0 q 46 85 71 46 q 21 170 21 123 q 52 261 21 214 q 363 719 298 612 q 153 702 230 715 q 132 700 142 700 q 77 718 99 700 q 45 764 56 735 q 35 824 35 792 q 46 893 35 859 q 79 950 58 927 q 131 972 100 972 q 216 966 176 971 q 302 961 256 961 q 437 967 378 961 q 541 972 488 972 q 617 949 579 972 q 680 887 654 926 q 705 804 705 848 q 682 728 705 767 q 548 505 623 634 q 413 254 474 376 q 589 270 523 259 q 610 272 600 272 q 665 254 644 272 q 696 208 686 237 q 707 148 707 180 q 695 79 707 113 q 662 22 684 45 q 610 -1 641 -1 z "},"[":{"ha":610,"x_min":34,"x_max":576,"o":"m 481 -116 q 464 -115 473 -116 q 353 -106 406 -106 q 240 -112 293 -106 q 159 -115 195 -115 q 93 -107 121 -115 q 49 -76 64 -99 q 34 -9 34 -53 q 39 47 34 16 q 66 493 66 248 q 39 937 66 734 q 34 992 34 968 q 49 1059 34 1036 q 92 1090 64 1082 q 158 1099 120 1099 q 241 1095 195 1099 q 355 1090 294 1090 q 464 1097 408 1090 q 481 1099 473 1099 q 534 1083 513 1099 q 566 1043 555 1067 q 576 994 576 1019 q 566 946 576 968 q 534 909 556 924 q 479 895 513 895 q 454 897 468 895 q 334 909 408 905 q 324 532 324 811 q 327 249 324 382 q 334 74 330 117 q 454 86 408 79 q 479 88 468 88 q 534 74 513 88 q 566 37 556 60 q 576 -10 576 14 q 566 -61 576 -37 q 533 -100 555 -85 q 481 -116 512 -116 z "},"\\":{"ha":619,"x_min":34,"x_max":585,"o":"m 456 -7 q 370 18 409 -7 q 323 94 331 43 q 261 330 309 198 q 155 587 214 461 q 50 798 96 712 q 34 852 34 827 q 56 915 34 888 q 114 958 79 943 q 187 974 149 974 q 276 945 235 974 q 332 849 317 916 q 423 525 358 718 q 556 203 488 332 q 585 105 585 146 q 567 43 585 68 q 518 5 548 18 q 456 -7 488 -7 z "},"]":{"ha":610,"x_min":34,"x_max":576,"o":"m 129 -116 q 77 -100 98 -116 q 45 -61 56 -85 q 34 -10 34 -37 q 44 37 34 14 q 76 74 55 60 q 131 88 98 88 q 156 86 142 88 q 276 74 203 79 q 283 249 281 117 q 286 532 286 382 q 276 909 286 811 q 156 897 203 905 q 131 895 142 895 q 76 909 98 895 q 44 946 55 924 q 34 994 34 968 q 45 1043 34 1019 q 77 1083 56 1067 q 129 1099 98 1099 q 146 1097 137 1099 q 256 1090 203 1090 q 370 1095 317 1090 q 452 1099 415 1099 q 518 1090 490 1099 q 561 1059 546 1082 q 576 992 576 1036 q 572 937 576 968 q 544 493 544 734 q 572 47 544 248 q 576 -9 576 16 q 561 -76 576 -53 q 518 -107 546 -99 q 452 -115 490 -115 q 370 -112 415 -115 q 257 -106 317 -106 q 146 -115 204 -106 q 129 -116 137 -116 z "},"^":{"ha":511,"x_min":34,"x_max":477,"o":"m 357 591 q 314 604 333 591 q 292 647 296 618 q 255 779 282 721 q 219 647 229 721 q 196 604 215 618 q 153 591 178 591 q 100 604 127 591 q 53 639 72 616 q 34 690 34 662 l 34 710 q 55 775 34 745 q 106 834 77 804 q 178 926 146 874 q 213 962 192 951 q 256 972 234 972 q 298 962 279 972 q 326 935 317 952 q 363 875 341 901 q 408 827 385 849 q 456 771 436 799 q 477 710 477 744 l 477 690 q 458 639 477 662 q 411 604 439 616 q 357 591 383 591 z "},"_":{"ha":766,"x_min":34,"x_max":732,"o":"m 652 -178 q 637 -177 645 -178 q 383 -155 487 -155 q 130 -177 279 -155 q 115 -178 121 -178 q 71 -164 89 -178 q 43 -127 53 -150 q 34 -82 34 -105 q 41 -43 34 -62 q 63 -12 48 -24 q 101 0 78 0 q 214 -7 156 -1 q 383 -16 311 -16 q 595 -5 467 -16 l 638 -1 q 650 0 646 -1 q 662 0 654 0 q 702 -12 686 0 q 725 -43 718 -24 q 732 -83 732 -62 q 723 -128 732 -106 q 695 -164 713 -150 q 652 -178 677 -178 z "},"`":{"ha":368,"x_min":34,"x_max":334,"o":"m 263 972 q 227 987 241 972 q 129 1063 189 1026 q 72 1103 96 1084 q 40 1137 47 1122 q 34 1166 34 1153 q 67 1232 34 1205 q 136 1259 100 1259 q 195 1219 179 1259 q 239 1131 212 1175 q 310 1057 266 1086 q 334 1023 334 1040 q 311 988 334 1003 q 263 972 288 972 z "},"a":{"ha":817,"x_min":23,"x_max":782,"o":"m 237 0 l 230 0 q 79 80 135 3 q 23 254 23 156 q 45 369 23 313 q 115 470 66 425 q 242 541 163 514 q 435 568 321 568 q 500 566 465 568 q 498 629 500 600 q 448 701 492 701 q 400 686 426 701 q 352 649 375 671 q 313 607 329 627 q 250 575 286 575 q 188 594 218 575 q 136 646 157 614 q 115 715 115 677 q 160 810 115 767 q 286 886 213 860 q 436 912 359 912 q 554 896 497 912 q 657 844 612 879 q 729 758 703 810 q 756 634 756 705 q 754 553 756 591 q 752 460 752 511 q 756 389 752 428 q 765 301 760 350 q 781 140 772 233 q 782 119 782 128 q 755 59 782 84 q 688 21 729 35 q 606 8 648 8 q 508 32 552 8 q 454 104 463 55 q 237 0 334 0 m 347 271 q 399 280 367 271 q 457 317 431 290 q 490 396 484 344 l 494 441 l 469 441 q 355 423 397 441 q 297 379 314 406 q 280 323 280 352 q 299 288 280 304 q 347 271 317 271 z "},"b":{"ha":795,"x_min":42,"x_max":771,"o":"m 477 0 q 323 35 410 0 q 214 0 282 0 q 133 14 173 0 q 68 56 94 28 q 43 121 43 83 q 44 138 43 130 q 73 486 73 319 q 43 842 73 656 q 42 860 42 851 q 63 920 42 895 q 118 958 85 945 q 189 971 152 971 q 264 956 228 971 q 322 910 300 941 q 345 831 345 880 q 342 785 345 810 q 339 748 340 767 q 471 774 408 774 l 474 774 q 641 719 575 772 q 739 579 707 665 q 771 399 771 494 q 752 254 771 326 q 696 126 733 183 q 604 34 659 68 q 477 0 549 0 m 420 237 q 487 261 460 237 q 527 326 513 286 q 540 407 540 365 q 527 486 540 448 q 489 547 515 524 q 426 571 464 571 q 333 538 387 571 l 333 494 q 342 259 333 370 q 420 237 385 237 z "},"c":{"ha":741,"x_min":18,"x_max":724,"o":"m 430 1 q 250 40 327 1 q 121 145 172 79 q 44 293 69 211 q 18 460 18 375 q 43 626 18 545 q 117 770 68 706 q 241 872 167 834 q 414 911 315 911 q 564 867 499 911 q 664 753 628 823 q 701 603 701 683 q 655 508 698 538 q 555 477 612 477 q 475 497 510 477 q 439 553 439 517 q 444 584 439 568 q 448 616 448 601 q 433 670 448 650 q 395 690 418 690 q 352 672 376 690 q 311 616 328 654 q 294 515 294 577 l 294 452 q 306 342 294 391 q 345 264 318 293 q 414 235 372 235 q 483 270 454 237 q 530 338 511 302 q 575 361 546 361 q 640 342 605 361 q 699 296 674 324 q 724 238 724 267 q 719 215 724 227 q 650 106 692 155 q 554 30 609 58 q 430 1 498 1 z "},"d":{"ha":792,"x_min":18,"x_max":746,"o":"m 574 0 q 465 35 506 0 q 311 0 378 0 q 185 34 240 0 q 93 126 130 68 q 37 254 56 183 q 18 399 18 326 q 50 579 18 494 q 147 719 81 665 q 314 774 213 772 l 317 774 q 449 748 380 774 q 446 785 448 767 q 443 831 443 810 q 466 910 443 880 q 524 956 488 941 q 599 971 560 971 q 670 958 636 971 q 725 920 703 945 q 746 860 746 895 q 745 842 746 851 q 715 487 715 656 q 744 138 715 320 q 745 121 745 130 q 720 56 745 83 q 655 14 694 28 q 574 0 615 0 m 368 237 q 446 259 403 237 q 455 494 455 370 l 455 538 q 362 571 402 571 q 299 547 324 571 q 261 486 273 524 q 248 407 248 448 q 261 326 248 365 q 301 261 275 286 q 368 237 328 237 z "},"e":{"ha":744,"x_min":22,"x_max":739,"o":"m 309 557 q 425 578 340 559 q 503 593 472 588 q 465 664 494 637 q 401 691 435 691 q 343 660 370 691 q 309 557 316 629 m 440 1 q 260 39 338 1 q 129 141 182 76 q 49 294 76 207 q 22 481 22 381 q 51 672 22 593 q 131 803 81 752 q 242 878 180 854 q 368 901 304 901 q 526 865 452 901 q 646 763 600 829 q 694 605 692 696 q 658 499 694 535 q 538 439 623 463 q 307 388 453 416 q 338 275 311 311 q 421 238 365 238 l 429 238 q 543 343 490 245 q 588 366 558 366 q 653 348 618 366 q 713 300 688 329 q 739 241 739 271 q 734 218 739 229 q 664 107 706 156 q 566 30 623 59 q 440 1 510 1 z "},"f":{"ha":682,"x_min":-13,"x_max":677,"o":"m 330 -5 q 236 8 282 -5 q 160 47 190 22 q 130 110 130 73 q 134 174 130 144 q 137 254 137 205 q 132 408 137 330 l 131 441 q 60 431 94 437 q 50 430 56 430 q 4 461 20 430 q -13 527 -13 492 q 2 585 -13 559 q 48 611 17 611 q 83 608 63 611 q 127 603 103 605 q 178 853 129 764 q 277 944 214 914 q 410 973 340 973 q 567 932 492 973 q 669 810 641 890 q 677 758 677 780 q 661 703 677 724 q 620 672 645 682 q 567 663 594 663 q 500 677 530 663 q 468 718 470 692 q 454 771 467 753 q 425 789 441 789 q 395 768 409 789 q 382 706 382 748 q 391 600 382 654 q 524 610 475 602 l 535 611 q 582 585 567 611 q 596 527 596 559 q 579 461 596 492 q 533 430 563 430 l 524 431 q 425 444 477 439 l 458 322 q 506 136 486 222 q 509 111 509 123 q 483 46 509 72 q 416 8 457 20 q 330 -5 376 -5 z "},"g":{"ha":759,"x_min":31,"x_max":752,"o":"m 378 549 q 419 576 401 549 q 438 659 438 604 q 417 736 438 711 q 373 762 397 762 q 330 739 350 762 q 311 667 311 715 q 332 579 312 609 q 378 549 351 549 m 336 -162 q 186 -135 248 -162 q 93 -60 125 -108 q 61 48 61 -13 q 102 197 61 117 q 65 255 77 222 q 53 323 53 288 q 67 398 53 361 q 108 467 81 435 q 31 648 31 538 q 80 794 33 736 q 204 882 127 852 q 364 911 280 911 q 448 904 407 911 q 483 952 465 926 q 516 999 500 979 q 545 1025 532 1020 q 568 1030 558 1030 q 622 1003 600 1030 q 643 947 643 976 q 610 898 643 911 q 551 871 581 887 q 659 781 623 836 q 696 642 696 726 q 668 526 696 576 q 592 444 640 477 q 485 394 544 410 q 363 377 425 377 q 290 383 326 377 q 283 365 283 372 q 298 348 283 353 q 340 344 313 344 q 389 346 371 344 q 453 348 410 347 q 623 319 557 348 q 721 242 689 290 q 752 140 752 195 q 724 34 752 87 q 642 -64 695 -20 q 511 -135 588 -108 q 336 -162 433 -162 m 284 60 q 328 66 302 60 q 397 94 375 77 q 425 129 419 111 q 431 160 431 146 q 412 188 431 179 q 364 200 392 197 q 308 203 336 203 l 273 202 q 242 161 257 189 q 227 107 227 134 q 284 60 227 60 z "},"h":{"ha":772,"x_min":43,"x_max":764,"o":"m 619 -3 q 530 11 574 -3 q 457 52 486 25 q 428 116 428 79 q 437 199 429 147 q 450 297 444 242 q 456 420 456 353 q 441 504 456 477 q 402 530 426 530 q 334 494 373 530 q 357 136 337 274 q 359 113 359 124 q 339 49 359 74 q 286 12 318 24 q 216 0 253 0 q 136 13 176 0 q 70 52 96 26 q 44 114 44 77 q 45 138 44 125 q 59 273 52 208 q 71 381 66 328 q 75 487 75 434 q 67 659 75 572 q 45 842 58 745 q 43 860 43 851 q 65 921 43 896 q 120 958 86 945 q 191 971 154 971 q 265 956 229 971 q 324 910 301 941 q 347 831 347 880 l 346 813 q 338 702 341 762 q 420 770 378 749 q 505 791 463 791 q 604 761 558 791 q 677 679 649 731 q 705 562 705 627 q 704 517 705 538 q 703 470 703 496 q 747 163 703 262 q 764 98 764 126 q 744 41 764 63 q 690 7 723 18 q 619 -3 657 -3 z "},"i":{"ha":387,"x_min":39,"x_max":353,"o":"m 191 1 q 121 14 154 1 q 67 51 87 26 q 46 117 46 77 q 50 150 46 132 q 69 337 69 254 q 62 451 69 400 q 49 539 56 502 q 42 591 42 577 q 64 659 42 632 q 121 699 86 686 q 193 712 155 712 q 261 700 229 712 q 314 665 293 688 q 334 609 334 642 q 332 586 334 598 q 318 433 318 517 q 351 135 318 270 q 353 112 353 123 q 329 52 353 77 q 268 15 305 28 q 191 1 231 1 m 183 745 q 81 779 123 745 q 39 859 39 812 q 81 939 39 906 q 183 972 123 972 q 285 939 243 972 q 327 859 327 906 q 285 779 327 812 q 183 745 243 745 z "},"j":{"ha":420,"x_min":-117,"x_max":372,"o":"m 77 -233 q -33 -216 10 -233 q -96 -170 -75 -198 q -117 -110 -117 -142 q -75 -8 -117 -56 q 9 39 -34 39 q 46 27 29 39 q 90 7 74 7 q 121 41 114 7 q 125 123 125 62 q 81 562 125 321 q 78 589 78 576 q 97 652 78 627 q 148 688 117 676 q 213 700 178 700 q 288 686 252 700 q 349 646 325 672 q 372 581 372 619 q 371 564 372 573 q 352 296 352 431 q 362 99 352 194 q 365 51 365 74 q 339 -81 365 -26 q 270 -169 313 -135 q 177 -218 228 -202 q 77 -233 126 -233 m 212 745 q 110 779 152 745 q 67 859 67 812 q 110 939 67 906 q 212 972 152 972 q 313 939 271 972 q 355 859 355 906 q 313 779 355 812 q 212 745 271 745 z "},"k":{"ha":758,"x_min":42,"x_max":767,"o":"m 588 -7 q 558 -5 574 -7 q 466 58 505 5 q 404 186 428 112 q 372 333 380 260 q 338 324 355 328 q 355 136 344 211 q 357 112 357 123 q 337 48 357 73 q 284 12 317 24 q 214 0 251 0 q 133 14 172 0 q 68 56 94 28 q 43 121 43 83 q 44 138 43 130 q 73 487 73 320 q 43 842 73 656 q 42 860 42 851 q 63 920 42 895 q 118 958 85 945 q 189 971 152 971 q 263 957 228 971 q 322 911 299 942 q 345 831 345 880 q 342 787 343 799 q 339 752 341 776 q 492 811 413 811 q 629 755 572 811 q 686 621 686 699 q 650 509 686 566 q 532 401 614 451 q 588 308 545 351 q 721 216 631 266 q 767 142 767 191 q 744 73 767 108 q 681 16 721 39 q 588 -7 640 -7 m 342 519 q 452 566 411 541 q 512 615 494 591 q 530 656 530 640 q 498 686 530 683 q 453 670 479 686 q 398 617 427 654 q 342 519 369 581 z "},"l":{"ha":402,"x_min":41,"x_max":357,"o":"m 214 0 q 133 14 172 0 q 67 56 93 28 q 42 121 42 83 q 43 138 42 130 q 73 487 73 321 q 43 842 73 656 q 41 860 41 851 q 63 920 41 895 q 118 958 84 945 q 189 971 151 971 q 263 956 227 971 q 322 910 299 941 q 345 831 345 880 l 344 813 q 332 528 332 680 q 355 136 332 303 q 357 113 357 123 q 337 49 357 74 q 283 12 316 24 q 214 0 250 0 z "},"m":{"ha":1158,"x_min":42,"x_max":1147,"o":"m 997 0 q 909 14 952 0 q 839 54 867 27 q 811 119 811 80 q 817 216 812 145 q 829 519 829 415 q 814 615 829 584 q 773 646 799 646 q 711 612 746 646 l 709 560 q 708 458 708 512 q 735 167 708 280 q 741 125 741 145 q 720 56 741 84 q 665 15 699 28 q 595 1 632 1 q 522 16 557 1 q 465 60 487 31 q 442 135 442 90 q 446 171 442 151 q 457 259 452 201 q 462 380 462 316 q 456 504 462 444 q 434 601 450 563 q 393 640 419 640 q 318 580 363 640 q 328 324 318 454 q 351 135 337 193 q 353 112 353 123 q 329 53 353 77 q 268 15 305 28 q 191 1 231 1 q 121 14 154 1 q 67 51 87 26 q 46 117 46 77 q 50 150 46 132 q 69 393 69 243 q 60 616 69 512 q 44 762 51 720 q 42 785 42 774 q 64 853 42 827 q 121 893 86 880 q 192 906 155 906 q 288 881 245 906 q 334 806 331 855 q 420 885 374 860 q 510 909 466 909 q 612 878 565 909 q 686 791 659 846 q 776 882 728 854 q 872 910 825 910 q 971 880 926 910 q 1045 797 1017 849 q 1074 678 1074 744 q 1077 515 1074 617 q 1093 318 1081 414 q 1128 171 1105 222 q 1147 102 1147 132 q 1126 45 1147 68 q 1070 11 1105 22 q 997 0 1036 0 z "},"n":{"ha":796,"x_min":42,"x_max":785,"o":"m 635 0 q 548 14 590 0 q 477 55 505 28 q 450 119 450 81 l 453 188 q 467 519 467 406 q 452 615 467 585 q 411 646 437 646 q 318 577 372 646 q 328 323 318 452 q 351 135 337 193 q 353 112 353 123 q 329 52 353 77 q 268 15 305 28 q 191 1 231 1 q 121 14 154 1 q 67 51 87 26 q 46 117 46 77 q 50 150 46 132 q 69 393 69 245 q 60 616 69 512 q 44 762 51 720 q 42 785 42 774 q 64 853 42 827 q 121 893 86 880 q 192 906 155 906 q 288 881 245 906 q 334 806 331 855 q 420 885 375 861 q 510 910 466 910 q 649 845 590 910 q 711 678 709 779 q 715 514 711 614 q 731 318 719 414 q 766 171 743 222 q 785 102 785 132 q 764 45 785 67 q 708 11 743 22 q 635 0 674 0 z "},"o":{"ha":816,"x_min":20,"x_max":785,"o":"m 411 0 q 224 52 314 0 q 79 208 135 104 q 20 467 22 312 q 52 659 20 577 q 137 796 83 741 q 257 879 190 851 q 394 906 323 906 q 536 878 467 906 q 662 794 606 850 q 751 655 718 739 q 785 460 785 572 q 753 256 785 343 q 668 113 722 170 q 548 28 615 56 q 411 0 481 0 m 406 235 q 456 258 432 235 q 495 327 480 281 q 511 440 511 372 q 474 625 507 564 q 398 686 441 686 q 348 661 372 686 q 309 586 324 636 q 294 463 294 536 q 311 336 295 387 q 352 260 327 286 q 406 235 377 235 z "},"p":{"ha":796,"x_min":42,"x_max":770,"o":"m 214 -115 q 133 -100 172 -115 q 68 -59 94 -86 q 43 7 43 -32 q 44 23 43 15 q 73 399 73 213 q 43 782 73 589 q 42 800 42 791 q 63 860 42 835 q 118 898 85 885 q 189 911 152 911 q 252 901 221 911 q 305 869 282 890 q 471 911 393 911 l 474 911 q 641 861 575 909 q 739 738 707 814 q 770 577 770 661 q 751 448 770 511 q 695 334 732 385 q 603 252 658 283 q 477 222 548 222 q 336 251 415 222 q 355 21 342 107 q 357 -2 357 9 q 337 -65 357 -41 q 284 -102 317 -90 q 214 -115 251 -115 m 431 452 q 491 472 467 452 q 528 523 515 492 q 540 587 540 554 q 528 649 540 620 q 494 697 517 679 q 437 716 471 716 q 338 681 396 716 q 332 486 334 591 q 431 452 389 452 z "},"q":{"ha":785,"x_min":12,"x_max":741,"o":"m 569 -115 q 499 -102 532 -115 q 446 -65 467 -90 q 425 -2 425 -41 q 427 21 425 9 q 447 251 441 107 q 306 222 369 222 q 180 252 235 222 q 87 334 125 283 q 31 448 50 385 q 12 577 12 511 q 44 738 12 661 q 142 861 76 814 q 309 911 208 909 l 312 911 q 478 869 390 911 q 532 901 501 890 q 594 911 562 911 q 665 898 631 911 q 720 860 699 885 q 741 800 741 835 q 740 782 741 791 q 709 399 709 589 q 739 23 709 213 q 741 7 741 15 q 715 -59 741 -32 q 650 -100 689 -86 q 569 -115 610 -115 m 352 452 q 450 486 393 452 q 444 681 450 591 q 345 716 387 716 q 289 697 311 716 q 255 649 266 679 q 243 587 243 620 q 255 523 243 554 q 292 472 267 492 q 352 452 316 452 z "},"r":{"ha":747,"x_min":41,"x_max":728,"o":"m 205 2 q 128 14 165 2 q 68 52 92 26 q 45 119 45 78 q 49 150 45 133 q 68 391 68 237 q 59 615 68 510 q 43 762 50 720 q 41 785 41 774 q 63 853 41 827 q 119 893 85 880 q 191 907 154 907 q 260 895 227 907 q 313 860 292 883 q 334 803 334 837 q 331 781 334 793 q 421 879 372 848 q 517 909 469 909 q 618 879 570 909 q 697 793 666 848 q 728 668 728 739 q 713 570 728 610 q 674 508 698 531 q 622 474 650 484 q 568 465 593 465 q 507 479 532 465 q 482 519 482 494 q 468 618 482 583 q 429 653 454 653 q 327 570 387 653 q 353 317 336 441 q 385 136 370 193 q 387 114 387 124 q 360 54 387 79 q 292 16 334 29 q 205 2 250 2 z "},"s":{"ha":736,"x_min":27,"x_max":709,"o":"m 390 -1 q 77 110 203 -1 q 27 216 27 155 q 49 298 27 260 q 103 360 71 336 q 165 385 136 385 q 192 378 180 385 q 215 355 205 371 q 258 324 224 340 q 323 309 292 309 q 366 345 366 309 q 351 378 366 366 q 313 400 337 391 q 260 418 289 410 q 184 444 223 429 q 113 485 146 459 q 59 554 79 511 q 38 663 38 597 q 66 773 38 726 q 140 850 94 819 q 245 896 186 881 q 365 911 303 911 q 516 887 444 911 q 639 817 589 863 q 690 712 690 766 q 671 649 690 677 q 621 605 651 621 q 561 589 591 589 q 492 622 517 589 q 437 675 470 651 q 376 699 404 699 q 340 681 353 699 q 327 643 327 663 q 334 617 327 629 q 357 599 341 605 l 412 580 q 523 541 470 562 q 617 487 575 519 q 684 405 659 455 q 709 278 709 355 q 689 176 709 226 q 630 86 669 126 q 530 23 590 47 q 390 -1 470 -1 z "},"t":{"ha":759,"x_min":-1,"x_max":742,"o":"m 463 -3 q 339 25 399 -3 q 239 117 279 54 q 191 281 199 180 q 189 349 189 314 q 192 450 189 398 q 199 555 195 503 q 73 542 124 551 l 63 541 q 16 572 33 541 q -1 639 -1 603 q 14 696 -1 671 q 60 722 28 722 l 71 721 q 208 711 116 715 l 209 753 q 203 838 209 798 l 203 852 q 227 916 203 890 q 290 955 252 942 q 369 968 328 968 q 441 957 407 968 q 496 920 475 945 q 518 856 518 895 q 515 827 518 842 q 492 711 503 772 q 642 721 593 713 l 654 722 q 700 696 685 722 q 714 639 714 671 q 697 572 714 603 q 650 541 681 541 l 641 542 q 465 558 572 554 q 437 264 440 407 q 447 211 437 228 q 469 193 457 193 q 491 208 481 193 q 500 248 500 222 q 496 275 500 260 q 492 304 492 289 q 533 373 492 342 q 621 404 573 404 q 673 389 648 404 q 715 342 699 375 q 742 231 742 283 q 701 108 742 161 q 597 26 661 56 q 463 -3 533 -3 z "},"u":{"ha":789,"x_min":27,"x_max":749,"o":"m 586 0 q 491 25 533 0 q 442 104 448 50 q 356 25 401 50 q 267 0 311 0 q 127 65 186 0 q 64 232 67 131 q 60 509 64 390 q 35 743 55 660 q 27 793 27 770 q 48 862 27 835 q 104 901 70 888 q 177 914 139 914 q 258 900 218 914 q 322 859 297 886 q 348 794 348 832 q 335 676 347 763 q 317 526 326 606 q 309 391 309 446 q 324 295 309 326 q 364 264 339 264 q 466 345 407 264 q 467 409 467 376 q 458 626 467 526 q 444 768 450 727 q 441 790 441 780 q 464 859 441 832 q 521 900 486 886 q 593 913 556 913 q 662 901 629 913 q 714 866 694 889 q 734 810 734 844 q 732 787 734 800 q 717 562 717 703 q 726 313 717 437 q 747 133 734 189 q 749 111 749 121 q 725 51 749 76 q 664 13 701 26 q 586 0 626 0 z "},"v":{"ha":836,"x_min":3,"x_max":823,"o":"m 418 3 q 302 25 355 3 q 241 92 250 47 q 187 291 224 203 q 108 455 150 379 q 57 557 80 507 q 18 660 33 608 q 3 772 3 713 q 27 846 3 814 q 88 893 50 877 q 169 910 126 910 q 252 886 215 910 q 297 810 289 862 q 326 654 310 713 q 366 528 342 594 q 415 380 387 471 q 458 515 441 462 q 499 648 483 587 q 529 810 515 709 q 574 886 538 862 q 656 911 611 911 q 734 895 696 911 q 798 850 772 880 q 823 781 823 821 q 809 673 823 725 q 773 571 795 622 q 724 466 751 519 q 649 295 685 387 q 596 92 613 204 q 535 25 588 47 q 418 3 483 3 z "},"w":{"ha":1153,"x_min":1,"x_max":1139,"o":"m 842 -2 q 724 22 779 -2 q 661 94 669 47 q 628 268 651 178 q 574 426 605 357 q 518 268 543 357 q 484 94 493 178 q 421 22 476 47 q 302 -2 366 -2 q 199 18 245 -2 q 144 79 153 37 q 115 269 127 184 q 72 518 95 405 q 6 762 50 631 q 1 791 1 778 q 31 854 1 827 q 105 895 60 881 q 195 909 149 909 q 262 900 231 909 q 313 869 294 890 q 332 817 332 849 q 325 693 330 740 q 320 626 320 658 q 330 539 320 587 q 368 412 340 492 q 408 583 398 522 q 425 739 418 644 l 429 785 q 478 872 435 843 q 570 901 520 901 q 663 872 621 901 q 711 785 705 843 q 733 598 721 663 q 781 412 746 532 q 815 530 806 485 q 824 611 824 575 q 818 685 824 649 q 808 817 809 732 q 827 869 808 849 q 878 900 846 890 q 945 909 909 909 q 1035 895 991 909 q 1109 854 1080 881 q 1139 791 1139 827 q 1134 762 1139 778 q 1071 528 1092 637 q 1033 293 1050 420 q 1000 79 1019 199 q 945 18 991 37 q 842 -2 899 -2 z "},"x":{"ha":802,"x_min":22,"x_max":779,"o":"m 596 -1 q 531 20 559 -1 q 496 85 503 40 q 420 315 477 222 q 319 85 355 220 q 276 21 307 41 q 210 1 246 1 q 130 22 170 1 q 63 78 90 42 q 37 160 37 114 q 64 258 37 213 q 134 344 92 303 q 223 423 176 385 q 286 477 256 450 q 166 574 224 532 q 70 651 109 615 q 22 749 22 696 q 49 832 22 795 q 116 889 76 868 q 197 909 157 909 q 263 889 234 909 q 304 825 293 869 q 409 619 336 705 q 483 822 462 700 q 519 887 491 867 q 584 907 547 907 q 666 886 625 907 q 736 829 708 865 q 764 746 764 793 q 717 637 764 692 q 623 543 679 593 q 552 475 589 511 l 568 460 q 666 369 618 417 q 746 270 714 321 q 779 161 779 218 q 750 78 779 115 q 679 20 722 41 q 596 -1 637 -1 z "},"y":{"ha":757,"x_min":33,"x_max":706,"o":"m 387 -218 q 271 -197 328 -218 q 171 -134 214 -176 q 107 -26 128 -91 q 100 19 100 -1 q 124 87 100 61 q 185 125 149 113 q 258 138 222 138 q 323 125 296 138 q 351 92 351 113 q 364 38 351 56 q 393 20 377 20 q 424 42 410 20 q 438 107 438 63 q 429 308 438 144 q 339 229 387 253 q 246 205 292 205 q 143 233 191 205 q 67 307 96 262 q 39 403 39 353 q 42 500 39 446 q 46 630 46 566 q 38 743 46 694 q 33 789 33 768 q 52 860 33 833 q 103 899 72 887 q 168 911 134 911 q 242 896 208 911 q 296 854 275 882 q 316 787 316 826 q 313 749 316 777 q 296 555 296 629 q 336 441 296 441 q 416 504 363 441 q 390 765 405 679 q 388 789 388 778 q 412 856 388 829 q 474 896 436 883 q 551 909 511 909 q 626 897 591 909 q 684 862 661 885 q 706 806 706 840 q 703 783 706 795 q 686 597 686 708 q 692 420 686 512 q 698 238 698 329 q 684 61 698 146 q 630 -95 670 -24 q 527 -187 593 -155 q 387 -218 461 -218 z "},"z":{"ha":712,"x_min":24,"x_max":695,"o":"m 598 -1 q 514 6 550 1 q 445 11 479 11 q 326 5 384 11 q 199 0 269 0 q 123 25 162 0 q 58 89 84 50 q 32 168 32 128 q 50 223 32 197 q 128 330 90 279 q 243 491 189 412 q 340 657 296 569 q 140 641 193 651 q 120 639 130 639 q 65 656 87 639 q 34 703 44 674 q 24 763 24 731 q 35 831 24 797 q 67 888 46 865 q 119 911 89 911 q 192 905 159 909 q 266 901 225 901 q 404 906 336 901 q 522 911 467 911 q 628 863 584 911 q 672 754 672 816 q 649 674 672 713 q 403 254 491 425 q 578 270 511 259 q 598 272 588 272 q 653 254 631 272 q 685 209 674 237 q 695 149 695 180 q 684 79 695 114 q 650 22 672 45 q 598 -1 629 -1 z "},"{":{"ha":657,"x_min":34,"x_max":623,"o":"m 405 -116 q 246 -74 307 -116 q 173 91 173 -22 q 189 230 176 163 q 202 337 202 302 q 185 404 202 378 q 119 429 168 429 q 101 428 109 429 q 81 427 94 427 q 45 446 57 427 q 34 490 34 466 q 46 536 34 515 q 79 557 58 557 q 102 554 91 557 q 125 551 114 551 q 179 581 165 551 q 193 657 193 611 q 183 770 193 712 q 173 892 174 829 q 246 1057 173 1006 q 405 1099 307 1099 q 551 1080 492 1099 q 623 1004 623 1055 q 601 945 623 974 q 544 917 578 917 q 513 924 530 917 q 449 943 473 943 q 419 931 429 943 q 406 902 409 920 q 402 862 402 884 q 408 785 402 829 q 416 661 416 710 q 400 561 416 604 q 345 492 384 519 q 400 422 384 465 q 416 323 416 380 q 408 198 416 273 q 402 121 402 154 q 406 82 402 100 q 419 52 409 63 q 449 41 429 41 q 513 59 473 41 q 544 66 530 66 q 601 38 578 66 q 623 -21 623 9 q 551 -96 623 -72 q 405 -116 492 -116 z "},"|":{"ha":819,"x_min":305,"x_max":513,"o":"m 419 -121 q 366 -107 392 -121 q 322 -67 339 -93 q 305 -3 305 -41 q 307 17 305 7 q 331 519 331 242 q 315 993 331 732 l 314 1005 q 329 1055 314 1034 q 368 1087 345 1076 q 416 1099 391 1099 q 462 1087 440 1099 q 497 1053 484 1076 q 511 991 511 1029 q 509 964 511 978 q 491 502 491 822 q 496 214 491 349 q 511 15 502 79 q 513 -16 513 -1 q 500 -75 513 -52 q 465 -110 487 -98 q 419 -121 444 -121 z "},"}":{"ha":657,"x_min":34,"x_max":623,"o":"m 252 -116 q 106 -96 165 -116 q 34 -21 34 -72 q 57 38 34 9 q 113 66 79 66 q 144 59 127 66 q 208 41 185 41 q 239 52 229 41 q 252 82 249 63 q 255 121 255 100 q 250 198 255 154 q 241 323 241 273 q 257 422 241 380 q 312 492 273 465 q 257 561 273 519 q 241 661 241 604 q 250 785 241 710 q 255 862 255 829 q 252 902 255 884 q 239 931 249 920 q 208 943 229 943 q 144 924 185 943 q 113 917 127 917 q 57 945 79 917 q 34 1004 34 974 q 106 1080 34 1055 q 252 1099 165 1099 q 411 1057 351 1099 q 484 892 484 1006 q 474 770 483 829 q 465 657 465 712 q 478 581 465 611 q 532 551 492 551 q 555 554 543 551 q 578 557 566 557 q 611 536 600 557 q 623 490 623 515 q 612 446 623 466 q 576 427 600 427 q 556 428 564 427 q 538 429 548 429 q 472 404 490 429 q 455 337 455 378 q 468 230 455 302 q 484 91 481 163 q 411 -74 484 -22 q 252 -116 351 -116 z "},"~":{"ha":608,"x_min":34,"x_max":574,"o":"m 423 362 q 364 372 391 362 q 314 397 337 382 q 271 427 290 412 q 237 450 252 441 q 208 460 221 460 q 163 396 179 460 q 145 371 159 379 q 113 363 131 363 q 77 370 96 363 q 46 392 59 378 q 34 427 34 406 q 55 530 35 490 q 107 590 75 570 q 176 609 139 609 q 236 598 209 609 q 287 571 263 587 q 329 539 310 555 q 364 512 348 523 q 394 501 380 501 q 444 576 426 501 q 463 602 449 593 q 494 610 477 610 q 549 592 524 610 q 574 543 574 575 q 551 438 574 477 q 494 380 529 398 q 423 362 460 362 z "},"¡":{"ha":372,"x_min":34,"x_max":338,"o":"m 180 -363 q 110 -351 143 -363 q 55 -315 76 -338 q 34 -258 34 -292 q 37 -235 34 -248 q 63 47 63 -111 q 47 230 63 161 q 44 254 44 242 q 66 313 44 288 q 123 350 88 337 q 195 363 157 363 q 263 350 231 363 q 316 312 295 338 q 336 247 336 287 q 334 224 336 235 q 323 39 323 159 q 331 -119 323 -31 l 338 -218 q 338 -235 338 -224 q 315 -307 338 -279 q 254 -349 291 -336 q 180 -363 218 -363 m 194 423 q 98 456 138 423 q 58 536 58 490 q 98 616 58 583 q 194 650 138 650 q 290 616 250 650 q 330 536 330 583 q 290 456 330 490 q 194 423 250 423 z "},"¢":{"ha":773,"x_min":34,"x_max":739,"o":"m 360 -152 q 298 -135 326 -152 q 271 -89 271 -119 q 274 -71 271 -81 q 290 30 279 -52 q 148 132 204 65 q 62 284 91 199 q 34 460 34 370 q 71 661 34 564 q 183 823 109 757 q 370 907 258 889 q 371 963 371 942 q 370 991 371 981 l 370 1002 q 398 1048 370 1032 q 459 1064 427 1064 q 518 1047 492 1064 q 545 997 545 1031 q 543 977 545 991 q 532 891 540 960 q 667 777 617 855 q 716 606 716 699 q 673 509 714 540 q 571 477 631 477 q 490 497 526 477 q 455 553 455 517 q 458 570 455 561 q 464 615 464 595 q 448 670 464 650 q 411 690 433 690 q 371 672 391 690 q 334 615 350 654 q 312 515 318 577 q 309 451 309 483 q 321 342 309 391 q 359 264 333 293 q 427 235 386 235 q 496 267 469 237 q 546 338 524 298 q 591 361 562 361 q 655 342 621 361 q 714 296 690 324 q 739 238 739 268 q 734 215 739 226 q 625 67 694 125 q 458 2 556 8 q 457 -27 457 -17 q 456 -66 456 -37 q 406 -143 456 -123 q 360 -152 384 -152 z "},"£":{"ha":772,"x_min":34,"x_max":739,"o":"m 633 0 l 621 1 q 458 11 543 11 q 302 5 368 11 q 193 0 247 0 q 152 15 168 0 q 126 53 135 29 q 118 102 118 76 q 124 145 118 129 q 139 175 130 161 q 157 210 149 189 q 186 330 182 271 q 99 317 137 325 q 88 316 94 316 q 48 340 63 316 q 34 393 34 365 q 45 436 34 416 q 82 456 57 456 q 119 453 100 456 q 178 450 138 451 q 142 557 166 495 q 117 626 127 593 q 107 690 107 659 q 151 849 109 786 q 263 942 194 911 q 408 972 332 972 q 523 954 465 972 q 627 902 580 937 q 702 817 673 867 q 730 700 730 766 l 730 661 q 683 579 726 606 q 594 553 641 553 q 523 571 554 553 q 491 622 491 589 q 496 650 491 635 q 501 680 501 666 q 478 737 501 716 q 429 758 455 758 q 368 676 370 758 q 394 552 368 637 q 419 456 408 506 q 597 472 543 462 l 606 473 q 640 452 629 473 q 650 406 650 432 q 640 357 650 380 q 608 334 629 334 q 545 338 578 334 q 431 343 497 342 q 400 222 428 277 q 623 270 519 237 q 657 276 641 276 q 703 259 685 276 q 730 215 721 242 q 739 157 739 189 q 726 84 739 120 q 691 24 714 47 q 633 0 667 0 z "},"¤":{"ha":605,"x_min":34,"x_max":571,"o":"m 302 378 q 341 405 323 378 q 359 484 359 431 q 341 573 357 543 q 302 602 324 602 q 264 573 281 602 q 246 484 248 543 q 264 405 246 431 q 302 378 281 378 m 499 203 q 461 227 477 203 q 412 293 446 251 q 302 259 359 259 q 193 293 246 259 q 145 227 159 251 q 106 203 128 203 q 57 227 80 203 q 34 277 34 251 q 50 310 34 296 q 122 375 83 334 q 98 490 98 422 q 120 600 99 554 q 50 662 81 638 q 34 695 34 676 q 57 745 34 721 q 106 769 80 769 q 145 745 128 769 q 191 682 159 722 q 302 714 243 714 q 414 682 361 714 q 460 745 446 722 q 499 769 477 769 q 548 745 525 769 q 571 695 571 721 q 555 662 571 676 q 485 600 524 638 q 502 547 497 572 q 507 487 507 521 q 483 375 507 421 q 555 310 523 334 q 571 277 571 296 q 548 227 571 251 q 499 203 525 203 z "},"¥":{"ha":840,"x_min":34,"x_max":806,"o":"m 437 0 q 361 15 398 0 q 301 61 324 30 q 277 140 277 92 l 278 156 q 178 140 220 151 q 166 139 172 139 q 126 163 140 139 q 112 215 112 187 q 124 259 112 239 q 163 279 137 279 q 286 273 227 273 q 289 334 288 303 q 178 317 224 328 q 166 316 172 316 q 126 340 140 316 q 112 392 112 364 q 124 436 112 416 q 163 456 137 456 q 237 451 201 452 q 120 613 172 534 q 41 776 70 689 q 34 821 34 799 q 62 901 34 867 q 132 954 90 935 q 214 972 174 972 q 288 951 256 972 q 326 884 319 930 q 419 595 345 728 q 515 884 498 756 q 553 951 522 930 q 626 972 585 972 q 709 954 667 972 q 778 901 750 935 q 806 821 806 867 q 799 776 806 800 q 722 615 771 690 q 614 464 673 541 q 675 472 651 468 l 684 473 q 718 452 707 473 q 728 406 728 431 q 717 357 728 380 q 683 334 705 334 q 562 342 630 340 l 567 283 q 675 295 637 288 l 684 296 q 718 275 707 296 q 728 229 728 254 q 717 180 728 203 q 683 157 705 157 q 582 165 637 162 q 589 111 589 120 q 567 51 589 76 q 510 13 545 26 q 437 0 475 0 z "},"¦":{"ha":276,"x_min":34,"x_max":242,"o":"m 148 511 q 70 524 106 511 q 34 561 34 537 q 35 570 34 566 q 60 785 60 667 q 43 989 60 878 l 43 995 q 75 1024 43 1014 q 145 1035 108 1035 q 211 1024 181 1035 q 240 989 240 1013 q 238 977 240 983 q 220 779 220 916 q 225 655 220 713 q 239 569 231 597 q 242 556 242 562 q 213 522 242 532 q 148 511 184 511 m 148 -284 q 70 -271 106 -284 q 34 -234 34 -258 q 35 -225 34 -229 q 60 -9 60 -128 q 43 195 60 83 l 43 200 q 75 230 43 219 q 145 240 108 240 q 211 229 181 240 q 240 194 240 218 q 238 182 240 188 q 220 -16 220 121 q 225 -140 220 -82 q 239 -226 231 -198 q 242 -239 242 -233 q 213 -273 242 -262 q 148 -284 184 -284 z "},"§":{"ha":663,"x_min":34,"x_max":629,"o":"m 347 -166 q 197 -142 269 -166 q 68 -67 126 -118 q 36 3 36 -37 q 56 69 36 37 q 105 121 76 101 q 161 142 134 142 q 206 115 191 142 q 260 82 218 100 q 337 64 302 64 q 376 90 376 64 q 327 146 376 121 q 265 171 300 158 q 187 203 227 184 q 112 250 146 221 q 34 426 34 313 q 53 514 34 477 q 109 580 72 551 q 53 652 72 611 q 34 757 35 692 q 59 852 34 812 q 125 919 83 892 q 219 959 167 945 q 325 972 271 972 q 460 951 395 972 q 569 888 525 930 q 607 806 607 851 q 570 723 607 759 q 492 687 532 687 q 438 715 462 687 q 376 775 415 746 q 297 808 338 805 q 264 795 275 808 q 252 766 252 783 q 276 721 252 744 q 347 676 309 694 q 424 643 385 658 q 541 585 488 620 q 607 504 585 553 q 629 403 629 456 q 613 314 629 357 q 564 239 597 271 q 629 65 629 173 q 597 -49 629 3 q 502 -134 565 -101 q 347 -166 439 -166 m 339 390 q 379 417 379 390 q 356 459 379 439 q 298 481 333 479 q 264 468 277 481 q 252 439 252 455 q 260 415 252 427 q 290 398 269 404 q 339 390 320 390 z "},"¨":{"ha":482,"x_min":34,"x_max":448,"o":"m 132 972 q 63 1001 92 972 q 34 1069 34 1029 q 63 1139 34 1110 q 132 1167 92 1167 q 202 1139 173 1167 q 231 1069 231 1110 q 202 1001 231 1029 q 132 972 173 972 m 349 972 q 280 1001 309 972 q 251 1069 251 1029 q 280 1139 251 1110 q 349 1167 309 1167 q 419 1139 390 1167 q 448 1069 448 1110 q 419 1001 448 1029 q 349 972 390 972 z "},"©":{"ha":969,"x_min":34,"x_max":935,"o":"m 485 5 q 304 44 387 5 q 161 151 222 83 q 67 305 101 218 q 34 486 34 391 q 67 667 34 581 q 161 821 101 754 q 304 928 222 888 q 485 967 387 967 q 665 928 583 967 q 808 821 747 888 q 902 667 868 754 q 935 486 935 581 q 902 305 935 391 q 808 151 868 218 q 665 44 747 83 q 485 5 583 5 m 529 159 q 395 188 452 159 q 299 264 337 216 q 241 372 260 312 q 222 494 222 432 q 240 611 222 554 q 294 714 258 669 q 386 786 331 760 q 514 813 441 813 q 613 783 570 813 q 681 706 656 753 q 705 603 705 659 q 693 563 705 578 q 661 539 680 547 q 621 532 642 532 q 571 545 593 532 q 549 581 549 557 q 551 600 549 590 q 554 620 554 610 q 544 655 554 641 q 513 669 534 669 q 454 621 473 667 q 435 514 435 574 q 446 420 435 467 q 477 344 456 374 q 529 314 498 314 q 576 336 555 316 q 609 378 597 355 q 639 393 619 393 q 704 367 669 393 q 739 313 739 342 q 734 296 739 304 q 682 227 712 258 q 613 177 652 196 q 529 159 575 159 m 485 93 q 631 125 564 93 q 746 213 697 157 q 821 339 794 268 q 848 486 848 410 q 821 633 848 563 q 746 759 794 704 q 631 847 697 814 q 485 880 564 880 q 338 847 405 880 q 223 759 272 814 q 148 633 175 704 q 121 486 121 563 q 148 339 121 410 q 223 213 175 268 q 338 125 272 157 q 485 93 405 93 z "},"ª":{"ha":569,"x_min":34,"x_max":535,"o":"m 175 488 q 72 534 109 488 q 34 640 34 581 q 60 730 34 687 q 146 801 86 773 q 306 828 205 828 q 349 827 326 828 q 347 865 349 847 q 314 908 343 908 q 267 890 292 908 q 225 852 241 871 q 183 833 208 833 q 124 858 153 833 q 95 916 95 883 q 124 974 95 949 q 208 1019 159 1004 q 307 1035 256 1035 q 408 1017 360 1035 q 487 962 456 999 q 517 868 517 925 q 516 819 517 843 q 515 764 515 794 q 524 668 515 725 q 534 572 528 628 q 534 567 534 568 q 535 564 534 566 q 535 559 535 563 q 517 523 535 538 q 473 500 500 508 q 418 492 446 492 q 353 506 382 492 q 318 550 324 520 q 175 488 239 488 m 248 650 q 282 656 261 650 q 320 677 303 661 q 342 725 338 694 l 345 752 l 328 752 q 253 742 281 752 q 215 715 226 731 q 203 682 203 699 q 216 661 203 671 q 248 650 228 650 m 418 212 q 411 214 415 212 q 284 236 336 236 q 157 214 233 236 q 150 212 154 212 q 120 243 131 212 q 110 309 110 273 q 118 364 110 338 q 144 391 126 391 q 200 384 171 389 q 284 375 248 375 q 391 386 326 375 l 412 389 q 418 390 416 389 q 424 391 420 391 q 451 365 442 391 q 459 308 459 338 q 449 242 459 273 q 418 212 438 212 z "},"«":{"ha":947,"x_min":34,"x_max":913,"o":"m 371 177 q 314 206 335 177 q 227 299 277 256 q 130 371 176 342 q 62 423 90 396 q 34 479 34 450 q 85 555 34 516 q 202 648 153 603 q 304 766 252 692 q 361 795 325 795 q 448 756 405 795 q 492 673 492 718 q 458 614 492 639 q 338 509 429 591 l 312 486 q 359 446 328 471 q 421 395 391 420 q 469 358 452 371 q 494 330 486 346 q 502 298 502 315 q 458 216 502 254 q 371 177 415 177 m 783 177 q 726 206 747 177 q 638 299 689 256 q 542 371 587 342 q 474 423 502 396 q 446 479 446 450 q 497 555 446 516 q 614 648 565 603 q 715 766 664 692 q 772 795 736 795 q 860 756 817 795 q 903 673 903 718 q 870 614 903 639 q 750 509 841 591 l 724 486 q 771 446 740 471 q 833 395 802 420 q 881 358 864 371 q 906 330 898 346 q 913 298 913 315 q 870 216 913 254 q 783 177 827 177 z "},"¬":{"ha":592,"x_min":34,"x_max":558,"o":"m 465 292 q 413 301 438 292 q 372 328 388 311 q 355 370 355 345 l 356 381 q 372 493 368 445 q 292 488 351 491 q 122 477 157 482 l 111 476 q 69 492 86 476 q 43 534 52 509 q 34 585 34 559 q 42 631 34 610 q 66 666 50 652 q 107 679 82 679 l 130 678 q 269 675 166 675 q 371 676 323 675 q 430 679 418 677 q 454 680 443 680 q 511 665 489 680 q 544 623 533 649 q 554 568 554 597 q 553 526 554 545 q 551 479 551 507 q 555 399 551 435 q 558 363 557 382 q 545 323 558 339 q 510 300 531 308 q 465 292 488 292 z "},"®":{"ha":970,"x_min":34,"x_max":936,"o":"m 623 178 l 618 178 q 510 262 562 178 q 445 416 466 333 l 427 416 q 444 263 431 345 l 444 252 q 415 200 444 218 q 351 181 387 181 q 304 190 327 181 q 267 218 281 199 q 252 265 252 237 l 253 296 q 260 464 260 374 q 245 709 260 604 q 244 724 244 717 q 272 778 244 760 q 335 795 300 795 q 384 787 360 795 q 424 764 408 779 q 530 794 483 794 q 616 769 580 794 q 673 703 653 744 q 693 616 693 662 q 681 535 693 572 q 640 470 669 498 q 563 429 611 443 q 703 345 591 380 q 735 323 724 338 q 745 288 745 308 q 713 217 745 252 q 623 178 680 182 m 485 5 q 305 44 387 5 q 162 151 222 83 q 67 305 101 218 q 34 486 34 391 q 67 667 34 581 q 162 821 101 754 q 305 928 222 888 q 485 967 387 967 q 665 928 583 967 q 808 821 747 888 q 902 667 869 754 q 936 486 936 581 q 902 305 936 391 q 808 151 869 218 q 665 44 747 83 q 485 5 583 5 m 485 93 q 631 125 564 93 q 746 213 698 157 q 822 339 795 268 q 848 486 848 410 q 822 633 848 563 q 746 759 795 704 q 631 847 698 814 q 485 880 564 880 q 338 847 405 880 q 223 759 272 814 q 148 633 175 704 q 121 486 121 563 q 148 339 121 410 q 223 213 175 268 q 338 125 272 157 q 485 93 405 93 m 450 516 q 501 527 481 516 q 530 554 521 538 q 540 589 540 571 q 524 631 540 612 q 479 650 508 650 q 434 638 459 650 q 425 518 427 576 q 450 516 438 516 z "},"¯":{"ha":682,"x_min":34,"x_max":648,"o":"m 572 684 q 494 692 551 684 q 342 708 387 708 q 227 697 302 708 q 130 686 183 691 q 121 685 124 685 q 111 684 118 684 q 70 702 87 684 q 43 747 52 720 q 34 802 34 774 q 53 874 34 846 q 113 903 72 903 q 170 899 125 903 q 341 888 286 888 q 494 897 398 888 q 555 902 526 900 q 564 903 560 903 q 575 903 568 903 q 617 888 601 903 q 641 850 633 873 q 648 802 648 827 q 639 747 648 774 q 613 702 630 720 q 572 684 596 684 z "},"°":{"ha":463,"x_min":34,"x_max":429,"o":"m 230 697 q 277 723 260 697 q 294 779 294 749 q 279 829 294 806 q 233 851 264 851 q 182 829 199 850 q 165 777 165 808 q 182 722 165 747 q 230 697 199 697 m 231 543 q 137 567 182 543 q 63 640 92 591 q 34 762 34 688 q 62 879 34 831 q 136 949 91 926 q 232 972 182 972 q 330 948 285 972 q 401 877 374 924 q 429 757 428 829 q 400 638 429 686 q 326 566 371 590 q 231 543 281 543 z "},"±":{"ha":683,"x_min":34,"x_max":649,"o":"m 350 235 q 267 256 302 235 q 232 317 232 277 q 236 370 232 347 q 244 413 239 393 q 251 452 248 433 q 174 441 210 447 q 113 433 132 433 q 70 451 87 433 q 43 496 52 469 q 34 551 34 524 q 41 598 34 575 q 65 636 49 621 q 105 652 81 652 q 184 645 149 650 q 250 639 214 641 q 243 677 248 658 q 235 719 239 696 q 232 771 232 741 q 250 814 232 796 q 295 841 268 831 q 350 850 323 850 q 397 842 374 850 q 436 819 420 835 q 451 779 451 804 q 444 699 450 735 q 438 639 441 672 q 503 645 471 642 q 555 650 530 648 q 565 651 562 651 q 576 652 569 652 q 617 637 602 652 q 641 599 633 622 q 649 551 649 576 q 640 496 649 524 q 614 451 631 469 q 572 433 597 433 q 479 444 517 435 q 438 451 458 448 q 444 395 440 424 q 451 316 451 358 q 436 269 451 287 q 398 243 421 251 q 350 235 375 235 m 572 0 q 561 0 564 0 q 553 1 558 1 q 475 12 511 6 q 342 24 387 24 q 231 14 303 24 q 130 1 186 7 q 121 1 125 1 q 113 0 118 0 q 70 18 87 0 q 43 63 52 36 q 34 118 34 91 q 41 166 34 142 q 65 204 49 189 q 104 219 81 219 q 214 212 162 219 q 342 203 290 203 q 495 213 398 203 l 555 218 q 564 218 560 218 q 576 219 568 219 q 617 204 602 219 q 641 166 633 189 q 649 118 649 143 q 640 64 649 91 q 614 18 631 37 q 572 0 597 0 z "},"²":{"ha":435,"x_min":34,"x_max":401,"o":"m 291 625 l 293 626 q 306 629 298 627 q 321 634 314 631 q 345 637 334 637 q 377 627 364 637 q 395 601 389 617 q 401 570 401 585 q 393 531 401 551 q 370 497 385 511 q 332 484 355 484 q 303 486 322 484 q 241 489 273 489 q 157 486 193 489 q 102 484 130 484 q 73 493 85 484 q 56 516 62 503 q 50 543 50 530 q 57 573 50 558 q 78 597 64 589 q 175 703 128 627 q 222 824 222 779 q 219 843 222 839 q 208 847 216 847 q 190 840 198 847 q 181 817 181 833 q 183 808 181 813 q 184 795 184 802 q 161 761 184 774 q 114 749 138 749 q 78 755 96 749 q 46 776 59 762 q 34 810 34 790 q 63 898 35 862 q 137 953 92 934 q 227 972 181 972 q 304 957 268 972 q 364 911 341 941 q 387 835 387 881 q 373 759 387 798 q 336 684 359 720 q 291 625 315 650 z "},"³":{"ha":431,"x_min":34,"x_max":397,"o":"m 208 484 q 126 499 166 484 q 56 545 85 515 q 39 585 39 566 q 65 633 39 612 q 121 654 92 654 q 167 635 144 654 q 192 623 178 623 q 214 630 205 623 q 222 648 222 637 q 151 682 222 673 q 122 701 132 684 q 113 735 113 718 q 122 768 113 751 q 150 787 131 784 q 225 827 225 797 q 199 850 225 848 q 162 823 179 850 q 142 805 155 811 q 117 799 130 799 q 62 822 90 799 q 34 873 34 846 q 50 911 34 891 q 118 957 79 941 q 200 972 157 972 q 300 950 258 972 q 365 895 342 928 q 388 825 388 861 q 376 773 388 798 q 346 734 364 748 q 383 693 369 720 q 397 638 397 667 q 337 525 394 566 q 208 484 279 484 z "},"´":{"ha":368,"x_min":34,"x_max":334,"o":"m 105 972 q 57 988 80 972 q 34 1023 34 1003 q 58 1057 34 1040 q 129 1131 102 1086 q 172 1219 155 1175 q 232 1259 189 1259 q 300 1232 267 1259 q 334 1166 334 1205 q 328 1137 334 1153 q 296 1103 321 1122 q 239 1063 271 1084 q 141 987 178 1026 q 105 972 126 972 z "},"µ":{"ha":783,"x_min":34,"x_max":749,"o":"m 189 -374 q 119 -362 153 -374 q 65 -325 86 -350 q 45 -259 45 -299 q 49 -225 45 -243 q 65 -57 60 -172 q 71 190 71 57 q 63 506 71 356 q 41 711 56 656 q 34 761 34 739 q 55 830 34 803 q 111 870 77 857 q 184 883 146 883 q 264 869 224 883 q 329 828 303 855 q 355 764 355 802 q 338 646 353 730 q 318 513 328 583 q 309 391 309 444 q 324 295 309 326 q 364 264 339 264 q 466 345 407 264 q 467 433 467 390 q 462 618 467 537 q 450 736 456 699 q 448 760 448 749 q 471 828 448 801 q 528 868 493 854 q 600 881 562 881 q 668 869 635 881 q 720 835 700 858 q 741 779 741 812 q 738 755 741 768 q 721 505 721 680 q 728 289 721 394 q 747 133 735 184 q 749 111 749 121 q 725 51 749 76 q 664 13 701 26 q 586 0 626 0 q 491 25 533 0 q 442 104 448 50 q 325 10 387 31 q 350 -240 333 -163 q 353 -262 353 -252 q 329 -322 353 -297 q 267 -360 304 -347 q 189 -374 229 -374 z "},"¶":{"ha":1112,"x_min":34,"x_max":1078,"o":"m 791 0 q 738 12 763 0 q 697 49 713 24 q 681 113 681 74 q 682 136 681 123 q 700 530 700 304 q 694 777 700 660 l 638 777 q 623 488 623 628 q 645 138 623 321 l 646 121 q 626 56 646 83 q 576 14 606 28 q 514 0 546 0 q 460 12 486 0 q 419 48 435 24 q 404 112 404 73 q 405 136 404 123 q 420 475 414 223 q 286 451 346 451 q 148 487 204 451 q 63 579 92 523 q 34 699 34 636 q 53 798 34 749 q 110 886 72 847 q 208 949 149 926 q 347 972 267 972 l 607 972 l 984 971 q 1056 937 1033 969 q 1078 864 1078 904 q 1069 811 1078 837 q 1042 770 1059 786 q 998 753 1024 753 q 954 758 978 754 q 915 764 939 762 q 900 486 900 622 q 923 138 900 319 l 924 121 q 904 56 924 83 q 854 14 884 28 q 791 0 824 0 z "},"·":{"ha":345,"x_min":34,"x_max":249,"o":"m 142 389 q 65 417 97 389 q 34 486 34 446 q 65 554 34 526 q 142 582 97 582 q 217 554 186 582 q 249 486 249 526 q 217 417 249 446 q 142 389 186 389 z "},"∙":{"ha":345,"x_min":34,"x_max":249,"o":"m 142 389 q 65 417 97 389 q 34 486 34 446 q 65 554 34 526 q 142 582 97 582 q 217 554 186 582 q 249 486 249 526 q 217 417 249 446 q 142 389 186 389 z "},"¸":{"ha":384,"x_min":34,"x_max":350,"o":"m 176 -262 q 113 -255 146 -262 q 57 -235 80 -249 q 34 -198 34 -221 q 46 -166 34 -180 q 77 -151 58 -151 q 105 -163 90 -151 q 153 -182 131 -182 q 193 -167 178 -182 q 208 -140 208 -153 q 151 -105 208 -105 q 131 -107 142 -105 q 101 -109 119 -109 q 83 -88 83 -109 q 104 -8 83 -55 q 144 65 124 39 q 175 77 157 77 q 216 67 196 77 q 235 45 235 56 q 233 37 235 41 q 180 -39 196 -5 l 199 -39 q 281 -55 248 -39 q 332 -96 315 -71 q 350 -148 350 -121 q 331 -201 350 -175 q 274 -245 313 -228 q 176 -262 235 -262 z "},"¹":{"ha":369,"x_min":34,"x_max":335,"o":"m 233 484 q 191 491 212 484 q 157 512 170 498 q 143 549 143 527 q 144 561 143 555 q 153 701 153 618 l 153 774 q 141 765 150 770 q 116 760 133 760 q 60 787 86 760 q 34 840 34 814 q 41 862 34 850 q 64 880 48 873 q 188 956 146 916 q 209 967 195 963 q 236 971 222 971 q 278 963 256 971 q 314 940 299 955 q 330 905 330 925 l 329 897 q 316 743 316 816 q 334 562 316 656 l 335 552 q 319 515 335 530 q 280 492 304 500 q 233 484 256 484 z "},"º":{"ha":485,"x_min":34,"x_max":451,"o":"m 243 626 q 276 654 260 626 q 291 745 291 682 q 275 823 291 799 q 242 846 260 846 q 209 824 224 846 q 193 749 193 801 q 210 655 195 684 q 243 626 225 626 m 241 484 q 142 511 190 484 q 64 594 95 539 q 34 730 34 649 q 64 863 35 809 q 142 944 94 916 q 243 971 190 971 q 341 945 294 971 q 420 867 389 918 q 451 739 451 815 q 420 596 451 653 q 341 512 389 540 q 241 484 293 484 z "},"»":{"ha":947,"x_min":34,"x_max":913,"o":"m 165 177 q 77 216 120 177 q 34 298 34 254 q 42 330 34 315 q 66 358 50 346 q 114 395 83 371 q 176 446 144 420 q 223 486 207 471 l 197 509 q 77 614 106 591 q 44 673 44 639 q 87 756 44 718 q 175 795 130 795 q 231 766 211 795 q 333 648 283 692 q 450 555 382 603 q 502 479 502 516 q 474 423 502 450 q 405 371 446 396 q 309 299 359 342 q 221 206 258 256 q 165 177 201 177 m 576 177 q 489 216 532 177 q 446 298 446 254 q 453 330 446 315 q 478 358 461 346 q 525 395 494 371 q 587 446 556 420 q 635 486 618 471 l 609 509 q 488 614 518 591 q 456 673 456 639 q 499 756 456 718 q 587 795 542 795 q 643 766 623 795 q 745 648 695 692 q 861 555 794 603 q 913 479 913 516 q 885 423 913 450 q 817 371 857 396 q 721 299 772 342 q 633 206 669 256 q 576 177 612 177 z "},"¼":{"ha":1071,"x_min":68,"x_max":1003,"o":"m 267 484 q 225 491 245 484 q 191 512 204 498 q 177 549 177 527 q 178 561 177 555 q 187 701 187 618 l 186 774 q 175 765 184 770 q 150 760 167 760 q 94 787 120 760 q 68 840 68 814 q 75 862 68 850 q 98 880 82 873 q 222 956 180 916 q 243 967 229 963 q 270 971 256 971 q 312 963 290 971 q 348 940 333 955 q 363 905 363 925 l 363 897 q 350 743 350 816 q 368 562 350 656 l 369 552 q 353 515 369 530 q 314 492 338 500 q 267 484 290 484 m 357 22 q 287 34 319 22 q 235 70 254 46 q 215 130 215 94 q 224 183 215 158 q 255 240 233 208 q 419 547 336 361 q 542 860 503 732 q 594 943 559 915 q 669 971 629 971 l 699 970 q 798 932 755 968 q 840 849 840 897 q 836 816 840 830 q 819 783 832 802 q 692 584 764 703 q 561 338 621 465 q 477 111 500 212 q 432 44 466 66 q 357 22 397 22 m 840 0 q 778 17 805 0 q 751 68 751 35 q 754 111 751 82 q 759 161 758 140 l 646 161 q 598 189 618 161 q 577 241 577 216 q 595 285 577 262 q 671 384 610 301 l 727 458 q 768 481 739 473 q 826 490 796 490 q 879 483 854 490 q 921 461 905 476 q 937 423 937 446 q 932 380 937 416 q 923 277 924 304 q 930 277 926 277 q 947 279 935 278 q 989 258 975 279 q 1003 216 1003 237 q 990 178 1003 197 q 949 159 977 159 q 932 161 938 159 l 928 162 q 933 141 930 154 q 939 109 936 127 q 942 68 942 90 q 926 32 942 47 q 887 8 911 16 q 840 0 863 0 m 724 267 l 760 269 l 758 323 l 758 321 q 724 267 732 285 z "},"½":{"ha":1046,"x_min":68,"x_max":979,"o":"m 267 484 q 225 491 245 484 q 191 512 204 498 q 177 549 177 527 q 178 561 177 555 q 187 701 187 618 l 186 774 q 175 765 184 770 q 150 760 167 760 q 94 787 120 760 q 68 840 68 814 q 75 862 68 850 q 98 880 82 873 q 222 956 180 916 q 243 967 229 963 q 270 971 256 971 q 312 963 290 971 q 348 940 333 955 q 363 905 363 925 l 363 897 q 350 743 350 816 q 368 562 350 656 l 369 552 q 353 515 369 530 q 314 492 338 500 q 267 484 290 484 m 350 22 q 280 34 313 22 q 228 70 248 46 q 208 130 208 94 q 217 183 208 158 q 248 240 226 208 q 412 547 329 361 q 535 860 496 732 q 587 943 553 915 q 663 971 622 971 l 692 970 q 791 932 748 968 q 833 849 833 897 q 829 816 833 830 q 812 783 825 802 q 686 584 757 703 q 554 338 614 465 q 470 111 494 212 q 425 44 459 66 q 350 22 391 22 m 869 142 l 871 142 q 884 146 876 144 q 899 151 892 148 q 922 154 912 154 q 955 144 942 154 q 973 118 967 134 q 979 86 979 102 q 971 47 979 67 q 948 14 963 27 q 910 0 932 0 q 881 2 900 0 q 819 5 851 5 q 735 2 770 5 q 680 0 707 1 q 651 9 663 0 q 634 33 640 19 q 628 60 628 47 q 635 90 628 75 q 656 113 642 105 q 753 219 706 144 q 800 340 800 295 q 797 359 800 355 q 786 363 794 363 q 767 356 776 363 q 759 334 759 349 q 761 325 759 330 q 762 312 762 319 q 739 278 762 290 q 692 265 716 265 q 655 272 674 265 q 624 293 637 279 q 612 327 612 307 q 641 414 612 378 q 714 469 670 450 q 805 488 759 488 q 882 473 846 488 q 942 428 919 458 q 965 351 965 397 q 951 275 965 315 q 914 201 937 236 q 869 142 892 166 z "},"¾":{"ha":1115,"x_min":68,"x_max":1047,"o":"m 241 484 q 160 499 200 484 q 90 545 119 515 q 73 585 73 566 q 99 633 73 612 q 155 654 126 654 q 201 635 178 654 q 226 623 212 623 q 248 630 239 623 q 256 648 256 637 q 185 682 256 673 q 156 701 165 684 q 146 735 146 718 q 156 768 146 751 q 184 787 165 784 q 259 827 259 797 q 233 850 259 848 q 196 823 213 850 q 176 805 189 811 q 151 799 163 799 q 96 822 123 799 q 68 873 68 846 q 84 911 68 891 q 152 957 113 941 q 234 972 191 972 q 334 950 292 972 q 399 895 376 928 q 422 825 422 861 q 410 773 422 798 q 380 734 398 748 q 417 693 403 720 q 431 638 431 667 q 371 525 428 566 q 241 484 313 484 m 401 22 q 331 34 363 22 q 279 70 298 46 q 259 130 259 94 q 268 183 259 158 q 299 240 277 208 q 463 547 380 361 q 586 860 547 732 q 638 943 604 915 q 713 971 673 971 l 743 970 q 842 932 799 968 q 884 849 884 897 q 880 816 884 830 q 863 783 876 802 q 736 584 808 703 q 605 338 665 465 q 521 111 545 212 q 476 44 510 66 q 401 22 441 22 m 884 0 q 822 17 849 0 q 795 68 795 35 q 798 111 795 82 q 803 161 802 140 l 690 161 q 642 189 663 161 q 621 241 621 216 q 640 285 621 262 q 715 384 654 301 l 771 458 q 812 481 783 473 q 870 490 840 490 q 923 483 898 490 q 965 461 949 476 q 981 423 981 446 q 977 380 981 416 q 967 277 968 304 q 974 277 970 277 q 991 279 979 278 q 1033 258 1019 279 q 1047 216 1047 237 q 1034 178 1047 197 q 993 159 1021 159 q 976 161 982 159 l 972 162 q 977 141 974 154 q 983 109 980 127 q 986 68 986 90 q 970 32 986 47 q 931 8 955 16 q 884 0 907 0 m 768 267 l 804 269 l 802 323 l 802 321 q 768 267 776 285 z "},"¿":{"ha":692,"x_min":34,"x_max":658,"o":"m 346 423 q 250 456 290 423 q 210 536 210 490 q 250 616 210 583 q 346 650 290 650 q 442 616 402 650 q 481 536 481 583 q 442 456 481 490 q 346 423 402 423 m 321 -322 q 174 -290 239 -322 q 71 -205 109 -258 q 34 -88 34 -152 q 55 8 34 -40 q 125 104 76 56 q 174 154 148 125 q 219 217 199 184 q 238 283 238 250 q 235 304 238 294 q 231 324 231 315 q 267 374 231 356 q 345 391 302 391 q 405 381 376 391 q 453 351 434 372 q 471 299 471 331 q 455 217 471 255 q 414 146 439 179 q 365 83 390 113 q 315 20 336 50 q 294 -39 294 -10 q 312 -93 295 -76 q 353 -110 329 -110 q 404 -89 380 -110 q 429 -30 429 -67 q 425 -5 429 -18 q 422 18 422 7 q 452 67 422 50 q 520 85 481 85 q 584 72 552 85 q 637 35 616 60 q 658 -29 658 9 q 607 -194 656 -129 q 480 -291 557 -259 q 321 -322 404 -322 z "},"À":{"ha":864,"x_min":4,"x_max":859,"o":"m 376 507 l 486 509 q 431 702 462 604 q 376 507 401 603 m 688 3 q 610 28 644 3 q 567 104 575 52 q 532 308 553 205 l 330 308 q 296 104 310 205 q 254 28 288 52 q 175 3 219 3 q 96 22 135 3 q 30 75 56 41 q 4 157 4 110 q 20 274 4 217 q 61 388 36 331 q 116 503 87 444 q 198 683 160 588 q 254 889 237 778 q 315 955 262 933 q 431 977 368 977 q 548 955 495 977 q 609 889 601 933 q 665 683 626 778 q 747 503 703 588 q 802 387 777 444 q 843 274 827 330 q 859 157 859 217 q 833 75 859 110 q 768 22 807 41 q 688 3 728 3 m 460 1018 q 424 1033 439 1018 q 326 1108 387 1072 q 269 1148 294 1129 q 238 1183 244 1167 q 231 1212 231 1198 q 264 1277 231 1251 q 334 1304 298 1304 q 393 1265 376 1304 q 436 1176 410 1220 q 507 1103 463 1132 q 531 1069 531 1086 q 508 1033 531 1048 q 460 1018 485 1018 z "},"Á":{"ha":864,"x_min":4,"x_max":859,"o":"m 376 507 l 486 509 q 431 702 462 604 q 376 507 401 603 m 688 3 q 610 28 644 3 q 567 104 575 52 q 532 308 553 205 l 330 308 q 296 104 310 205 q 254 28 288 52 q 175 3 219 3 q 96 22 135 3 q 30 75 56 41 q 4 157 4 110 q 20 274 4 217 q 61 388 36 331 q 116 503 87 444 q 198 683 160 588 q 254 889 237 778 q 315 955 262 933 q 431 977 368 977 q 548 955 495 977 q 609 889 601 933 q 665 683 626 778 q 747 503 703 588 q 802 387 777 444 q 843 274 827 330 q 859 157 859 217 q 833 75 859 110 q 768 22 807 41 q 688 3 728 3 m 403 1018 q 355 1033 378 1018 q 332 1069 332 1048 q 355 1103 332 1086 q 426 1176 399 1132 q 470 1265 453 1220 q 530 1304 487 1304 q 598 1277 565 1304 q 631 1212 631 1251 q 625 1183 631 1198 q 594 1148 619 1167 q 536 1108 569 1129 q 439 1033 476 1072 q 403 1018 424 1018 z "},"Â":{"ha":864,"x_min":4,"x_max":859,"o":"m 376 507 l 486 509 q 431 702 462 604 q 376 507 401 603 m 688 3 q 610 28 644 3 q 567 104 575 52 q 532 308 553 205 l 330 308 q 296 104 310 205 q 254 28 288 52 q 175 3 219 3 q 96 22 135 3 q 30 75 56 41 q 4 157 4 110 q 20 274 4 217 q 61 388 36 331 q 116 503 87 444 q 198 683 160 588 q 254 889 237 778 q 315 955 262 933 q 431 977 368 977 q 548 955 495 977 q 609 889 601 933 q 665 683 626 778 q 747 503 703 588 q 802 387 777 444 q 843 274 827 330 q 859 157 859 217 q 833 75 859 110 q 768 22 807 41 q 688 3 728 3 m 524 1018 q 483 1031 501 1018 q 461 1073 465 1044 q 431 1211 454 1158 q 401 1073 408 1158 q 379 1031 397 1044 q 338 1018 361 1018 q 298 1027 318 1018 q 266 1053 279 1036 q 252 1093 252 1069 l 252 1104 q 269 1146 252 1121 q 309 1200 286 1171 q 369 1291 349 1248 q 393 1313 375 1305 q 431 1320 411 1320 q 469 1313 452 1320 q 493 1291 487 1305 q 553 1200 513 1248 q 593 1146 576 1171 q 610 1104 610 1121 l 610 1093 q 596 1053 610 1069 q 564 1027 583 1036 q 524 1018 544 1018 z "},"Ã":{"ha":864,"x_min":4,"x_max":859,"o":"m 376 507 l 486 509 q 431 702 462 604 q 376 507 401 603 m 688 3 q 610 28 644 3 q 567 104 575 52 q 532 308 553 205 l 330 308 q 296 104 310 205 q 254 28 288 52 q 175 3 219 3 q 96 22 135 3 q 30 75 56 41 q 4 157 4 110 q 20 274 4 217 q 61 388 36 331 q 116 503 87 444 q 198 683 160 588 q 254 889 237 778 q 315 955 262 933 q 431 977 368 977 q 548 955 495 977 q 609 889 601 933 q 665 683 626 778 q 747 503 703 588 q 802 387 777 444 q 843 274 827 330 q 859 157 859 217 q 833 75 859 110 q 768 22 807 41 q 688 3 728 3 m 515 1018 q 455 1032 481 1018 q 407 1061 428 1046 q 384 1076 394 1070 q 365 1082 373 1082 q 334 1040 346 1082 q 321 1023 330 1029 q 299 1018 311 1018 q 262 1030 280 1018 q 243 1064 243 1042 q 277 1154 246 1126 q 350 1181 308 1181 q 404 1167 380 1181 q 448 1136 428 1152 q 473 1118 461 1125 q 494 1110 484 1110 q 529 1160 516 1110 q 542 1177 532 1171 q 564 1182 552 1182 q 601 1170 583 1182 q 619 1136 619 1158 q 585 1046 616 1075 q 515 1018 553 1018 z "},"Ä":{"ha":864,"x_min":4,"x_max":859,"o":"m 376 507 l 486 509 q 431 702 462 604 q 376 507 401 603 m 688 3 q 610 28 644 3 q 567 104 575 52 q 532 308 553 205 l 330 308 q 296 104 310 205 q 254 28 288 52 q 175 3 219 3 q 96 22 135 3 q 30 75 56 41 q 4 157 4 110 q 20 274 4 217 q 61 388 36 331 q 116 503 87 444 q 198 683 160 588 q 254 889 237 778 q 315 955 262 933 q 431 977 368 977 q 548 955 495 977 q 609 889 601 933 q 665 683 626 778 q 747 503 703 588 q 802 387 777 444 q 843 274 827 330 q 859 157 859 217 q 833 75 859 110 q 768 22 807 41 q 688 3 728 3 m 323 1017 q 253 1046 282 1017 q 224 1114 224 1074 q 253 1183 224 1155 q 323 1212 282 1212 q 393 1183 363 1212 q 422 1114 422 1155 q 393 1046 422 1074 q 323 1017 363 1017 m 540 1017 q 470 1046 499 1017 q 441 1114 441 1074 q 470 1183 441 1155 q 540 1212 499 1212 q 610 1183 581 1212 q 639 1114 639 1155 q 610 1046 639 1074 q 540 1017 581 1017 z "},"Å":{"ha":864,"x_min":4,"x_max":859,"o":"m 376 507 l 486 509 q 431 702 462 604 q 376 507 401 603 m 688 3 q 610 28 644 3 q 567 104 575 52 q 532 308 553 205 l 330 308 q 296 104 310 205 q 254 28 288 52 q 175 3 219 3 q 96 22 135 3 q 30 75 56 41 q 4 157 4 110 q 20 274 4 217 q 61 388 36 331 q 116 503 87 444 q 198 683 160 588 q 254 889 237 778 q 315 955 262 933 q 431 977 368 977 q 548 955 495 977 q 609 889 601 933 q 665 683 626 778 q 747 503 703 588 q 802 387 777 444 q 843 274 827 330 q 859 157 859 217 q 833 75 859 110 q 768 22 807 41 q 688 3 728 3 m 431 1018 q 368 1033 397 1018 q 319 1076 338 1047 q 300 1149 300 1105 q 319 1221 300 1192 q 369 1264 338 1250 q 431 1279 399 1279 q 522 1246 484 1279 q 562 1145 560 1213 q 543 1075 562 1103 q 493 1032 524 1046 q 431 1018 463 1018 m 431 1103 q 451 1117 441 1103 q 460 1161 460 1132 q 451 1201 460 1188 q 431 1214 442 1214 q 410 1200 420 1214 q 400 1160 400 1186 q 410 1117 400 1132 q 431 1103 419 1103 z "},"Æ":{"ha":1215,"x_min":4,"x_max":1242,"o":"m 376 507 l 486 509 q 431 702 462 604 q 376 507 401 603 m 762 -1 q 709 2 734 -1 q 688 3 699 3 q 610 28 644 3 q 568 104 575 52 q 532 308 553 205 l 330 308 q 296 104 310 205 q 254 28 288 52 q 175 3 219 3 q 96 22 135 3 q 30 75 56 41 q 4 157 4 110 q 20 274 4 217 q 61 388 36 331 q 117 503 87 444 q 198 683 160 588 q 254 889 237 778 q 315 955 262 933 q 431 977 368 977 q 548 956 495 977 q 599 916 583 941 q 774 972 635 972 q 887 968 829 972 q 1006 963 945 963 q 1131 971 1063 963 l 1141 971 q 1195 950 1172 971 q 1230 894 1217 928 q 1242 824 1242 860 q 1232 764 1242 792 q 1200 718 1221 736 q 1145 700 1178 700 q 1124 702 1135 700 q 884 721 1031 717 q 873 599 877 659 q 1021 608 953 599 l 1036 608 q 1078 591 1060 608 q 1107 546 1097 574 q 1117 490 1117 518 q 1108 441 1117 464 q 1083 404 1100 418 q 1038 389 1065 389 q 1022 391 1031 389 q 871 404 962 401 q 884 252 875 330 q 1124 270 1031 256 q 1145 272 1135 272 q 1200 254 1178 272 q 1232 208 1221 236 q 1242 148 1242 180 q 1230 78 1242 112 q 1195 22 1217 43 q 1141 1 1172 1 l 1131 1 q 999 10 1056 10 q 884 5 940 10 q 762 -1 829 -1 z "},"Ç":{"ha":773,"x_min":2,"x_max":770,"o":"m 467 -262 q 404 -255 437 -262 q 348 -235 371 -249 q 325 -198 325 -221 q 337 -166 325 -180 q 368 -151 349 -151 q 396 -163 381 -151 q 444 -182 422 -182 q 484 -167 469 -182 q 499 -140 499 -153 q 441 -105 499 -105 q 421 -107 433 -105 q 392 -109 410 -109 q 374 -88 374 -109 q 400 4 374 -47 q 260 44 323 13 q 117 158 174 87 q 31 318 60 229 q 2 499 2 407 q 29 673 2 589 q 110 825 56 758 q 245 932 164 892 q 436 972 327 972 q 584 928 520 972 q 683 812 648 884 q 718 658 718 741 q 700 600 718 623 q 653 566 682 577 q 593 554 624 554 q 520 573 553 554 q 487 628 487 593 q 491 656 487 641 q 495 686 495 671 q 480 737 495 717 q 438 758 466 758 q 346 689 375 758 q 317 529 317 621 q 334 390 317 458 q 381 278 351 321 q 454 234 412 234 q 578 327 524 234 q 621 349 592 349 q 685 331 650 349 q 745 286 720 313 q 770 231 770 259 q 763 205 770 218 q 686 103 730 149 q 496 3 602 17 q 471 -39 480 -19 l 490 -39 q 572 -55 538 -39 q 623 -96 606 -71 q 641 -148 641 -121 q 622 -201 641 -175 q 565 -245 604 -228 q 467 -262 526 -262 z "},"È":{"ha":720,"x_min":35,"x_max":692,"o":"m 587 -1 l 573 1 q 449 10 506 10 q 334 5 389 10 q 212 -1 278 -1 q 128 15 165 -1 q 70 62 91 31 q 48 140 48 94 l 49 158 q 60 443 60 291 q 37 836 60 668 q 35 863 35 850 q 98 955 35 930 q 224 972 144 972 q 337 968 279 972 q 456 963 395 963 q 573 971 513 963 l 587 972 q 644 950 621 972 q 680 894 667 928 q 692 824 692 860 q 682 764 692 792 q 650 718 671 736 q 595 700 628 700 q 574 702 585 700 q 334 721 481 717 q 323 599 327 659 l 340 599 q 471 608 403 599 l 482 609 q 528 591 509 609 q 557 546 547 574 q 567 490 567 518 q 558 441 567 464 q 533 404 550 418 q 488 389 515 389 q 472 391 480 389 q 321 404 412 401 q 334 252 325 330 q 574 270 481 256 q 595 272 585 272 q 650 254 628 272 q 682 208 671 236 q 692 148 692 180 q 680 78 692 112 q 644 21 667 43 q 587 -1 621 -1 m 393 1017 q 356 1031 371 1017 q 258 1107 319 1070 q 201 1147 226 1128 q 170 1181 176 1166 q 163 1211 163 1197 q 197 1276 163 1249 q 266 1303 230 1303 q 325 1263 309 1303 q 369 1175 342 1219 q 439 1101 395 1131 q 463 1067 463 1084 q 440 1032 463 1047 q 393 1017 417 1017 z "},"É":{"ha":720,"x_min":35,"x_max":692,"o":"m 587 -1 l 573 1 q 449 10 506 10 q 334 5 389 10 q 212 -1 278 -1 q 128 15 165 -1 q 70 62 91 31 q 48 140 48 94 l 49 158 q 60 443 60 291 q 37 836 60 668 q 35 863 35 850 q 98 955 35 930 q 224 972 144 972 q 337 968 279 972 q 456 963 395 963 q 573 971 513 963 l 587 972 q 644 950 621 972 q 680 894 667 928 q 692 824 692 860 q 682 764 692 792 q 650 718 671 736 q 595 700 628 700 q 574 702 585 700 q 334 721 481 717 q 323 599 327 659 l 340 599 q 471 608 403 599 l 482 609 q 528 591 509 609 q 557 546 547 574 q 567 490 567 518 q 558 441 567 464 q 533 404 550 418 q 488 389 515 389 q 472 391 480 389 q 321 404 412 401 q 334 252 325 330 q 574 270 481 256 q 595 272 585 272 q 650 254 628 272 q 682 208 671 236 q 692 148 692 180 q 680 78 692 112 q 644 21 667 43 q 587 -1 621 -1 m 335 1017 q 287 1032 310 1017 q 264 1067 264 1047 q 288 1101 264 1084 q 358 1175 332 1131 q 402 1263 385 1219 q 462 1303 419 1303 q 530 1276 497 1303 q 564 1211 564 1249 q 557 1181 564 1197 q 526 1147 551 1166 q 469 1107 501 1128 q 371 1031 408 1070 q 335 1017 356 1017 z "},"Ê":{"ha":720,"x_min":35,"x_max":692,"o":"m 587 -1 l 573 1 q 449 10 506 10 q 334 5 389 10 q 212 -1 278 -1 q 128 15 165 -1 q 70 62 91 31 q 48 140 48 94 l 49 158 q 60 443 60 291 q 37 836 60 668 q 35 863 35 850 q 98 955 35 930 q 224 972 144 972 q 337 968 279 972 q 456 963 395 963 q 573 971 513 963 l 587 972 q 644 950 621 972 q 680 894 667 928 q 692 824 692 860 q 682 764 692 792 q 650 718 671 736 q 595 700 628 700 q 574 702 585 700 q 334 721 481 717 q 323 599 327 659 l 340 599 q 471 608 403 599 l 482 609 q 528 591 509 609 q 557 546 547 574 q 567 490 567 518 q 558 441 567 464 q 533 404 550 418 q 488 389 515 389 q 472 391 480 389 q 321 404 412 401 q 334 252 325 330 q 574 270 481 256 q 595 272 585 272 q 650 254 628 272 q 682 208 671 236 q 692 148 692 180 q 680 78 692 112 q 644 21 667 43 q 587 -1 621 -1 m 456 1017 q 415 1030 433 1017 q 393 1072 397 1043 q 363 1210 387 1157 q 333 1072 340 1157 q 312 1030 330 1043 q 270 1017 294 1017 q 231 1025 250 1017 q 198 1051 211 1034 q 184 1092 184 1068 l 184 1103 q 201 1145 184 1120 q 241 1198 218 1170 q 301 1290 281 1246 q 325 1311 307 1304 q 363 1318 343 1318 q 401 1311 384 1318 q 425 1290 419 1304 q 486 1198 446 1246 q 525 1145 508 1170 q 542 1103 542 1120 l 542 1092 q 529 1051 542 1068 q 496 1025 515 1034 q 456 1017 476 1017 z "},"Ë":{"ha":720,"x_min":35,"x_max":692,"o":"m 587 -1 l 573 1 q 449 10 506 10 q 334 5 389 10 q 212 -1 278 -1 q 128 15 165 -1 q 70 62 91 31 q 48 140 48 94 l 49 158 q 60 443 60 291 q 37 836 60 668 q 35 863 35 850 q 98 955 35 930 q 224 972 144 972 q 337 968 279 972 q 456 963 395 963 q 573 971 513 963 l 587 972 q 644 950 621 972 q 680 894 667 928 q 692 824 692 860 q 682 764 692 792 q 650 718 671 736 q 595 700 628 700 q 574 702 585 700 q 334 721 481 717 q 323 599 327 659 l 340 599 q 471 608 403 599 l 482 609 q 528 591 509 609 q 557 546 547 574 q 567 490 567 518 q 558 441 567 464 q 533 404 550 418 q 488 389 515 389 q 472 391 480 389 q 321 404 412 401 q 334 252 325 330 q 574 270 481 256 q 595 272 585 272 q 650 254 628 272 q 682 208 671 236 q 692 148 692 180 q 680 78 692 112 q 644 21 667 43 q 587 -1 621 -1 m 255 1017 q 185 1045 214 1017 q 157 1114 157 1074 q 185 1183 157 1154 q 255 1211 214 1211 q 325 1183 296 1211 q 354 1114 354 1154 q 325 1045 354 1074 q 255 1017 296 1017 m 472 1017 q 402 1045 431 1017 q 374 1114 374 1074 q 402 1183 374 1154 q 472 1211 431 1211 q 542 1183 513 1211 q 571 1114 571 1154 q 542 1045 571 1074 q 472 1017 513 1017 z "},"Ì":{"ha":397,"x_min":-2,"x_max":357,"o":"m 186 -1 q 116 12 149 -1 q 63 49 83 24 q 43 113 43 74 q 44 134 43 123 q 65 484 65 281 q 41 811 65 680 q 38 843 38 828 q 60 916 38 887 q 118 958 83 944 q 191 971 153 971 q 263 958 229 971 q 320 920 298 945 q 342 859 342 895 l 342 844 q 319 528 319 679 q 356 139 319 341 q 357 121 357 130 q 332 55 357 82 q 267 14 307 28 q 186 -1 228 -1 m 227 1017 q 191 1031 205 1017 q 93 1107 153 1070 q 36 1147 60 1128 q 4 1181 11 1166 q -2 1211 -2 1197 q 31 1276 -2 1249 q 100 1303 64 1303 q 159 1263 143 1303 q 203 1175 176 1219 q 274 1101 230 1131 q 298 1067 298 1084 q 275 1032 298 1047 q 227 1017 252 1017 z "},"Í":{"ha":397,"x_min":38,"x_max":398,"o":"m 186 -1 q 116 12 149 -1 q 63 49 83 24 q 43 113 43 74 q 44 134 43 123 q 65 484 65 281 q 41 811 65 680 q 38 843 38 828 q 60 916 38 887 q 118 958 83 944 q 191 971 153 971 q 263 958 229 971 q 320 920 298 945 q 342 859 342 895 l 342 844 q 319 528 319 679 q 356 139 319 341 q 357 121 357 130 q 332 55 357 82 q 267 14 307 28 q 186 -1 228 -1 m 170 1017 q 121 1032 144 1017 q 98 1067 98 1047 q 122 1101 98 1084 q 193 1175 166 1131 q 237 1263 220 1219 q 296 1303 254 1303 q 365 1276 332 1303 q 398 1211 398 1249 q 392 1181 398 1197 q 361 1147 386 1166 q 303 1107 336 1128 q 205 1031 243 1070 q 170 1017 191 1017 z "},"Î":{"ha":397,"x_min":19,"x_max":376,"o":"m 186 -1 q 116 12 149 -1 q 63 49 83 24 q 43 113 43 74 q 44 134 43 123 q 65 484 65 281 q 41 811 65 680 q 38 843 38 828 q 60 916 38 887 q 118 958 83 944 q 191 971 153 971 q 263 958 229 971 q 320 920 298 945 q 342 859 342 895 l 342 844 q 319 528 319 679 q 356 139 319 341 q 357 121 357 130 q 332 55 357 82 q 267 14 307 28 q 186 -1 228 -1 m 291 1017 q 250 1030 268 1017 q 228 1072 231 1043 q 197 1210 221 1157 q 168 1072 174 1157 q 146 1030 164 1043 q 104 1017 128 1017 q 65 1025 85 1017 q 32 1051 45 1034 q 19 1092 19 1068 l 19 1103 q 36 1145 19 1120 q 75 1198 53 1170 q 136 1290 115 1246 q 160 1311 142 1304 q 198 1318 178 1318 q 236 1311 218 1318 q 260 1290 254 1304 q 320 1198 280 1246 q 359 1145 342 1170 q 376 1103 376 1120 l 376 1092 q 363 1051 376 1068 q 330 1025 350 1034 q 291 1017 311 1017 z "},"Ï":{"ha":397,"x_min":-9,"x_max":406,"o":"m 186 -1 q 116 12 149 -1 q 63 49 83 24 q 43 113 43 74 q 44 134 43 123 q 65 484 65 281 q 41 811 65 680 q 38 843 38 828 q 60 916 38 887 q 118 958 83 944 q 191 971 153 971 q 263 958 229 971 q 320 920 298 945 q 342 859 342 895 l 342 844 q 319 528 319 679 q 356 139 319 341 q 357 121 357 130 q 332 55 357 82 q 267 14 307 28 q 186 -1 228 -1 m 90 1017 q 20 1045 49 1017 q -9 1114 -9 1074 q 20 1183 -9 1154 q 90 1211 49 1211 q 159 1183 130 1211 q 189 1114 189 1154 q 159 1045 189 1074 q 90 1017 130 1017 m 307 1017 q 237 1045 266 1017 q 208 1114 208 1074 q 237 1183 208 1154 q 307 1211 266 1211 q 376 1183 347 1211 q 406 1114 406 1154 q 376 1045 406 1074 q 307 1017 347 1017 z "},"Ð":{"ha":811,"x_min":-188,"x_max":781,"o":"m 408 215 q 481 259 451 217 q 527 369 511 302 q 543 507 543 436 q 529 629 543 571 q 487 723 515 686 q 416 759 459 759 q 368 749 391 759 q 316 604 316 726 q 317 566 316 585 q 440 575 433 575 q 480 563 465 575 q 511 492 511 539 q 502 447 511 469 q 474 411 492 425 q 430 397 456 397 q 416 398 424 397 q 321 411 368 406 q 334 248 324 330 q 408 215 370 215 m 413 0 q 297 25 354 0 q 204 1 254 1 q 131 16 167 1 q 72 59 95 30 q 48 134 48 88 q 54 254 50 195 q 61 416 60 323 q -93 398 -7 411 q -107 397 -100 397 q -151 411 -133 397 q -178 448 -169 426 q -188 493 -188 470 q -180 532 -188 513 q -158 563 -173 551 q -120 576 -143 576 q 60 564 -75 574 q 38 836 55 715 q 36 859 36 849 q 56 923 36 898 q 110 959 77 947 q 179 971 142 971 q 288 945 236 971 q 412 972 348 972 q 575 932 505 972 q 690 825 644 892 q 758 673 736 758 q 781 498 781 588 q 757 317 781 406 q 687 157 733 228 q 572 43 640 85 q 413 0 503 0 z "},"Ñ":{"ha":870,"x_min":35,"x_max":833,"o":"m 665 0 q 594 12 627 0 q 540 50 561 24 q 519 115 519 76 q 524 166 519 144 q 528 192 528 182 q 512 241 528 209 q 453 339 496 273 q 330 522 410 406 q 357 141 334 288 q 359 117 359 128 q 337 52 359 77 q 281 13 315 26 q 209 1 247 1 q 132 13 170 1 q 69 50 94 26 q 44 109 44 74 l 44 115 l 45 132 q 57 251 51 195 q 67 359 62 307 q 71 463 71 412 q 37 838 71 644 q 35 859 35 848 q 55 920 35 895 q 106 958 75 945 q 174 970 138 970 q 260 950 218 970 q 328 886 302 930 q 438 724 368 821 q 532 590 488 656 q 515 813 526 712 q 513 836 513 825 q 536 912 513 882 q 593 957 558 943 q 667 972 629 972 q 738 959 704 972 q 794 920 772 945 q 816 858 816 895 l 815 843 q 793 532 793 680 q 831 138 793 343 q 833 119 833 128 q 808 55 833 81 q 745 14 783 28 q 665 0 706 0 m 518 1018 q 458 1032 485 1018 q 410 1061 431 1046 q 387 1076 397 1070 q 368 1082 376 1082 q 337 1040 349 1082 q 324 1023 334 1029 q 302 1018 315 1018 q 265 1030 283 1018 q 247 1064 247 1042 q 280 1154 250 1126 q 353 1181 311 1181 q 407 1167 383 1181 q 451 1136 431 1152 q 476 1118 465 1125 q 498 1110 488 1110 q 532 1160 519 1110 q 546 1177 536 1171 q 568 1182 555 1182 q 605 1170 587 1182 q 623 1136 623 1158 q 588 1046 620 1075 q 518 1018 557 1018 z "},"Ò":{"ha":810,"x_min":7,"x_max":781,"o":"m 396 252 q 455 282 427 252 q 501 372 483 312 q 519 523 519 433 q 500 653 519 601 q 453 731 482 705 q 393 757 425 757 q 334 732 363 757 q 288 656 306 707 q 269 530 269 606 q 288 375 270 437 q 335 282 306 313 q 396 252 363 252 m 393 0 q 252 31 321 0 q 128 123 182 62 q 40 277 73 184 q 7 494 7 370 q 40 702 7 613 q 128 851 73 791 q 252 941 183 911 q 394 971 321 971 q 534 942 465 971 q 659 855 604 913 q 747 708 714 797 q 781 500 781 620 q 747 279 781 373 q 659 123 714 185 q 534 31 603 61 q 393 0 465 0 m 424 1018 q 387 1033 402 1018 q 290 1108 350 1072 q 232 1148 257 1129 q 201 1183 208 1167 q 195 1212 195 1198 q 228 1277 195 1251 q 297 1304 261 1304 q 356 1265 340 1304 q 400 1176 373 1220 q 471 1103 427 1132 q 494 1069 494 1086 q 471 1033 494 1048 q 424 1018 448 1018 z "},"Ó":{"ha":810,"x_min":7,"x_max":781,"o":"m 396 252 q 455 282 427 252 q 501 372 483 312 q 519 523 519 433 q 500 653 519 601 q 453 731 482 705 q 393 757 425 757 q 334 732 363 757 q 288 656 306 707 q 269 530 269 606 q 288 375 270 437 q 335 282 306 313 q 396 252 363 252 m 393 0 q 252 31 321 0 q 128 123 182 62 q 40 277 73 184 q 7 494 7 370 q 40 702 7 613 q 128 851 73 791 q 252 941 183 911 q 394 971 321 971 q 534 942 465 971 q 659 855 604 913 q 747 708 714 797 q 781 500 781 620 q 747 279 781 373 q 659 123 714 185 q 534 31 603 61 q 393 0 465 0 m 366 1018 q 318 1033 341 1018 q 295 1069 295 1048 q 319 1103 295 1086 q 390 1176 363 1132 q 433 1265 416 1220 q 493 1304 450 1304 q 562 1277 528 1304 q 595 1212 595 1251 q 589 1183 595 1198 q 557 1148 583 1167 q 500 1108 532 1129 q 402 1033 439 1072 q 366 1018 387 1018 z "},"Ô":{"ha":810,"x_min":7,"x_max":781,"o":"m 396 252 q 455 282 427 252 q 501 372 483 312 q 519 523 519 433 q 500 653 519 601 q 453 731 482 705 q 393 757 425 757 q 334 732 363 757 q 288 656 306 707 q 269 530 269 606 q 288 375 270 437 q 335 282 306 313 q 396 252 363 252 m 393 0 q 252 31 321 0 q 128 123 182 62 q 40 277 73 184 q 7 494 7 370 q 40 702 7 613 q 128 851 73 791 q 252 941 183 911 q 394 971 321 971 q 534 942 465 971 q 659 855 604 913 q 747 708 714 797 q 781 500 781 620 q 747 279 781 373 q 659 123 714 185 q 534 31 603 61 q 393 0 465 0 m 488 1018 q 446 1031 465 1018 q 425 1073 428 1044 q 394 1211 418 1158 q 364 1073 371 1158 q 343 1031 361 1044 q 301 1018 325 1018 q 262 1027 281 1018 q 229 1053 242 1036 q 216 1093 216 1069 l 216 1104 q 233 1146 216 1121 q 272 1200 250 1171 q 332 1291 312 1248 q 356 1313 338 1305 q 395 1320 374 1320 q 433 1313 415 1320 q 456 1291 450 1305 q 517 1200 477 1248 q 556 1146 539 1171 q 573 1104 573 1121 l 573 1093 q 560 1053 573 1069 q 527 1027 547 1036 q 488 1018 507 1018 z "},"Õ":{"ha":810,"x_min":7,"x_max":781,"o":"m 396 252 q 455 282 427 252 q 501 372 483 312 q 519 523 519 433 q 500 653 519 601 q 453 731 482 705 q 393 757 425 757 q 334 732 363 757 q 288 656 306 707 q 269 530 269 606 q 288 375 270 437 q 335 282 306 313 q 396 252 363 252 m 393 0 q 252 31 321 0 q 128 123 182 62 q 40 277 73 184 q 7 494 7 370 q 40 702 7 613 q 128 851 73 791 q 252 941 183 911 q 394 971 321 971 q 534 942 465 971 q 659 855 604 913 q 747 708 714 797 q 781 500 781 620 q 747 279 781 373 q 659 123 714 185 q 534 31 603 61 q 393 0 465 0 m 478 1018 q 418 1032 445 1018 q 370 1061 391 1046 q 347 1076 357 1070 q 328 1082 336 1082 q 297 1040 309 1082 q 284 1023 294 1029 q 262 1018 275 1018 q 225 1030 243 1018 q 207 1064 207 1042 q 240 1154 210 1126 q 313 1181 271 1181 q 367 1167 343 1181 q 411 1136 391 1152 q 436 1118 425 1125 q 458 1110 448 1110 q 492 1160 479 1110 q 506 1177 496 1171 q 528 1182 515 1182 q 565 1170 547 1182 q 583 1136 583 1158 q 548 1046 580 1075 q 478 1018 517 1018 z "},"Ö":{"ha":810,"x_min":7,"x_max":781,"o":"m 396 252 q 455 282 427 252 q 501 372 483 312 q 519 523 519 433 q 500 653 519 601 q 453 731 482 705 q 393 757 425 757 q 334 732 363 757 q 288 656 306 707 q 269 530 269 606 q 288 375 270 437 q 335 282 306 313 q 396 252 363 252 m 393 0 q 252 31 321 0 q 128 123 182 62 q 40 277 73 184 q 7 494 7 370 q 40 702 7 613 q 128 851 73 791 q 252 941 183 911 q 394 971 321 971 q 534 942 465 971 q 659 855 604 913 q 747 708 714 797 q 781 500 781 620 q 747 279 781 373 q 659 123 714 185 q 534 31 603 61 q 393 0 465 0 m 286 1018 q 217 1046 245 1018 q 188 1115 188 1075 q 217 1184 188 1156 q 286 1213 245 1213 q 356 1184 327 1213 q 385 1115 385 1156 q 356 1046 385 1075 q 286 1018 327 1018 m 503 1018 q 434 1046 463 1018 q 405 1115 405 1075 q 434 1184 405 1156 q 503 1213 463 1213 q 573 1184 544 1213 q 602 1115 602 1156 q 573 1046 602 1075 q 503 1018 544 1018 z "},"×":{"ha":585,"x_min":34,"x_max":551,"o":"m 155 225 q 73 269 111 225 q 34 356 34 312 q 63 413 34 392 q 161 486 120 453 q 63 559 120 519 q 34 616 34 581 q 72 704 34 661 q 155 747 111 747 q 215 713 190 747 q 293 619 250 667 q 363 713 325 659 q 420 742 384 742 q 507 703 464 742 q 551 621 551 665 q 517 560 551 585 q 427 486 473 527 q 517 412 473 446 q 551 351 551 387 q 508 269 551 307 q 420 231 465 231 q 363 260 384 231 q 293 353 325 313 q 215 258 250 305 q 155 225 190 225 z "},"Ø":{"ha":810,"x_min":7,"x_max":781,"o":"m 214 -54 q 149 -35 175 -52 q 92 71 92 -1 q 109 147 94 111 q 7 494 7 281 q 40 702 7 613 q 128 851 73 791 q 252 941 183 911 q 394 971 321 971 q 429 969 412 971 q 462 1009 444 994 q 541 1039 499 1039 q 643 994 602 1036 q 682 900 682 956 q 669 844 680 869 q 781 500 781 715 q 747 279 781 373 q 659 123 714 185 q 534 31 603 61 q 393 0 465 0 q 319 8 355 0 q 288 -28 307 -14 q 214 -54 254 -54 m 270 503 q 358 748 319 629 q 288 656 313 725 q 269 530 269 606 l 270 503 m 396 252 q 455 282 427 252 q 501 372 483 312 q 519 523 519 433 q 518 549 519 536 q 392 252 441 385 l 396 252 z "},"Ù":{"ha":812,"x_min":33,"x_max":777,"o":"m 281 0 q 108 59 169 0 q 47 226 47 117 q 51 283 47 254 q 62 485 62 379 q 37 812 62 663 q 33 844 33 829 q 55 916 33 888 q 111 958 77 944 q 182 971 144 971 q 256 958 220 971 q 315 918 292 944 q 338 855 338 892 q 325 659 338 774 q 315 526 315 589 q 328 358 315 448 q 352 306 333 322 q 396 290 372 290 q 481 334 442 290 q 486 467 486 401 q 479 585 486 516 q 464 718 472 653 q 450 860 450 821 q 472 920 450 896 q 529 958 494 945 q 602 970 564 970 q 677 957 642 970 q 734 913 712 943 q 755 839 755 884 q 744 678 755 779 q 732 528 732 582 q 743 311 732 415 q 772 136 753 207 q 777 102 777 117 q 757 45 777 68 q 706 12 737 23 q 637 1 674 1 q 545 19 590 1 q 475 70 500 37 q 402 19 448 37 q 281 0 356 0 m 434 1017 q 397 1032 412 1017 q 300 1107 360 1071 q 242 1147 267 1128 q 211 1182 218 1166 q 205 1211 205 1198 q 238 1277 205 1250 q 307 1303 271 1303 q 366 1264 350 1303 q 410 1175 383 1219 q 481 1102 437 1131 q 505 1068 505 1085 q 481 1033 505 1048 q 434 1017 458 1017 z "},"Ú":{"ha":812,"x_min":33,"x_max":777,"o":"m 281 0 q 108 59 169 0 q 47 226 47 117 q 51 283 47 254 q 62 485 62 379 q 37 812 62 663 q 33 844 33 829 q 55 916 33 888 q 111 958 77 944 q 182 971 144 971 q 256 958 220 971 q 315 918 292 944 q 338 855 338 892 q 325 659 338 774 q 315 526 315 589 q 328 358 315 448 q 352 306 333 322 q 396 290 372 290 q 481 334 442 290 q 486 467 486 401 q 479 585 486 516 q 464 718 472 653 q 450 860 450 821 q 472 920 450 896 q 529 958 494 945 q 602 970 564 970 q 677 957 642 970 q 734 913 712 943 q 755 839 755 884 q 744 678 755 779 q 732 528 732 582 q 743 311 732 415 q 772 136 753 207 q 777 102 777 117 q 757 45 777 68 q 706 12 737 23 q 637 1 674 1 q 545 19 590 1 q 475 70 500 37 q 402 19 448 37 q 281 0 356 0 m 376 1017 q 328 1033 351 1017 q 305 1068 305 1048 q 329 1102 305 1085 q 400 1175 373 1131 q 444 1264 427 1219 q 503 1303 460 1303 q 572 1277 538 1303 q 605 1211 605 1250 q 599 1182 605 1198 q 568 1147 593 1166 q 510 1107 543 1128 q 412 1032 450 1071 q 376 1017 397 1017 z "},"Û":{"ha":812,"x_min":33,"x_max":777,"o":"m 281 0 q 108 59 169 0 q 47 226 47 117 q 51 283 47 254 q 62 485 62 379 q 37 812 62 663 q 33 844 33 829 q 55 916 33 888 q 111 958 77 944 q 182 971 144 971 q 256 958 220 971 q 315 918 292 944 q 338 855 338 892 q 325 659 338 774 q 315 526 315 589 q 328 358 315 448 q 352 306 333 322 q 396 290 372 290 q 481 334 442 290 q 486 467 486 401 q 479 585 486 516 q 464 718 472 653 q 450 860 450 821 q 472 920 450 896 q 529 958 494 945 q 602 970 564 970 q 677 957 642 970 q 734 913 712 943 q 755 839 755 884 q 744 678 755 779 q 732 528 732 582 q 743 311 732 415 q 772 136 753 207 q 777 102 777 117 q 757 45 777 68 q 706 12 737 23 q 637 1 674 1 q 545 19 590 1 q 475 70 500 37 q 402 19 448 37 q 281 0 356 0 m 498 1017 q 456 1030 475 1017 q 435 1072 438 1044 q 404 1211 428 1158 q 374 1072 381 1158 q 353 1030 371 1044 q 311 1017 335 1017 q 272 1026 292 1017 q 239 1052 252 1035 q 226 1093 226 1069 l 226 1103 q 243 1145 226 1120 q 282 1199 260 1171 q 342 1291 322 1247 q 367 1312 349 1305 q 405 1319 385 1319 q 443 1312 425 1319 q 467 1291 460 1305 q 527 1199 487 1247 q 566 1145 549 1171 q 583 1103 583 1120 l 583 1093 q 570 1052 583 1069 q 537 1026 557 1035 q 498 1017 517 1017 z "},"Ü":{"ha":812,"x_min":33,"x_max":777,"o":"m 281 0 q 108 59 169 0 q 47 226 47 117 q 51 283 47 254 q 62 485 62 379 q 37 812 62 663 q 33 844 33 829 q 55 916 33 888 q 111 958 77 944 q 182 971 144 971 q 256 958 220 971 q 315 918 292 944 q 338 855 338 892 q 325 659 338 774 q 315 526 315 589 q 328 358 315 448 q 352 306 333 322 q 396 290 372 290 q 481 334 442 290 q 486 467 486 401 q 479 585 486 516 q 464 718 472 653 q 450 860 450 821 q 472 920 450 896 q 529 958 494 945 q 602 970 564 970 q 677 957 642 970 q 734 913 712 943 q 755 839 755 884 q 744 678 755 779 q 732 528 732 582 q 743 311 732 415 q 772 136 753 207 q 777 102 777 117 q 757 45 777 68 q 706 12 737 23 q 637 1 674 1 q 545 19 590 1 q 475 70 500 37 q 402 19 448 37 q 281 0 356 0 m 296 1017 q 227 1046 256 1017 q 198 1114 198 1074 q 227 1183 198 1155 q 296 1212 256 1212 q 366 1183 337 1212 q 395 1114 395 1155 q 366 1046 395 1074 q 296 1017 337 1017 m 513 1017 q 444 1046 473 1017 q 415 1114 415 1074 q 444 1183 415 1155 q 513 1212 473 1212 q 583 1183 554 1212 q 612 1114 612 1155 q 583 1046 612 1074 q 513 1017 554 1017 z "},"Ý":{"ha":775,"x_min":-2,"x_max":770,"o":"m 401 0 q 325 15 361 0 q 264 61 288 30 q 241 140 241 92 l 241 158 q 253 381 252 259 l 194 460 q 83 614 133 538 q 5 776 33 690 q -2 820 -2 799 q 26 901 -2 867 q 95 954 54 935 q 178 972 137 972 q 251 951 220 972 q 289 884 282 930 q 382 595 309 726 q 442 736 414 659 q 479 884 469 812 q 517 951 486 930 q 589 972 548 972 q 672 954 631 972 q 742 901 714 935 q 770 821 770 867 q 762 776 770 800 q 685 614 734 690 q 574 460 635 538 l 522 391 q 551 129 528 269 q 552 111 552 120 q 530 51 552 76 q 474 13 509 26 q 401 0 439 0 m 355 1017 q 307 1033 330 1017 q 284 1068 284 1048 q 308 1102 284 1085 q 379 1175 352 1131 q 422 1264 406 1219 q 482 1303 439 1303 q 551 1277 517 1303 q 584 1211 584 1250 q 578 1182 584 1198 q 547 1147 572 1166 q 489 1107 522 1128 q 391 1032 429 1071 q 355 1017 376 1017 z "},"Þ":{"ha":776,"x_min":16,"x_max":751,"o":"m 372 402 q 449 419 419 402 q 494 461 479 435 q 509 514 509 487 q 484 580 509 551 q 412 610 459 610 q 334 589 378 610 q 321 407 323 495 q 372 402 349 402 m 203 -130 q 129 -116 165 -130 q 72 -71 94 -101 q 50 4 50 -40 l 50 13 q 60 317 60 163 q 19 993 60 768 q 16 1025 16 1010 q 38 1097 16 1069 q 95 1139 60 1126 q 168 1153 130 1153 q 241 1140 206 1153 q 297 1103 276 1127 q 319 1045 319 1078 q 299 767 302 901 q 413 822 370 810 q 496 833 456 833 q 632 792 575 833 q 720 685 689 751 q 751 546 751 620 q 680 337 751 416 q 403 241 593 241 q 323 245 366 241 q 349 -1 329 130 q 351 -19 351 -10 q 329 -79 351 -54 q 274 -117 308 -104 q 203 -130 241 -130 z "},"ß":{"ha":846,"x_min":40,"x_max":848,"o":"m 589 0 q 474 23 528 0 q 388 94 420 46 q 350 213 350 151 q 374 299 350 264 q 429 334 398 334 q 475 309 452 334 q 545 264 511 264 q 579 281 566 264 q 592 320 592 298 q 583 355 592 338 q 553 381 573 372 l 507 401 q 440 431 469 416 q 394 469 411 447 q 378 528 378 492 q 387 600 378 564 q 405 664 395 635 q 418 718 418 701 q 401 769 418 751 q 361 787 383 787 q 314 763 336 787 q 293 688 293 740 q 337 150 294 380 q 340 120 340 134 q 319 54 340 81 q 265 14 298 27 q 195 0 232 0 q 88 26 132 0 q 43 102 43 53 q 47 170 44 139 q 51 246 51 201 q 45 409 51 326 q 40 572 40 493 q 50 714 40 647 q 90 833 60 781 q 213 938 132 903 q 384 972 295 972 q 519 949 455 972 q 623 879 583 926 q 663 760 663 831 q 652 707 663 734 q 627 655 641 680 q 604 606 614 629 q 593 559 593 582 q 610 513 593 535 q 671 471 627 490 q 805 362 762 427 q 848 230 848 298 q 817 118 848 170 q 728 33 786 65 q 589 0 671 0 z "},"à":{"ha":817,"x_min":23,"x_max":782,"o":"m 237 0 l 230 0 q 79 80 135 3 q 23 254 23 156 q 45 369 23 313 q 115 470 66 425 q 242 541 163 514 q 435 568 321 568 q 500 566 465 568 q 498 629 500 600 q 448 701 492 701 q 400 686 426 701 q 352 649 375 671 q 313 607 329 627 q 250 575 286 575 q 188 594 218 575 q 136 646 157 614 q 115 715 115 677 q 160 810 115 767 q 286 886 213 860 q 436 912 359 912 q 554 896 497 912 q 657 844 612 879 q 729 758 703 810 q 756 634 756 705 q 754 553 756 591 q 752 460 752 511 q 756 389 752 428 q 765 301 760 350 q 781 140 772 233 q 782 119 782 128 q 755 59 782 84 q 688 21 729 35 q 606 8 648 8 q 508 32 552 8 q 454 104 463 55 q 237 0 334 0 m 347 271 q 399 280 367 271 q 457 317 431 290 q 490 396 484 344 l 494 441 l 469 441 q 355 423 397 441 q 297 379 314 406 q 280 323 280 352 q 299 288 280 304 q 347 271 317 271 m 431 969 q 395 984 410 969 q 297 1059 357 1023 q 240 1099 264 1080 q 209 1134 215 1118 q 202 1163 202 1149 q 235 1229 202 1202 q 304 1255 269 1255 q 363 1216 347 1255 q 407 1127 380 1171 q 478 1054 434 1083 q 502 1020 502 1037 q 479 984 502 1000 q 431 969 456 969 z "},"á":{"ha":817,"x_min":23,"x_max":782,"o":"m 237 0 l 230 0 q 79 80 135 3 q 23 254 23 156 q 45 369 23 313 q 115 470 66 425 q 242 541 163 514 q 435 568 321 568 q 500 566 465 568 q 498 629 500 600 q 448 701 492 701 q 400 686 426 701 q 352 649 375 671 q 313 607 329 627 q 250 575 286 575 q 188 594 218 575 q 136 646 157 614 q 115 715 115 677 q 160 810 115 767 q 286 886 213 860 q 436 912 359 912 q 554 896 497 912 q 657 844 612 879 q 729 758 703 810 q 756 634 756 705 q 754 553 756 591 q 752 460 752 511 q 756 389 752 428 q 765 301 760 350 q 781 140 772 233 q 782 119 782 128 q 755 59 782 84 q 688 21 729 35 q 606 8 648 8 q 508 32 552 8 q 454 104 463 55 q 237 0 334 0 m 347 271 q 399 280 367 271 q 457 317 431 290 q 490 396 484 344 l 494 441 l 469 441 q 355 423 397 441 q 297 379 314 406 q 280 323 280 352 q 299 288 280 304 q 347 271 317 271 m 406 969 q 358 984 381 969 q 335 1020 335 1000 q 359 1054 335 1037 q 430 1127 403 1083 q 473 1216 456 1171 q 533 1255 490 1255 q 602 1229 568 1255 q 635 1163 635 1202 q 629 1134 635 1149 q 597 1099 623 1118 q 540 1059 572 1080 q 442 984 479 1023 q 406 969 427 969 z "},"â":{"ha":817,"x_min":23,"x_max":782,"o":"m 237 0 l 230 0 q 79 80 135 3 q 23 254 23 156 q 45 369 23 313 q 115 470 66 425 q 242 541 163 514 q 435 568 321 568 q 500 566 465 568 q 498 629 500 600 q 448 701 492 701 q 400 686 426 701 q 352 649 375 671 q 313 607 329 627 q 250 575 286 575 q 188 594 218 575 q 136 646 157 614 q 115 715 115 677 q 160 810 115 767 q 286 886 213 860 q 436 912 359 912 q 554 896 497 912 q 657 844 612 879 q 729 758 703 810 q 756 634 756 705 q 754 553 756 591 q 752 460 752 511 q 756 389 752 428 q 765 301 760 350 q 781 140 772 233 q 782 119 782 128 q 755 59 782 84 q 688 21 729 35 q 606 8 648 8 q 508 32 552 8 q 454 104 463 55 q 237 0 334 0 m 347 271 q 399 280 367 271 q 457 317 431 290 q 490 396 484 344 l 494 441 l 469 441 q 355 423 397 441 q 297 379 314 406 q 280 323 280 352 q 299 288 280 304 q 347 271 317 271 m 528 972 q 486 986 505 972 q 465 1027 468 999 q 434 1166 458 1113 q 404 1027 411 1113 q 383 986 401 999 q 341 972 365 972 q 302 981 321 972 q 269 1007 282 990 q 256 1048 256 1024 l 256 1059 q 273 1101 256 1076 q 312 1154 290 1126 q 372 1246 352 1202 q 396 1267 378 1260 q 435 1274 414 1274 q 473 1267 455 1274 q 496 1246 490 1260 q 557 1154 517 1202 q 596 1101 579 1126 q 613 1059 613 1076 l 613 1048 q 600 1007 613 1024 q 567 981 587 990 q 528 972 547 972 z "},"ã":{"ha":817,"x_min":23,"x_max":782,"o":"m 237 0 l 230 0 q 79 80 135 3 q 23 254 23 156 q 45 369 23 313 q 115 470 66 425 q 242 541 163 514 q 435 568 321 568 q 500 566 465 568 q 498 629 500 600 q 448 701 492 701 q 400 686 426 701 q 352 649 375 671 q 313 607 329 627 q 250 575 286 575 q 188 594 218 575 q 136 646 157 614 q 115 715 115 677 q 160 810 115 767 q 286 886 213 860 q 436 912 359 912 q 554 896 497 912 q 657 844 612 879 q 729 758 703 810 q 756 634 756 705 q 754 553 756 591 q 752 460 752 511 q 756 389 752 428 q 765 301 760 350 q 781 140 772 233 q 782 119 782 128 q 755 59 782 84 q 688 21 729 35 q 606 8 648 8 q 508 32 552 8 q 454 104 463 55 q 237 0 334 0 m 347 271 q 399 280 367 271 q 457 317 431 290 q 490 396 484 344 l 494 441 l 469 441 q 355 423 397 441 q 297 379 314 406 q 280 323 280 352 q 299 288 280 304 q 347 271 317 271 m 518 972 q 458 986 485 972 q 410 1016 431 1000 q 387 1031 397 1025 q 368 1037 376 1037 q 337 994 349 1037 q 324 978 334 983 q 302 972 315 972 q 265 984 283 972 q 247 1019 247 996 q 280 1108 250 1081 q 353 1136 311 1136 q 407 1121 383 1136 q 451 1090 431 1107 q 476 1072 465 1080 q 498 1065 488 1065 q 532 1114 519 1065 q 546 1131 536 1126 q 568 1137 555 1137 q 605 1124 587 1137 q 623 1090 623 1112 q 588 1001 620 1029 q 518 972 557 972 z "},"ä":{"ha":817,"x_min":23,"x_max":782,"o":"m 237 0 l 230 0 q 79 80 135 3 q 23 254 23 156 q 45 369 23 313 q 115 470 66 425 q 242 541 163 514 q 435 568 321 568 q 500 566 465 568 q 498 629 500 600 q 448 701 492 701 q 400 686 426 701 q 352 649 375 671 q 313 607 329 627 q 250 575 286 575 q 188 594 218 575 q 136 646 157 614 q 115 715 115 677 q 160 810 115 767 q 286 886 213 860 q 436 912 359 912 q 554 896 497 912 q 657 844 612 879 q 729 758 703 810 q 756 634 756 705 q 754 553 756 591 q 752 460 752 511 q 756 389 752 428 q 765 301 760 350 q 781 140 772 233 q 782 119 782 128 q 755 59 782 84 q 688 21 729 35 q 606 8 648 8 q 508 32 552 8 q 454 104 463 55 q 237 0 334 0 m 347 271 q 399 280 367 271 q 457 317 431 290 q 490 396 484 344 l 494 441 l 469 441 q 355 423 397 441 q 297 379 314 406 q 280 323 280 352 q 299 288 280 304 q 347 271 317 271 m 326 976 q 257 1004 286 976 q 228 1073 228 1033 q 257 1142 228 1114 q 326 1171 286 1171 q 396 1142 367 1171 q 425 1073 425 1114 q 396 1004 425 1033 q 326 976 367 976 m 543 976 q 474 1004 503 976 q 445 1073 445 1033 q 474 1142 445 1114 q 543 1171 503 1171 q 613 1142 584 1171 q 642 1073 642 1114 q 613 1004 642 1033 q 543 976 584 976 z "},"å":{"ha":817,"x_min":23,"x_max":782,"o":"m 237 0 l 230 0 q 79 80 135 3 q 23 254 23 156 q 45 369 23 313 q 115 470 66 425 q 242 541 163 514 q 435 568 321 568 q 500 566 465 568 q 498 629 500 600 q 448 701 492 701 q 400 686 426 701 q 352 649 375 671 q 313 607 329 627 q 250 575 286 575 q 188 594 218 575 q 136 646 157 614 q 115 715 115 677 q 160 810 115 767 q 286 886 213 860 q 436 912 359 912 q 554 896 497 912 q 657 844 612 879 q 729 758 703 810 q 756 634 756 705 q 754 553 756 591 q 752 460 752 511 q 756 389 752 428 q 765 301 760 350 q 781 140 772 233 q 782 119 782 128 q 755 59 782 84 q 688 21 729 35 q 606 8 648 8 q 508 32 552 8 q 454 104 463 55 q 237 0 334 0 m 347 271 q 399 280 367 271 q 457 317 431 290 q 490 396 484 344 l 494 441 l 469 441 q 355 423 397 441 q 297 379 314 406 q 280 323 280 352 q 299 288 280 304 q 347 271 317 271 m 434 960 q 371 974 401 960 q 322 1018 341 989 q 303 1090 303 1047 q 322 1163 303 1134 q 372 1206 342 1192 q 435 1221 402 1221 q 525 1187 487 1221 q 566 1087 564 1154 q 546 1017 566 1045 q 497 974 527 988 q 434 960 467 960 m 434 1044 q 454 1059 445 1044 q 464 1103 464 1074 q 455 1143 464 1130 q 435 1156 446 1156 q 413 1142 423 1156 q 404 1102 404 1128 q 413 1059 404 1074 q 434 1044 422 1044 z "},"æ":{"ha":1254,"x_min":23,"x_max":1326,"o":"m 347 271 q 399 280 367 271 q 457 317 431 290 q 490 396 484 344 l 494 441 l 469 441 q 355 423 397 441 q 297 379 314 406 q 280 323 280 352 q 299 288 280 304 q 347 271 317 271 m 897 557 q 1013 578 926 558 q 1090 593 1059 588 q 1052 664 1082 637 q 989 691 1023 691 q 930 660 957 691 q 897 557 903 629 m 237 0 q 79 80 138 0 q 23 254 23 156 q 115 470 23 385 q 435 568 222 568 q 500 566 465 568 q 498 629 500 600 q 448 701 492 701 q 400 686 426 701 q 352 649 375 671 q 313 607 329 627 q 250 575 286 575 q 188 594 218 575 q 136 646 157 614 q 115 715 115 677 q 160 810 115 767 q 286 886 213 860 q 436 912 359 912 q 555 896 497 912 q 708 792 654 867 q 829 878 759 850 q 956 901 891 901 q 1114 865 1040 901 q 1233 763 1187 829 q 1281 605 1279 696 q 1246 499 1281 535 q 1125 439 1211 463 q 894 388 1040 416 q 925 275 899 311 q 1008 238 952 238 q 1130 343 1076 238 q 1175 366 1146 366 q 1241 348 1206 366 q 1301 300 1276 329 q 1326 241 1326 271 q 1321 218 1326 229 q 1252 107 1294 156 q 1154 30 1210 59 q 1027 1 1097 1 q 774 84 878 1 q 755 60 768 71 q 688 21 729 35 q 606 8 648 8 q 508 32 552 8 q 454 104 463 55 q 237 0 334 0 z "},"ç":{"ha":741,"x_min":18,"x_max":724,"o":"m 420 -262 q 357 -255 390 -262 q 301 -235 324 -249 q 278 -198 278 -221 q 290 -166 278 -180 q 321 -151 302 -151 q 349 -163 334 -151 q 397 -182 375 -182 q 437 -167 422 -182 q 452 -140 452 -153 q 395 -105 452 -105 q 375 -107 386 -105 q 345 -109 363 -109 q 328 -88 328 -109 q 355 7 328 -47 q 250 41 297 16 q 121 145 172 79 q 44 293 69 211 q 18 460 18 375 q 43 626 18 545 q 117 770 68 706 q 241 872 167 834 q 414 911 315 911 q 564 867 499 911 q 665 753 628 823 q 699 609 699 686 q 655 508 699 538 q 555 477 612 477 q 475 497 510 477 q 439 553 439 517 q 444 584 439 568 q 448 616 448 601 q 433 670 448 650 q 395 690 418 690 q 352 672 376 690 q 311 616 328 654 q 294 515 294 577 l 294 452 q 345 264 294 319 q 409 237 370 237 q 532 336 477 237 q 575 361 546 361 q 640 342 605 361 q 699 296 674 324 q 724 238 724 267 q 719 215 724 227 q 650 106 692 155 q 448 2 567 9 q 424 -39 433 -20 l 443 -39 q 525 -55 492 -39 q 576 -96 559 -71 q 594 -148 594 -121 q 575 -201 594 -175 q 518 -245 557 -228 q 420 -262 479 -262 z "},"è":{"ha":744,"x_min":22,"x_max":739,"o":"m 309 557 q 425 578 340 559 q 503 593 472 588 q 465 664 494 637 q 401 691 435 691 q 343 660 370 691 q 309 557 316 629 m 440 1 q 260 39 338 1 q 129 141 182 76 q 49 294 76 207 q 22 481 22 381 q 51 672 22 593 q 131 803 81 752 q 242 878 180 854 q 368 901 304 901 q 526 865 452 901 q 646 763 600 829 q 694 605 692 696 q 658 499 694 535 q 538 439 623 463 q 307 388 453 416 q 338 275 311 311 q 421 238 365 238 l 429 238 q 543 343 490 245 q 588 366 558 366 q 653 348 618 366 q 713 300 688 329 q 739 241 739 271 q 734 218 739 229 q 664 107 706 156 q 566 30 623 59 q 440 1 510 1 m 398 970 q 361 985 376 970 q 264 1061 324 1024 q 207 1101 231 1082 q 175 1135 182 1120 q 169 1164 169 1151 q 202 1230 169 1203 q 271 1257 235 1257 q 330 1217 314 1257 q 374 1128 347 1173 q 445 1055 401 1084 q 469 1021 469 1038 q 446 986 469 1001 q 398 970 422 970 z "},"é":{"ha":744,"x_min":22,"x_max":739,"o":"m 309 557 q 425 578 340 559 q 503 593 472 588 q 465 664 494 637 q 401 691 435 691 q 343 660 370 691 q 309 557 316 629 m 440 1 q 260 39 338 1 q 129 141 182 76 q 49 294 76 207 q 22 481 22 381 q 51 672 22 593 q 131 803 81 752 q 242 878 180 854 q 368 901 304 901 q 526 865 452 901 q 646 763 600 829 q 694 605 692 696 q 658 499 694 535 q 538 439 623 463 q 307 388 453 416 q 338 275 311 311 q 421 238 365 238 l 429 238 q 543 343 490 245 q 588 366 558 366 q 653 348 618 366 q 713 300 688 329 q 739 241 739 271 q 734 218 739 229 q 664 107 706 156 q 566 30 623 59 q 440 1 510 1 m 340 973 q 292 988 315 973 q 269 1024 269 1004 q 293 1058 269 1041 q 364 1131 337 1087 q 408 1220 391 1175 q 467 1259 425 1259 q 536 1233 503 1259 q 569 1167 569 1206 q 563 1138 569 1154 q 532 1103 557 1122 q 474 1063 507 1084 q 376 988 414 1027 q 340 973 361 973 z "},"ê":{"ha":744,"x_min":22,"x_max":739,"o":"m 309 557 q 425 578 340 559 q 503 593 472 588 q 465 664 494 637 q 401 691 435 691 q 343 660 370 691 q 309 557 316 629 m 440 1 q 260 39 338 1 q 129 141 182 76 q 49 294 76 207 q 22 481 22 381 q 51 672 22 593 q 131 803 81 752 q 242 878 180 854 q 368 901 304 901 q 526 865 452 901 q 646 763 600 829 q 694 605 692 696 q 658 499 694 535 q 538 439 623 463 q 307 388 453 416 q 338 275 311 311 q 421 238 365 238 l 429 238 q 543 343 490 245 q 588 366 558 366 q 653 348 618 366 q 713 300 688 329 q 739 241 739 271 q 734 218 739 229 q 664 107 706 156 q 566 30 623 59 q 440 1 510 1 m 462 968 q 420 981 439 968 q 399 1023 402 994 q 368 1161 392 1108 q 338 1023 345 1108 q 317 981 335 994 q 275 968 299 968 q 236 977 256 968 q 203 1002 216 985 q 190 1043 190 1019 l 190 1054 q 207 1096 190 1071 q 246 1149 224 1121 q 307 1241 286 1198 q 331 1262 313 1255 q 369 1270 349 1270 q 407 1262 389 1270 q 431 1241 425 1255 q 491 1149 451 1198 q 530 1096 513 1121 q 547 1054 547 1071 l 547 1043 q 534 1002 547 1019 q 501 977 521 985 q 462 968 481 968 z "},"ë":{"ha":744,"x_min":22,"x_max":739,"o":"m 309 557 q 425 578 340 559 q 503 593 472 588 q 465 664 494 637 q 401 691 435 691 q 343 660 370 691 q 309 557 316 629 m 440 1 q 260 39 338 1 q 129 141 182 76 q 49 294 76 207 q 22 481 22 381 q 51 672 22 593 q 131 803 81 752 q 242 878 180 854 q 368 901 304 901 q 526 865 452 901 q 646 763 600 829 q 694 605 692 696 q 658 499 694 535 q 538 439 623 463 q 307 388 453 416 q 338 275 311 311 q 421 238 365 238 l 429 238 q 543 343 490 245 q 588 366 558 366 q 653 348 618 366 q 713 300 688 329 q 739 241 739 271 q 734 218 739 229 q 664 107 706 156 q 566 30 623 59 q 440 1 510 1 m 260 973 q 191 1002 220 973 q 162 1070 162 1030 q 191 1139 162 1111 q 260 1168 220 1168 q 330 1139 301 1168 q 359 1070 359 1111 q 330 1002 359 1030 q 260 973 301 973 m 477 973 q 408 1002 437 973 q 379 1070 379 1030 q 408 1139 379 1111 q 477 1168 437 1168 q 547 1139 518 1168 q 576 1070 576 1111 q 547 1002 576 1030 q 477 973 518 973 z "},"ì":{"ha":387,"x_min":-7,"x_max":353,"o":"m 191 1 q 121 14 154 1 q 67 51 87 26 q 46 117 46 77 q 50 150 46 132 q 69 337 69 254 q 62 451 69 400 q 49 539 56 502 q 42 591 42 577 q 64 659 42 632 q 121 699 86 686 q 193 712 155 712 q 261 700 229 712 q 314 665 293 688 q 334 609 334 642 q 332 586 334 598 q 318 433 318 517 q 351 135 318 270 q 353 112 353 123 q 329 52 353 77 q 268 15 305 28 q 191 1 231 1 m 222 770 q 185 785 200 770 q 87 861 148 824 q 30 901 55 882 q -1 935 5 920 q -7 964 -7 951 q 26 1030 -7 1003 q 95 1057 59 1057 q 154 1017 138 1057 q 198 928 171 972 q 269 855 224 884 q 292 821 292 838 q 269 786 292 801 q 222 770 246 770 z "},"í":{"ha":387,"x_min":42,"x_max":393,"o":"m 191 1 q 121 14 154 1 q 67 51 87 26 q 46 117 46 77 q 50 150 46 132 q 69 337 69 254 q 62 451 69 400 q 49 539 56 502 q 42 591 42 577 q 64 659 42 632 q 121 699 86 686 q 193 712 155 712 q 261 700 229 712 q 314 665 293 688 q 334 609 334 642 q 332 586 334 598 q 318 433 318 517 q 351 135 318 270 q 353 112 353 123 q 329 52 353 77 q 268 15 305 28 q 191 1 231 1 m 164 770 q 116 786 139 770 q 93 821 93 801 q 117 855 93 838 q 188 928 161 884 q 231 1017 214 972 q 291 1057 248 1057 q 359 1030 326 1057 q 393 964 393 1003 q 387 935 393 951 q 355 901 380 920 q 298 861 330 882 q 200 785 237 824 q 164 770 185 770 z "},"î":{"ha":387,"x_min":14,"x_max":371,"o":"m 191 1 q 121 14 154 1 q 67 51 87 26 q 46 117 46 77 q 50 150 46 132 q 69 337 69 254 q 62 451 69 400 q 49 539 56 502 q 42 591 42 577 q 64 659 42 632 q 121 699 86 686 q 193 712 155 712 q 261 700 229 712 q 314 665 293 688 q 334 609 334 642 q 332 586 334 598 q 318 433 318 517 q 351 135 318 270 q 353 112 353 123 q 329 52 353 77 q 268 15 305 28 q 191 1 231 1 m 286 783 q 244 797 262 783 q 222 838 226 810 q 192 977 216 924 q 162 838 169 924 q 141 797 159 810 q 99 783 123 783 q 60 792 79 783 q 27 818 40 801 q 14 859 14 835 l 14 869 q 31 911 14 886 q 70 965 47 937 q 130 1057 110 1013 q 154 1078 136 1071 q 193 1085 172 1085 q 231 1078 213 1085 q 254 1057 248 1071 q 315 965 275 1013 q 354 911 337 937 q 371 869 371 886 l 371 859 q 358 818 371 835 q 325 792 345 801 q 286 783 305 783 z "},"ï":{"ha":387,"x_min":-14,"x_max":400,"o":"m 191 1 q 121 14 154 1 q 67 51 87 26 q 46 117 46 77 q 50 150 46 132 q 69 337 69 254 q 62 451 69 400 q 49 539 56 502 q 42 591 42 577 q 64 659 42 632 q 121 699 86 686 q 193 712 155 712 q 261 700 229 712 q 314 665 293 688 q 334 609 334 642 q 332 586 334 598 q 318 433 318 517 q 351 135 318 270 q 353 112 353 123 q 329 52 353 77 q 268 15 305 28 q 191 1 231 1 m 84 770 q 15 799 43 770 q -14 867 -14 827 q 15 937 -14 908 q 84 965 43 965 q 154 937 125 965 q 183 867 183 908 q 154 799 183 827 q 84 770 125 770 m 301 770 q 232 799 260 770 q 203 867 203 827 q 232 937 203 908 q 301 965 260 965 q 371 937 342 965 q 400 867 400 908 q 371 799 400 827 q 301 770 342 770 z "},"ð":{"ha":699,"x_min":7,"x_max":668,"o":"m 356 0 q 201 31 267 0 q 93 114 136 62 q 28 226 50 165 q 7 349 7 288 q 28 462 7 408 q 92 551 49 516 q 202 585 135 585 q 299 570 247 585 q 393 524 352 554 l 392 530 q 345 656 376 597 q 159 599 227 627 q 142 595 150 595 q 102 620 118 595 q 87 670 87 644 q 98 705 87 690 q 133 722 109 720 q 271 744 176 724 q 182 771 234 770 q 140 798 155 772 q 126 857 126 823 q 137 911 126 884 q 170 956 147 938 q 229 973 193 973 l 244 972 q 404 920 337 962 q 522 803 470 878 q 608 829 581 819 q 623 832 616 832 q 656 809 644 832 q 668 760 668 786 q 660 724 668 740 q 633 707 651 709 q 581 703 611 706 q 656 375 656 540 q 639 233 656 300 q 585 113 622 165 q 492 30 549 60 q 356 0 435 0 m 319 195 q 378 225 361 197 q 395 289 395 254 q 384 352 395 321 q 349 405 372 384 q 290 426 325 426 q 251 412 266 426 q 229 378 235 399 q 222 333 222 357 q 234 270 222 301 q 268 217 245 238 q 319 195 290 195 z "},"ñ":{"ha":796,"x_min":42,"x_max":785,"o":"m 635 0 q 548 14 590 0 q 477 55 505 28 q 450 119 450 81 l 453 188 q 467 519 467 406 q 452 615 467 585 q 411 646 437 646 q 318 577 372 646 q 328 323 318 452 q 351 135 337 193 q 353 112 353 123 q 329 52 353 77 q 268 15 305 28 q 191 1 231 1 q 121 14 154 1 q 67 51 87 26 q 46 117 46 77 q 50 150 46 132 q 69 393 69 245 q 60 616 69 512 q 44 762 51 720 q 42 785 42 774 q 64 853 42 827 q 121 893 86 880 q 192 906 155 906 q 288 881 245 906 q 334 806 331 855 q 420 885 375 861 q 510 910 466 910 q 649 845 590 910 q 711 678 709 779 q 715 514 711 614 q 731 318 719 414 q 766 171 743 222 q 785 102 785 132 q 764 45 785 67 q 708 11 743 22 q 635 0 674 0 m 475 968 q 415 982 441 968 q 367 1011 388 996 q 343 1026 354 1020 q 325 1032 333 1032 q 294 989 306 1032 q 281 973 290 979 q 259 968 271 968 q 222 980 240 968 q 203 1014 203 991 q 237 1104 206 1076 q 310 1131 268 1131 q 364 1117 340 1131 q 408 1086 388 1102 q 433 1067 421 1075 q 454 1060 444 1060 q 489 1109 476 1060 q 502 1126 492 1121 q 524 1132 512 1132 q 561 1120 543 1132 q 579 1086 579 1107 q 545 996 576 1025 q 475 968 513 968 z "},"ò":{"ha":816,"x_min":20,"x_max":785,"o":"m 411 0 q 224 52 314 0 q 79 208 135 104 q 20 467 22 312 q 52 659 20 577 q 137 796 83 741 q 257 879 190 851 q 394 906 323 906 q 536 878 467 906 q 662 794 606 850 q 751 655 718 739 q 785 460 785 572 q 753 256 785 343 q 668 113 722 170 q 548 28 615 56 q 411 0 481 0 m 406 235 q 456 258 432 235 q 495 327 480 281 q 511 440 511 372 q 474 625 507 564 q 398 686 441 686 q 348 661 372 686 q 309 586 324 636 q 294 463 294 536 q 311 336 295 387 q 352 260 327 286 q 406 235 377 235 m 431 979 q 395 994 410 979 q 297 1069 357 1032 q 240 1109 264 1090 q 209 1143 215 1128 q 202 1173 202 1159 q 235 1238 202 1211 q 304 1265 269 1265 q 363 1225 347 1265 q 407 1137 380 1181 q 478 1063 434 1093 q 502 1029 502 1046 q 479 994 502 1009 q 431 979 456 979 z "},"ó":{"ha":816,"x_min":20,"x_max":785,"o":"m 411 0 q 224 52 314 0 q 79 208 135 104 q 20 467 22 312 q 52 659 20 577 q 137 796 83 741 q 257 879 190 851 q 394 906 323 906 q 536 878 467 906 q 662 794 606 850 q 751 655 718 739 q 785 460 785 572 q 753 256 785 343 q 668 113 722 170 q 548 28 615 56 q 411 0 481 0 m 406 235 q 456 258 432 235 q 495 327 480 281 q 511 440 511 372 q 474 625 507 564 q 398 686 441 686 q 348 661 372 686 q 309 586 324 636 q 294 463 294 536 q 311 336 295 387 q 352 260 327 286 q 406 235 377 235 m 374 981 q 326 996 349 981 q 302 1031 302 1011 q 326 1065 302 1048 q 397 1139 370 1095 q 441 1227 424 1183 q 500 1267 458 1267 q 569 1240 536 1267 q 602 1175 602 1213 q 596 1145 602 1161 q 565 1111 590 1130 q 507 1071 540 1092 q 410 996 447 1034 q 374 981 395 981 z "},"ô":{"ha":816,"x_min":20,"x_max":785,"o":"m 411 0 q 224 52 314 0 q 79 208 135 104 q 20 467 22 312 q 52 659 20 577 q 137 796 83 741 q 257 879 190 851 q 394 906 323 906 q 536 878 467 906 q 662 794 606 850 q 751 655 718 739 q 785 460 785 572 q 753 256 785 343 q 668 113 722 170 q 548 28 615 56 q 411 0 481 0 m 406 235 q 456 258 432 235 q 495 327 480 281 q 511 440 511 372 q 474 625 507 564 q 398 686 441 686 q 348 661 372 686 q 309 586 324 636 q 294 463 294 536 q 311 336 295 387 q 352 260 327 286 q 406 235 377 235 m 495 965 q 454 978 472 965 q 432 1020 435 991 q 401 1158 425 1105 q 372 1020 378 1105 q 350 978 368 991 q 309 965 332 965 q 269 974 289 965 q 236 1000 250 983 q 223 1040 223 1017 l 223 1051 q 240 1093 223 1068 q 279 1147 257 1118 q 340 1238 319 1195 q 364 1260 346 1253 q 402 1267 382 1267 q 440 1260 422 1267 q 464 1238 458 1253 q 524 1147 484 1195 q 564 1093 547 1118 q 581 1051 581 1068 l 581 1040 q 567 1000 581 1017 q 534 974 554 983 q 495 965 515 965 z "},"õ":{"ha":816,"x_min":20,"x_max":785,"o":"m 411 0 q 224 52 314 0 q 79 208 135 104 q 20 467 22 312 q 52 659 20 577 q 137 796 83 741 q 257 879 190 851 q 394 906 323 906 q 536 878 467 906 q 662 794 606 850 q 751 655 718 739 q 785 460 785 572 q 753 256 785 343 q 668 113 722 170 q 548 28 615 56 q 411 0 481 0 m 406 235 q 456 258 432 235 q 495 327 480 281 q 511 440 511 372 q 474 625 507 564 q 398 686 441 686 q 348 661 372 686 q 309 586 324 636 q 294 463 294 536 q 311 336 295 387 q 352 260 327 286 q 406 235 377 235 m 486 970 q 426 984 452 970 q 378 1014 399 998 q 354 1029 365 1023 q 336 1035 344 1035 q 304 992 317 1035 q 292 976 301 981 q 270 970 282 970 q 233 982 251 970 q 214 1017 214 994 q 248 1106 217 1079 q 321 1134 279 1134 q 375 1119 351 1134 q 418 1088 399 1105 q 444 1070 432 1078 q 465 1063 455 1063 q 500 1112 487 1063 q 513 1129 503 1124 q 535 1135 523 1135 q 572 1122 554 1135 q 590 1088 590 1110 q 556 999 587 1027 q 486 970 524 970 z "},"ö":{"ha":816,"x_min":20,"x_max":785,"o":"m 411 0 q 224 52 314 0 q 79 208 135 104 q 20 467 22 312 q 52 659 20 577 q 137 796 83 741 q 257 879 190 851 q 394 906 323 906 q 536 878 467 906 q 662 794 606 850 q 751 655 718 739 q 785 460 785 572 q 753 256 785 343 q 668 113 722 170 q 548 28 615 56 q 411 0 481 0 m 406 235 q 456 258 432 235 q 495 327 480 281 q 511 440 511 372 q 474 625 507 564 q 398 686 441 686 q 348 661 372 686 q 309 586 324 636 q 294 463 294 536 q 311 336 295 387 q 352 260 327 286 q 406 235 377 235 m 294 973 q 224 1002 253 973 q 195 1070 195 1030 q 224 1139 195 1111 q 294 1168 253 1168 q 363 1139 334 1168 q 393 1070 393 1111 q 363 1002 393 1030 q 294 973 334 973 m 511 973 q 441 1002 470 973 q 412 1070 412 1030 q 441 1139 412 1111 q 511 1168 470 1168 q 581 1139 551 1168 q 610 1070 610 1111 q 581 1002 610 1030 q 511 973 551 973 z "},"÷":{"ha":683,"x_min":34,"x_max":649,"o":"m 572 376 q 560 377 563 376 q 553 378 557 377 q 462 389 503 383 q 342 400 382 400 q 221 389 300 400 q 130 378 180 383 q 121 377 125 378 q 113 376 118 376 q 70 394 87 376 q 43 440 52 412 q 34 494 34 467 q 41 542 34 519 q 64 580 49 565 q 104 595 80 595 q 212 588 160 594 q 342 580 289 580 q 509 590 404 580 l 555 594 q 564 595 560 594 q 576 595 568 595 q 617 581 602 595 q 641 543 633 566 q 649 494 649 519 q 640 440 649 467 q 614 395 631 413 q 572 376 597 376 m 342 596 q 254 627 290 596 q 217 700 217 657 q 254 773 217 743 q 342 804 290 804 q 430 773 393 804 q 466 700 466 743 q 430 627 466 657 q 342 596 393 596 m 342 169 q 254 199 290 169 q 217 273 217 229 q 254 346 217 315 q 342 376 290 376 q 430 346 393 376 q 466 273 466 315 q 430 199 466 229 q 342 169 393 169 z "},"ø":{"ha":816,"x_min":21,"x_max":785,"o":"m 438 245 q 509 435 509 287 l 509 469 q 438 245 465 344 m 294 446 q 353 665 326 556 q 294 463 294 608 l 294 446 m 281 -68 q 227 -55 253 -68 q 184 -15 201 -41 q 168 52 168 12 q 172 90 168 69 q 21 472 21 219 q 52 660 21 579 q 137 796 83 741 q 257 879 190 851 q 394 906 323 906 l 408 906 q 439 948 420 932 q 517 979 475 979 q 581 963 550 979 q 631 917 612 946 q 651 850 651 888 q 645 810 651 831 q 785 460 785 686 q 753 256 785 343 q 668 113 722 170 q 549 28 615 56 q 414 1 483 1 l 387 1 q 357 -41 377 -25 q 281 -68 322 -68 z "},"ù":{"ha":789,"x_min":27,"x_max":749,"o":"m 586 0 q 491 25 533 0 q 442 104 448 50 q 356 25 401 50 q 267 0 311 0 q 127 65 186 0 q 64 232 67 131 q 60 509 64 390 q 35 743 55 660 q 27 793 27 770 q 48 862 27 835 q 104 901 70 888 q 177 914 139 914 q 258 900 218 914 q 322 859 297 886 q 348 794 348 832 q 335 676 347 763 q 317 526 326 606 q 309 391 309 446 q 324 295 309 326 q 364 264 339 264 q 466 345 407 264 q 467 409 467 376 q 458 626 467 526 q 444 768 450 727 q 441 790 441 780 q 464 859 441 832 q 521 900 486 886 q 593 913 556 913 q 662 901 629 913 q 714 866 694 889 q 734 810 734 844 q 732 787 734 800 q 717 562 717 703 q 726 313 717 437 q 747 133 734 189 q 749 111 749 121 q 725 51 749 76 q 664 13 701 26 q 586 0 626 0 m 418 970 q 381 985 396 970 q 283 1061 344 1024 q 226 1101 251 1082 q 195 1135 201 1120 q 189 1164 189 1151 q 222 1230 189 1203 q 291 1257 255 1257 q 350 1217 334 1257 q 394 1128 367 1173 q 465 1055 420 1084 q 488 1021 488 1038 q 465 986 488 1001 q 418 970 442 970 z "},"ú":{"ha":789,"x_min":27,"x_max":749,"o":"m 586 0 q 491 25 533 0 q 442 104 448 50 q 356 25 401 50 q 267 0 311 0 q 127 65 186 0 q 64 232 67 131 q 60 509 64 390 q 35 743 55 660 q 27 793 27 770 q 48 862 27 835 q 104 901 70 888 q 177 914 139 914 q 258 900 218 914 q 322 859 297 886 q 348 794 348 832 q 335 676 347 763 q 317 526 326 606 q 309 391 309 446 q 324 295 309 326 q 364 264 339 264 q 466 345 407 264 q 467 409 467 376 q 458 626 467 526 q 444 768 450 727 q 441 790 441 780 q 464 859 441 832 q 521 900 486 886 q 593 913 556 913 q 662 901 629 913 q 714 866 694 889 q 734 810 734 844 q 732 787 734 800 q 717 562 717 703 q 726 313 717 437 q 747 133 734 189 q 749 111 749 121 q 725 51 749 76 q 664 13 701 26 q 586 0 626 0 m 360 973 q 312 988 335 973 q 289 1024 289 1004 q 313 1058 289 1041 q 384 1131 357 1087 q 427 1220 410 1175 q 487 1259 444 1259 q 555 1233 522 1259 q 589 1167 589 1206 q 583 1138 589 1154 q 551 1103 576 1122 q 494 1063 526 1084 q 396 988 433 1027 q 360 973 381 973 z "},"û":{"ha":789,"x_min":27,"x_max":749,"o":"m 586 0 q 491 25 533 0 q 442 104 448 50 q 356 25 401 50 q 267 0 311 0 q 127 65 186 0 q 64 232 67 131 q 60 509 64 390 q 35 743 55 660 q 27 793 27 770 q 48 862 27 835 q 104 901 70 888 q 177 914 139 914 q 258 900 218 914 q 322 859 297 886 q 348 794 348 832 q 335 676 347 763 q 317 526 326 606 q 309 391 309 446 q 324 295 309 326 q 364 264 339 264 q 466 345 407 264 q 467 409 467 376 q 458 626 467 526 q 444 768 450 727 q 441 790 441 780 q 464 859 441 832 q 521 900 486 886 q 593 913 556 913 q 662 901 629 913 q 714 866 694 889 q 734 810 734 844 q 732 787 734 800 q 717 562 717 703 q 726 313 717 437 q 747 133 734 189 q 749 111 749 121 q 725 51 749 76 q 664 13 701 26 q 586 0 626 0 m 481 976 q 440 989 458 976 q 418 1031 422 1002 q 388 1169 412 1116 q 358 1031 365 1116 q 337 989 355 1002 q 295 976 319 976 q 256 985 275 976 q 223 1010 236 994 q 210 1051 210 1027 l 210 1062 q 227 1104 210 1079 q 266 1158 243 1129 q 326 1249 306 1206 q 350 1271 332 1263 q 389 1278 368 1278 q 427 1271 409 1278 q 450 1249 444 1263 q 511 1158 471 1206 q 550 1104 533 1129 q 567 1062 567 1079 l 567 1051 q 554 1010 567 1027 q 521 985 541 994 q 481 976 501 976 z "},"ü":{"ha":789,"x_min":27,"x_max":749,"o":"m 586 0 q 491 25 533 0 q 442 104 448 50 q 356 25 401 50 q 267 0 311 0 q 127 65 186 0 q 64 232 67 131 q 60 509 64 390 q 35 743 55 660 q 27 793 27 770 q 48 862 27 835 q 104 901 70 888 q 177 914 139 914 q 258 900 218 914 q 322 859 297 886 q 348 794 348 832 q 335 676 347 763 q 317 526 326 606 q 309 391 309 446 q 324 295 309 326 q 364 264 339 264 q 466 345 407 264 q 467 409 467 376 q 458 626 467 526 q 444 768 450 727 q 441 790 441 780 q 464 859 441 832 q 521 900 486 886 q 593 913 556 913 q 662 901 629 913 q 714 866 694 889 q 734 810 734 844 q 732 787 734 800 q 717 562 717 703 q 726 313 717 437 q 747 133 734 189 q 749 111 749 121 q 725 51 749 76 q 664 13 701 26 q 586 0 626 0 m 280 973 q 211 1002 239 973 q 182 1070 182 1030 q 211 1139 182 1111 q 280 1168 239 1168 q 350 1139 321 1168 q 379 1070 379 1111 q 350 1002 379 1030 q 280 973 321 973 m 497 973 q 428 1002 456 973 q 399 1070 399 1030 q 428 1139 399 1111 q 497 1168 456 1168 q 567 1139 538 1168 q 596 1070 596 1111 q 567 1002 596 1030 q 497 973 538 973 z "},"ý":{"ha":757,"x_min":33,"x_max":706,"o":"m 387 -218 q 271 -197 328 -218 q 171 -134 214 -176 q 107 -26 128 -91 q 100 19 100 -1 q 124 87 100 61 q 185 125 149 113 q 258 138 222 138 q 323 125 296 138 q 351 92 351 113 q 364 38 351 56 q 393 20 377 20 q 424 42 410 20 q 438 107 438 63 q 429 308 438 144 q 339 229 387 253 q 246 205 292 205 q 143 233 191 205 q 67 307 96 262 q 39 403 39 353 q 42 500 39 446 q 46 630 46 566 q 38 743 46 694 q 33 789 33 768 q 52 860 33 833 q 103 899 72 887 q 168 911 134 911 q 242 896 208 911 q 296 854 275 882 q 316 787 316 826 q 313 749 316 777 q 296 555 296 629 q 336 441 296 441 q 416 504 363 441 q 390 765 405 679 q 388 789 388 778 q 412 856 388 829 q 474 896 436 883 q 551 909 511 909 q 626 897 591 909 q 684 862 661 885 q 706 806 706 840 q 703 783 706 795 q 686 597 686 708 q 692 420 686 512 q 698 238 698 329 q 684 61 698 146 q 630 -95 670 -24 q 527 -187 593 -155 q 387 -218 461 -218 m 341 973 q 293 988 316 973 q 270 1024 270 1004 q 294 1058 270 1041 q 365 1131 338 1087 q 408 1220 391 1175 q 468 1259 425 1259 q 536 1233 503 1259 q 570 1167 570 1206 q 564 1138 570 1154 q 532 1103 557 1122 q 475 1063 507 1084 q 377 988 414 1027 q 341 973 362 973 z "},"þ":{"ha":796,"x_min":16,"x_max":770,"o":"m 431 452 q 491 472 467 452 q 528 523 515 492 q 540 587 540 554 q 528 649 540 620 q 494 697 517 679 q 437 716 471 716 q 338 681 396 716 q 332 486 334 591 q 431 452 389 452 m 214 -115 q 133 -100 172 -115 q 68 -59 94 -86 q 43 7 43 -32 q 44 23 43 15 q 73 399 73 213 q 57 773 73 589 q 18 1092 40 956 q 16 1109 16 1101 q 38 1170 16 1145 q 93 1208 59 1195 q 163 1221 126 1221 q 238 1206 202 1221 q 296 1160 274 1191 q 317 1090 317 1133 l 317 1083 q 309 871 310 935 q 469 910 393 910 q 640 862 573 910 q 739 738 707 814 q 770 577 770 661 q 751 448 770 511 q 695 334 732 385 q 603 252 658 283 q 477 222 548 222 q 336 251 415 222 q 355 21 342 107 q 357 -2 357 9 q 337 -65 357 -41 q 284 -102 317 -90 q 214 -115 251 -115 z "},"ÿ":{"ha":757,"x_min":33,"x_max":706,"o":"m 387 -218 q 271 -197 328 -218 q 171 -134 214 -176 q 107 -26 128 -91 q 100 19 100 -1 q 124 87 100 61 q 185 125 149 113 q 258 138 222 138 q 323 125 296 138 q 351 92 351 113 q 364 38 351 56 q 393 20 377 20 q 424 42 410 20 q 438 107 438 63 q 429 308 438 144 q 339 229 387 253 q 246 205 292 205 q 143 233 191 205 q 67 307 96 262 q 39 403 39 353 q 42 500 39 446 q 46 630 46 566 q 38 743 46 694 q 33 789 33 768 q 52 860 33 833 q 103 899 72 887 q 168 911 134 911 q 242 896 208 911 q 296 854 275 882 q 316 787 316 826 q 313 749 316 777 q 296 555 296 629 q 336 441 296 441 q 416 504 363 441 q 390 765 405 679 q 388 789 388 778 q 412 856 388 829 q 474 896 436 883 q 551 909 511 909 q 626 897 591 909 q 684 862 661 885 q 706 806 706 840 q 703 783 706 795 q 686 597 686 708 q 692 420 686 512 q 698 238 698 329 q 684 61 698 146 q 630 -95 670 -24 q 527 -187 593 -155 q 387 -218 461 -218 m 261 973 q 192 1002 220 973 q 163 1070 163 1030 q 192 1139 163 1111 q 261 1168 220 1168 q 331 1139 302 1168 q 360 1070 360 1111 q 331 1002 360 1030 q 261 973 302 973 m 478 973 q 409 1002 437 973 q 380 1070 380 1030 q 409 1139 380 1111 q 478 1168 437 1168 q 548 1139 519 1168 q 577 1070 577 1111 q 548 1002 577 1030 q 478 973 519 973 z "},"Ā":{"ha":864,"x_min":4,"x_max":859,"o":"m 376 507 l 486 509 q 431 702 462 604 q 376 507 401 603 m 688 3 q 610 28 644 3 q 567 104 575 52 q 532 308 553 205 l 330 308 q 296 104 310 205 q 254 28 288 52 q 175 3 219 3 q 96 22 135 3 q 30 75 56 41 q 4 157 4 110 q 20 274 4 217 q 61 388 36 331 q 116 503 87 444 q 198 683 160 588 q 254 889 237 778 q 315 955 262 933 q 431 977 368 977 q 548 955 495 977 q 609 889 601 933 q 665 683 626 778 q 747 503 703 588 q 802 387 777 444 q 843 274 827 330 q 859 157 859 217 q 833 75 859 110 q 768 22 807 41 q 688 3 728 3 m 571 1017 l 562 1018 q 432 1034 488 1034 q 302 1018 376 1034 l 292 1017 q 255 1039 269 1017 q 242 1085 242 1060 q 254 1125 242 1107 q 290 1143 265 1143 l 301 1142 q 432 1132 364 1132 q 562 1142 499 1132 l 573 1143 q 609 1125 597 1143 q 621 1084 621 1107 q 608 1039 621 1060 q 571 1017 595 1017 z "},"ā":{"ha":817,"x_min":23,"x_max":782,"o":"m 237 0 l 230 0 q 79 80 135 3 q 23 254 23 156 q 45 369 23 313 q 115 470 66 425 q 242 541 163 514 q 435 568 321 568 q 500 566 465 568 q 498 629 500 600 q 448 701 492 701 q 400 686 426 701 q 352 649 375 671 q 313 607 329 627 q 250 575 286 575 q 188 594 218 575 q 136 646 157 614 q 115 715 115 677 q 160 810 115 767 q 286 886 213 860 q 436 912 359 912 q 554 896 497 912 q 657 844 612 879 q 729 758 703 810 q 756 634 756 705 q 754 553 756 591 q 752 460 752 511 q 756 389 752 428 q 765 301 760 350 q 781 140 772 233 q 782 119 782 128 q 755 59 782 84 q 688 21 729 35 q 606 8 648 8 q 508 32 552 8 q 454 104 463 55 q 237 0 334 0 m 347 271 q 399 280 367 271 q 457 317 431 290 q 490 396 484 344 l 494 441 l 469 441 q 355 423 397 441 q 297 379 314 406 q 280 323 280 352 q 299 288 280 304 q 347 271 317 271 m 574 970 l 565 971 q 435 987 491 987 q 305 971 379 987 l 296 970 q 259 992 272 970 q 245 1038 245 1013 q 257 1078 245 1061 q 294 1096 269 1096 l 304 1095 q 435 1085 368 1085 q 566 1095 503 1085 l 576 1096 q 612 1078 601 1096 q 624 1038 624 1060 q 611 992 624 1013 q 574 970 598 970 z "},"Ă":{"ha":864,"x_min":4,"x_max":859,"o":"m 376 507 l 486 509 q 431 702 462 604 q 376 507 401 603 m 688 3 q 610 28 644 3 q 567 104 575 52 q 532 308 553 205 l 330 308 q 296 104 310 205 q 254 28 288 52 q 175 3 219 3 q 96 22 135 3 q 30 75 56 41 q 4 157 4 110 q 20 274 4 217 q 61 388 36 331 q 116 503 87 444 q 198 683 160 588 q 254 889 237 778 q 315 955 262 933 q 431 977 368 977 q 548 955 495 977 q 609 889 601 933 q 665 683 626 778 q 747 503 703 588 q 802 387 777 444 q 843 274 827 330 q 859 157 859 217 q 833 75 859 110 q 768 22 807 41 q 688 3 728 3 m 473 1018 l 403 1018 q 330 1033 365 1018 q 272 1075 294 1047 q 250 1144 250 1103 q 270 1164 250 1156 q 310 1173 290 1173 q 335 1167 324 1173 q 346 1149 346 1162 q 373 1120 346 1130 q 431 1110 399 1110 q 490 1120 463 1110 q 517 1149 517 1130 q 527 1167 517 1162 q 553 1173 538 1173 q 592 1164 572 1173 q 612 1144 612 1156 q 592 1077 612 1105 q 540 1033 572 1048 q 473 1018 509 1018 z "},"ă":{"ha":817,"x_min":23,"x_max":782,"o":"m 237 0 l 230 0 q 79 80 135 3 q 23 254 23 156 q 45 369 23 313 q 115 470 66 425 q 242 541 163 514 q 435 568 321 568 q 500 566 465 568 q 498 629 500 600 q 448 701 492 701 q 400 686 426 701 q 352 649 375 671 q 313 607 329 627 q 250 575 286 575 q 188 594 218 575 q 136 646 157 614 q 115 715 115 677 q 160 810 115 767 q 286 886 213 860 q 436 912 359 912 q 554 896 497 912 q 657 844 612 879 q 729 758 703 810 q 756 634 756 705 q 754 553 756 591 q 752 460 752 511 q 756 389 752 428 q 765 301 760 350 q 781 140 772 233 q 782 119 782 128 q 755 59 782 84 q 688 21 729 35 q 606 8 648 8 q 508 32 552 8 q 454 104 463 55 q 237 0 334 0 m 347 271 q 399 280 367 271 q 457 317 431 290 q 490 396 484 344 l 494 441 l 469 441 q 355 423 397 441 q 297 379 314 406 q 280 323 280 352 q 299 288 280 304 q 347 271 317 271 m 476 972 l 406 972 q 333 987 368 972 q 276 1030 298 1002 q 254 1099 254 1058 q 273 1119 254 1110 q 313 1127 293 1127 q 338 1122 328 1127 q 349 1103 349 1116 q 376 1075 349 1084 q 435 1065 403 1065 q 493 1075 467 1065 q 520 1103 520 1084 q 531 1122 520 1116 q 556 1127 541 1127 q 595 1119 576 1127 q 615 1099 615 1110 q 595 1031 615 1060 q 544 988 575 1003 q 476 972 512 972 z "},"Ą":{"ha":864,"x_min":4,"x_max":873,"o":"m 376 507 l 486 509 q 431 702 462 604 q 376 507 401 603 m 728 -278 q 666 -266 695 -278 q 620 -229 637 -253 q 602 -169 602 -204 q 669 5 602 -83 q 610 28 636 9 q 567 104 575 52 q 532 308 553 205 l 330 308 q 296 104 310 205 q 254 28 288 52 q 175 3 219 3 q 96 22 135 3 q 30 75 56 41 q 4 157 4 110 q 20 274 4 217 q 61 388 36 331 q 116 503 87 444 q 198 683 160 588 q 254 889 237 778 q 315 955 262 933 q 431 977 368 977 q 548 955 495 977 q 609 889 601 933 q 665 683 626 778 q 747 503 703 588 q 802 387 777 444 q 843 274 827 330 q 859 157 859 217 q 783 30 859 75 q 724 -136 724 -66 q 729 -176 724 -165 q 750 -188 734 -188 q 777 -174 764 -188 q 792 -134 790 -160 q 805 -101 794 -112 q 829 -91 815 -91 q 859 -104 845 -91 q 873 -139 872 -117 q 851 -217 872 -186 q 796 -263 829 -248 q 728 -278 762 -278 z "},"ą":{"ha":817,"x_min":23,"x_max":821,"o":"m 347 271 q 399 280 367 271 q 457 317 431 290 q 489 396 484 344 l 494 441 l 469 441 q 355 423 397 441 q 297 379 314 406 q 280 323 280 352 q 299 288 280 304 q 347 271 317 271 m 676 -271 q 615 -259 644 -271 q 568 -222 587 -246 q 550 -162 550 -197 q 615 8 550 -79 q 508 32 552 8 q 454 104 463 55 q 237 0 334 0 q 79 80 138 0 q 23 254 23 156 q 115 470 23 385 q 435 568 222 568 q 500 566 465 568 q 497 629 500 600 q 448 701 492 701 q 400 686 426 701 q 352 649 375 671 q 313 608 329 627 q 250 575 286 575 q 188 594 218 575 q 136 646 157 614 q 115 715 115 677 q 161 810 115 767 q 286 886 213 860 q 436 912 359 912 q 657 844 568 912 q 756 634 756 769 q 754 553 756 591 q 752 460 752 511 q 765 301 752 417 q 782 119 782 147 q 747 33 782 75 q 672 -132 672 -59 q 677 -170 672 -158 q 699 -181 683 -181 q 726 -167 713 -181 q 741 -127 739 -153 q 753 -95 743 -105 q 777 -84 764 -84 q 807 -97 793 -84 q 821 -132 821 -110 q 799 -211 821 -180 q 745 -256 778 -241 q 676 -271 711 -271 z "},"Ć":{"ha":773,"x_min":2,"x_max":770,"o":"m 458 1 q 260 44 345 1 q 117 158 174 87 q 31 318 60 229 q 2 499 2 407 q 29 673 2 589 q 110 825 56 758 q 245 932 164 892 q 436 972 327 972 q 584 928 520 972 q 683 813 648 884 q 719 661 718 743 q 700 601 719 624 q 653 566 682 577 q 593 554 624 554 q 520 573 553 554 q 487 628 487 593 q 491 656 487 641 q 495 686 495 671 q 480 738 495 717 q 435 759 465 759 q 346 688 374 755 q 317 529 317 621 q 334 390 317 458 q 382 277 351 321 q 458 232 413 232 q 528 264 497 235 q 577 328 558 294 q 621 349 592 349 q 685 331 650 349 q 745 286 720 313 q 770 231 770 259 q 763 205 770 218 q 685 103 730 149 q 583 29 640 57 q 458 1 526 1 m 394 1018 q 346 1033 369 1018 q 323 1069 323 1048 q 347 1103 323 1086 q 417 1176 391 1132 q 461 1265 444 1220 q 521 1304 478 1304 q 589 1277 556 1304 q 623 1212 623 1251 q 616 1183 623 1198 q 585 1148 610 1167 q 528 1108 560 1129 q 430 1033 467 1072 q 394 1018 415 1018 z "},"ć":{"ha":741,"x_min":18,"x_max":724,"o":"m 430 1 q 250 40 327 1 q 121 145 172 79 q 44 293 69 211 q 18 460 18 375 q 43 626 18 545 q 117 770 68 706 q 241 872 167 834 q 414 911 315 911 q 564 867 499 911 q 664 753 628 823 q 701 603 701 683 q 655 508 698 538 q 555 477 612 477 q 475 497 510 477 q 439 553 439 517 q 444 584 439 568 q 448 616 448 601 q 433 670 448 650 q 395 690 418 690 q 352 672 376 690 q 311 616 328 654 q 294 515 294 577 l 294 452 q 306 342 294 391 q 345 264 318 293 q 414 235 372 235 q 483 270 454 237 q 530 338 511 302 q 575 361 546 361 q 640 342 605 361 q 699 296 674 324 q 724 238 724 267 q 719 215 724 227 q 650 106 692 155 q 554 30 609 58 q 430 1 498 1 m 376 970 q 328 985 351 970 q 305 1021 305 1000 q 329 1055 305 1038 q 400 1128 373 1084 q 444 1217 427 1172 q 503 1256 460 1256 q 572 1229 538 1256 q 605 1164 605 1202 q 599 1135 605 1150 q 568 1100 593 1119 q 510 1060 543 1081 q 412 985 450 1023 q 376 970 397 970 z "},"Ĉ":{"ha":773,"x_min":2,"x_max":770,"o":"m 458 1 q 260 44 345 1 q 117 158 174 87 q 31 318 60 229 q 2 499 2 407 q 29 673 2 589 q 110 825 56 758 q 245 932 164 892 q 436 972 327 972 q 584 928 520 972 q 683 813 648 884 q 719 661 718 743 q 700 601 719 624 q 653 566 682 577 q 593 554 624 554 q 520 573 553 554 q 487 628 487 593 q 491 656 487 641 q 495 686 495 671 q 480 738 495 717 q 435 759 465 759 q 346 688 374 755 q 317 529 317 621 q 334 390 317 458 q 382 277 351 321 q 458 232 413 232 q 528 264 497 235 q 577 328 558 294 q 621 349 592 349 q 685 331 650 349 q 745 286 720 313 q 770 231 770 259 q 763 205 770 218 q 685 103 730 149 q 583 29 640 57 q 458 1 526 1 m 515 1018 q 474 1031 492 1018 q 452 1073 456 1044 q 422 1211 446 1158 q 392 1073 399 1158 q 371 1031 389 1044 q 329 1018 353 1018 q 290 1027 309 1018 q 257 1053 270 1036 q 243 1093 243 1069 l 243 1104 q 260 1146 243 1121 q 300 1200 277 1171 q 360 1291 340 1248 q 384 1313 366 1305 q 422 1320 402 1320 q 460 1313 443 1320 q 484 1291 478 1305 q 545 1200 505 1248 q 584 1146 567 1171 q 601 1104 601 1121 l 601 1093 q 588 1053 601 1069 q 555 1027 574 1036 q 515 1018 535 1018 z "},"ĉ":{"ha":741,"x_min":18,"x_max":724,"o":"m 430 1 q 250 40 327 1 q 121 145 172 79 q 44 293 69 211 q 18 460 18 375 q 43 626 18 545 q 117 770 68 706 q 241 872 167 834 q 414 911 315 911 q 564 867 499 911 q 664 753 628 823 q 701 603 701 683 q 655 508 698 538 q 555 477 612 477 q 475 497 510 477 q 439 553 439 517 q 444 584 439 568 q 448 616 448 601 q 433 670 448 650 q 395 690 418 690 q 352 672 376 690 q 311 616 328 654 q 294 515 294 577 l 294 452 q 306 342 294 391 q 345 264 318 293 q 414 235 372 235 q 483 270 454 237 q 530 338 511 302 q 575 361 546 361 q 640 342 605 361 q 699 296 674 324 q 724 238 724 267 q 719 215 724 227 q 650 106 692 155 q 554 30 609 58 q 430 1 498 1 m 498 966 q 456 979 475 966 q 435 1021 438 992 q 404 1159 428 1106 q 374 1021 381 1106 q 353 979 371 992 q 311 966 335 966 q 272 975 292 966 q 239 1000 252 983 q 226 1041 226 1017 l 226 1052 q 243 1094 226 1069 q 282 1147 260 1119 q 342 1239 322 1196 q 367 1260 349 1253 q 405 1267 385 1267 q 443 1260 425 1267 q 467 1239 460 1253 q 527 1147 487 1196 q 566 1094 549 1119 q 583 1052 583 1069 l 583 1041 q 570 1000 583 1017 q 537 975 557 983 q 498 966 517 966 z "},"Ċ":{"ha":773,"x_min":2,"x_max":770,"o":"m 458 1 q 260 44 345 1 q 117 158 174 87 q 31 318 60 229 q 2 499 2 407 q 29 673 2 589 q 110 825 56 758 q 245 932 164 892 q 436 972 327 972 q 584 928 520 972 q 683 813 648 884 q 719 661 718 743 q 700 601 719 624 q 653 566 682 577 q 593 554 624 554 q 520 573 553 554 q 487 628 487 593 q 491 656 487 641 q 495 686 495 671 q 480 738 495 717 q 435 759 465 759 q 346 688 374 755 q 317 529 317 621 q 334 390 317 458 q 382 277 351 321 q 458 232 413 232 q 528 264 497 235 q 577 328 558 294 q 621 349 592 349 q 685 331 650 349 q 745 286 720 313 q 770 231 770 259 q 763 205 770 218 q 685 103 730 149 q 583 29 640 57 q 458 1 526 1 m 422 1018 q 352 1046 381 1018 q 323 1115 323 1075 q 352 1184 323 1156 q 422 1213 381 1213 q 492 1184 463 1213 q 521 1115 521 1156 q 492 1046 521 1075 q 422 1018 463 1018 z "},"ċ":{"ha":741,"x_min":18,"x_max":724,"o":"m 430 1 q 250 40 327 1 q 121 145 172 79 q 44 293 69 211 q 18 460 18 375 q 43 626 18 545 q 117 770 68 706 q 241 872 167 834 q 414 911 315 911 q 564 867 499 911 q 664 753 628 823 q 701 603 701 683 q 655 508 698 538 q 555 477 612 477 q 475 497 510 477 q 439 553 439 517 q 444 584 439 568 q 448 616 448 601 q 433 670 448 650 q 395 690 418 690 q 352 672 376 690 q 311 616 328 654 q 294 515 294 577 l 294 452 q 306 342 294 391 q 345 264 318 293 q 414 235 372 235 q 483 270 454 237 q 530 338 511 302 q 575 361 546 361 q 640 342 605 361 q 699 296 674 324 q 724 238 724 267 q 719 215 724 227 q 650 106 692 155 q 554 30 609 58 q 430 1 498 1 m 405 976 q 335 1004 363 976 q 306 1073 306 1033 q 335 1142 306 1114 q 405 1171 363 1171 q 474 1142 446 1171 q 503 1073 503 1114 q 474 1004 503 1033 q 405 976 446 976 z "},"Č":{"ha":773,"x_min":2,"x_max":770,"o":"m 458 1 q 260 44 345 1 q 117 158 174 87 q 31 318 60 229 q 2 499 2 407 q 29 673 2 589 q 110 825 56 758 q 245 932 164 892 q 436 972 327 972 q 584 928 520 972 q 683 813 648 884 q 719 661 718 743 q 700 601 719 624 q 653 566 682 577 q 593 554 624 554 q 520 573 553 554 q 487 628 487 593 q 491 656 487 641 q 495 686 495 671 q 480 738 495 717 q 435 759 465 759 q 346 688 374 755 q 317 529 317 621 q 334 390 317 458 q 382 277 351 321 q 458 232 413 232 q 528 264 497 235 q 577 328 558 294 q 621 349 592 349 q 685 331 650 349 q 745 286 720 313 q 770 231 770 259 q 763 205 770 218 q 685 103 730 149 q 583 29 640 57 q 458 1 526 1 m 422 1018 q 385 1025 402 1018 q 361 1046 367 1031 q 300 1139 340 1090 q 261 1192 277 1166 q 244 1234 244 1217 l 244 1244 q 257 1285 244 1268 q 290 1311 271 1302 q 330 1320 310 1320 q 372 1306 353 1320 q 393 1265 390 1293 q 422 1126 395 1195 q 452 1265 450 1195 q 474 1306 455 1293 q 515 1320 492 1320 q 555 1311 535 1320 q 588 1285 574 1302 q 601 1244 601 1268 l 601 1234 q 584 1192 601 1217 q 545 1139 568 1166 q 484 1046 505 1090 q 460 1025 478 1031 q 422 1018 443 1018 z "},"č":{"ha":741,"x_min":18,"x_max":724,"o":"m 430 1 q 250 40 327 1 q 121 145 172 79 q 44 293 69 211 q 18 460 18 375 q 43 626 18 545 q 117 770 68 706 q 241 872 167 834 q 414 911 315 911 q 564 867 499 911 q 664 753 628 823 q 701 603 701 683 q 655 508 698 538 q 555 477 612 477 q 475 497 510 477 q 439 553 439 517 q 444 584 439 568 q 448 616 448 601 q 433 670 448 650 q 395 690 418 690 q 352 672 376 690 q 311 616 328 654 q 294 515 294 577 l 294 452 q 306 342 294 391 q 345 264 318 293 q 414 235 372 235 q 483 270 454 237 q 530 338 511 302 q 575 361 546 361 q 640 342 605 361 q 699 296 674 324 q 724 238 724 267 q 719 215 724 227 q 650 106 692 155 q 554 30 609 58 q 430 1 498 1 m 405 966 q 367 972 385 966 q 343 994 349 979 q 282 1086 323 1038 q 243 1139 260 1114 q 227 1181 227 1164 l 227 1192 q 240 1233 227 1216 q 273 1259 253 1250 q 312 1267 292 1267 q 354 1254 336 1267 q 375 1213 372 1241 q 405 1074 378 1143 q 435 1213 432 1143 q 456 1254 437 1241 q 498 1267 475 1267 q 537 1259 517 1267 q 570 1233 557 1250 q 583 1192 583 1216 l 583 1181 q 567 1139 583 1164 q 528 1086 550 1114 q 467 994 487 1038 q 443 972 460 979 q 405 966 425 966 z "},"Ď":{"ha":811,"x_min":36,"x_max":781,"o":"m 413 0 q 297 25 354 0 q 204 1 254 1 q 131 16 167 1 q 72 59 95 30 q 48 134 48 88 q 54 254 50 195 q 61 449 61 335 q 38 836 61 672 q 36 859 36 849 q 56 923 36 898 q 110 959 77 947 q 179 971 142 971 q 288 945 236 971 q 412 972 348 972 q 575 932 505 972 q 690 825 644 892 q 758 673 736 758 q 781 498 781 588 q 757 317 781 406 q 687 157 733 228 q 572 43 640 85 q 413 0 503 0 m 408 215 q 481 259 451 217 q 527 369 511 302 q 543 507 543 436 q 529 629 543 571 q 487 723 515 686 q 416 759 459 759 q 367 749 391 759 q 316 604 316 726 q 318 542 316 572 q 320 482 320 511 q 334 248 320 368 q 408 215 371 215 m 385 1018 q 347 1025 364 1018 q 323 1046 329 1031 q 262 1139 302 1090 q 223 1192 239 1166 q 206 1234 206 1217 l 206 1244 q 219 1285 206 1268 q 252 1311 233 1302 q 292 1320 272 1320 q 334 1306 315 1320 q 355 1265 352 1293 q 385 1126 357 1195 q 414 1265 412 1195 q 436 1306 417 1293 q 477 1320 454 1320 q 517 1311 497 1320 q 550 1285 536 1302 q 563 1244 563 1268 l 563 1234 q 546 1192 563 1217 q 507 1139 530 1166 q 446 1046 467 1090 q 422 1025 440 1031 q 385 1018 405 1018 z "},"ď":{"ha":1026,"x_min":18,"x_max":992,"o":"m 574 0 q 465 35 506 0 q 311 0 378 0 q 185 34 240 0 q 93 126 130 68 q 37 254 56 183 q 18 399 18 326 q 50 579 18 494 q 147 719 81 665 q 314 774 213 772 l 317 774 q 449 748 380 774 q 446 785 448 767 q 443 831 443 810 q 466 910 443 880 q 524 956 488 941 q 599 971 560 971 q 670 958 636 971 q 725 920 703 945 q 746 860 746 895 q 745 842 746 851 q 715 487 715 656 q 744 138 715 320 q 745 121 745 130 q 720 56 745 83 q 655 14 694 28 q 574 0 615 0 m 368 237 q 446 259 403 237 q 455 494 455 370 l 455 538 q 362 571 402 571 q 299 547 324 571 q 261 486 273 524 q 248 407 248 448 q 261 326 248 365 q 301 261 275 286 q 368 237 328 237 m 915 705 q 874 720 894 705 q 854 749 854 734 q 863 762 854 757 q 879 775 868 766 q 900 797 890 785 q 910 814 910 808 q 905 819 910 819 q 845 841 869 819 q 820 895 820 863 q 845 949 820 926 q 905 971 869 971 q 956 956 937 971 q 984 917 975 941 q 992 865 992 893 q 977 778 992 821 q 915 705 951 705 z "},"Đ":{"ha":811,"x_min":-188,"x_max":781,"o":"m 408 215 q 481 259 451 217 q 527 369 511 302 q 543 507 543 436 q 529 629 543 571 q 487 723 515 686 q 416 759 459 759 q 368 749 391 759 q 316 604 316 726 q 317 566 316 585 q 440 575 433 575 q 480 563 465 575 q 511 492 511 539 q 502 447 511 469 q 474 411 492 425 q 430 397 456 397 q 416 398 424 397 q 321 411 368 406 q 334 248 324 330 q 408 215 370 215 m 413 0 q 297 25 354 0 q 204 1 254 1 q 131 16 167 1 q 72 59 95 30 q 48 134 48 88 q 54 254 50 195 q 61 416 60 323 q -93 398 -7 411 q -107 397 -100 397 q -151 411 -133 397 q -178 448 -169 426 q -188 493 -188 470 q -180 532 -188 513 q -158 563 -173 551 q -120 576 -143 576 q 60 564 -75 574 q 38 836 55 715 q 36 859 36 849 q 56 923 36 898 q 110 959 77 947 q 179 971 142 971 q 288 945 236 971 q 412 972 348 972 q 575 932 505 972 q 690 825 644 892 q 758 673 736 758 q 781 498 781 588 q 757 317 781 406 q 687 157 733 228 q 572 43 640 85 q 413 0 503 0 z "},"đ":{"ha":792,"x_min":18,"x_max":851,"o":"m 368 237 q 446 259 403 237 q 455 538 455 370 q 362 571 402 571 q 299 547 324 571 q 261 486 273 524 q 248 407 248 448 q 261 326 248 365 q 301 261 275 286 q 368 237 328 237 m 574 0 q 465 35 506 0 q 311 0 378 0 q 185 34 240 0 q 93 126 130 68 q 37 254 56 183 q 18 399 18 326 q 50 579 18 494 q 147 719 81 665 q 317 774 216 774 q 449 748 380 774 q 444 798 448 767 q 317 784 405 795 l 302 784 q 252 808 271 784 q 234 860 234 831 q 249 904 234 883 q 294 926 263 926 q 393 920 342 925 q 469 915 427 916 q 524 956 491 943 q 599 971 560 971 q 724 921 680 971 q 789 926 771 926 q 836 905 821 926 q 851 859 851 884 q 832 807 851 831 q 779 783 814 783 q 736 787 771 783 q 715 487 715 631 q 744 138 715 320 q 745 121 745 130 q 720 56 745 83 q 655 14 694 28 q 574 0 615 0 z "},"Ē":{"ha":720,"x_min":35,"x_max":692,"o":"m 587 -1 l 573 1 q 449 10 506 10 q 334 5 389 10 q 212 -1 278 -1 q 128 15 165 -1 q 70 62 91 31 q 48 140 48 94 l 49 158 q 60 443 60 291 q 37 836 60 668 q 35 863 35 850 q 98 955 35 930 q 224 972 144 972 q 337 968 279 972 q 456 963 395 963 q 573 971 513 963 l 587 972 q 644 950 621 972 q 680 894 667 928 q 692 824 692 860 q 682 764 692 792 q 650 718 671 736 q 595 700 628 700 q 574 702 585 700 q 334 721 481 717 q 323 599 327 659 l 340 599 q 471 608 403 599 l 482 609 q 528 591 509 609 q 557 546 547 574 q 567 490 567 518 q 558 441 567 464 q 533 404 550 418 q 488 389 515 389 q 472 391 480 389 q 321 404 412 401 q 334 252 325 330 q 574 270 481 256 q 595 272 585 272 q 650 254 628 272 q 682 208 671 236 q 692 148 692 180 q 680 78 692 112 q 644 21 667 43 q 587 -1 621 -1 m 503 1018 l 494 1019 q 364 1034 420 1034 q 234 1019 308 1034 l 224 1018 q 188 1039 201 1018 q 174 1086 174 1061 q 186 1126 174 1108 q 222 1143 197 1143 l 233 1143 q 364 1133 296 1133 q 494 1143 431 1133 l 505 1143 q 541 1125 530 1143 q 553 1085 553 1107 q 540 1039 553 1061 q 503 1018 527 1018 z "},"ē":{"ha":744,"x_min":22,"x_max":739,"o":"m 309 557 q 425 578 340 559 q 503 593 472 588 q 465 664 494 637 q 401 691 435 691 q 343 660 370 691 q 309 557 316 629 m 440 1 q 260 39 338 1 q 129 141 182 76 q 49 294 76 207 q 22 481 22 381 q 51 672 22 593 q 131 803 81 752 q 242 878 180 854 q 368 901 304 901 q 526 865 452 901 q 646 763 600 829 q 694 605 692 696 q 658 499 694 535 q 538 439 623 463 q 307 388 453 416 q 338 275 311 311 q 421 238 365 238 l 429 238 q 543 343 490 245 q 588 366 558 366 q 653 348 618 366 q 713 300 688 329 q 739 241 739 271 q 734 218 739 229 q 664 107 706 156 q 566 30 623 59 q 440 1 510 1 m 509 971 l 499 972 q 370 987 425 987 q 239 972 313 987 l 230 971 q 193 992 206 971 q 180 1039 180 1014 q 191 1079 180 1061 q 228 1097 203 1097 l 239 1096 q 370 1086 302 1086 q 500 1096 437 1086 l 511 1097 q 547 1079 535 1097 q 558 1038 558 1061 q 545 992 558 1014 q 509 971 532 971 z "},"Ĕ":{"ha":720,"x_min":35,"x_max":692,"o":"m 587 -1 l 573 1 q 449 10 506 10 q 334 5 389 10 q 212 -1 278 -1 q 128 15 165 -1 q 70 62 91 31 q 48 140 48 94 l 49 158 q 60 443 60 291 q 37 836 60 668 q 35 863 35 850 q 98 955 35 930 q 224 972 144 972 q 337 968 279 972 q 456 963 395 963 q 573 971 513 963 l 587 972 q 644 950 621 972 q 680 894 667 928 q 692 824 692 860 q 682 764 692 792 q 650 718 671 736 q 595 700 628 700 q 574 702 585 700 q 334 721 481 717 q 323 599 327 659 l 340 599 q 471 608 403 599 l 482 609 q 528 591 509 609 q 557 546 547 574 q 567 490 567 518 q 558 441 567 464 q 533 404 550 418 q 488 389 515 389 q 472 391 480 389 q 321 404 412 401 q 334 252 325 330 q 574 270 481 256 q 595 272 585 272 q 650 254 628 272 q 682 208 671 236 q 692 148 692 180 q 680 78 692 112 q 644 21 667 43 q 587 -1 621 -1 m 405 1018 l 335 1018 q 262 1033 297 1018 q 204 1075 227 1047 q 182 1144 182 1103 q 202 1164 182 1156 q 242 1173 222 1173 q 267 1167 256 1173 q 278 1149 278 1162 q 305 1120 278 1130 q 363 1110 332 1110 q 422 1120 395 1110 q 449 1149 449 1130 q 459 1167 449 1162 q 485 1173 470 1173 q 524 1164 505 1173 q 544 1144 544 1156 q 524 1077 544 1105 q 472 1033 504 1048 q 405 1018 441 1018 z "},"ĕ":{"ha":744,"x_min":22,"x_max":739,"o":"m 309 557 q 425 578 340 559 q 503 593 472 588 q 465 664 494 637 q 401 691 435 691 q 343 660 370 691 q 309 557 316 629 m 440 1 q 260 39 338 1 q 129 141 182 76 q 49 294 76 207 q 22 481 22 381 q 51 672 22 593 q 131 803 81 752 q 242 878 180 854 q 368 901 304 901 q 526 865 452 901 q 646 763 600 829 q 694 605 692 696 q 658 499 694 535 q 538 439 623 463 q 307 388 453 416 q 338 275 311 311 q 421 238 365 238 l 429 238 q 543 343 490 245 q 588 366 558 366 q 653 348 618 366 q 713 300 688 329 q 739 241 739 271 q 734 218 739 229 q 664 107 706 156 q 566 30 623 59 q 440 1 510 1 m 410 969 l 340 969 q 267 984 302 969 q 210 1026 232 998 q 188 1095 188 1055 q 208 1115 188 1107 q 248 1124 227 1124 q 273 1118 262 1124 q 283 1100 283 1113 q 310 1071 283 1081 q 369 1061 337 1061 q 428 1071 401 1061 q 454 1100 454 1081 q 465 1118 454 1113 q 490 1124 475 1124 q 530 1115 510 1124 q 549 1095 549 1107 q 529 1028 549 1057 q 478 984 509 1000 q 410 969 446 969 z "},"Ė":{"ha":720,"x_min":35,"x_max":692,"o":"m 587 -1 l 573 1 q 449 10 506 10 q 334 5 389 10 q 212 -1 278 -1 q 128 15 165 -1 q 70 62 91 31 q 48 140 48 94 l 49 158 q 60 443 60 291 q 37 836 60 668 q 35 863 35 850 q 98 955 35 930 q 224 972 144 972 q 337 968 279 972 q 456 963 395 963 q 573 971 513 963 l 587 972 q 644 950 621 972 q 680 894 667 928 q 692 824 692 860 q 682 764 692 792 q 650 718 671 736 q 595 700 628 700 q 574 702 585 700 q 334 721 481 717 q 323 599 327 659 l 340 599 q 471 608 403 599 l 482 609 q 528 591 509 609 q 557 546 547 574 q 567 490 567 518 q 558 441 567 464 q 533 404 550 418 q 488 389 515 389 q 472 391 480 389 q 321 404 412 401 q 334 252 325 330 q 574 270 481 256 q 595 272 585 272 q 650 254 628 272 q 682 208 671 236 q 692 148 692 180 q 680 78 692 112 q 644 21 667 43 q 587 -1 621 -1 m 363 1018 q 293 1046 322 1018 q 264 1115 264 1075 q 293 1184 264 1156 q 363 1213 322 1213 q 433 1184 404 1213 q 462 1115 462 1156 q 433 1046 462 1075 q 363 1018 404 1018 z "},"ė":{"ha":744,"x_min":22,"x_max":739,"o":"m 309 557 q 425 578 340 559 q 503 593 472 588 q 465 664 494 637 q 401 691 435 691 q 343 660 370 691 q 309 557 316 629 m 440 1 q 260 39 338 1 q 129 141 182 76 q 49 294 76 207 q 22 481 22 381 q 51 672 22 593 q 131 803 81 752 q 242 878 180 854 q 368 901 304 901 q 526 865 452 901 q 646 763 600 829 q 694 605 692 696 q 658 499 694 535 q 538 439 623 463 q 307 388 453 416 q 338 275 311 311 q 421 238 365 238 l 429 238 q 543 343 490 245 q 588 366 558 366 q 653 348 618 366 q 713 300 688 329 q 739 241 739 271 q 734 218 739 229 q 664 107 706 156 q 566 30 623 59 q 440 1 510 1 m 369 975 q 299 1004 328 975 q 270 1072 270 1032 q 299 1141 270 1113 q 369 1170 328 1170 q 438 1141 410 1170 q 467 1072 467 1113 q 438 1004 467 1032 q 369 975 410 975 z "},"Ę":{"ha":720,"x_min":35,"x_max":692,"o":"m 363 -278 q 302 -266 331 -278 q 255 -229 273 -253 q 237 -169 237 -204 q 302 2 237 -85 q 212 -1 260 -1 q 128 15 165 -1 q 70 62 91 31 q 49 138 49 93 l 50 149 q 60 443 60 291 q 37 836 60 668 q 35 863 35 850 q 99 955 35 930 q 224 972 144 972 q 336 968 279 972 q 456 963 395 963 q 581 971 513 963 l 591 971 q 645 950 622 971 q 680 894 667 928 q 692 824 692 860 q 682 764 692 792 q 650 718 671 736 q 595 700 628 700 q 574 702 585 700 q 334 721 481 717 q 323 599 327 659 q 471 608 403 599 l 486 608 q 528 591 510 608 q 557 546 547 574 q 567 490 567 518 q 558 441 567 464 q 533 404 550 418 q 488 389 515 389 q 472 391 480 389 q 321 404 412 401 q 334 252 325 330 q 574 270 481 256 q 595 272 585 272 q 650 254 628 272 q 682 208 671 236 q 692 148 692 180 q 680 78 692 112 q 644 22 667 43 q 589 0 621 0 q 449 10 500 10 q 406 9 427 10 q 359 -136 359 -73 q 365 -176 359 -165 q 386 -188 370 -188 q 413 -174 399 -188 q 428 -134 426 -160 q 440 -101 430 -112 q 465 -91 451 -91 q 494 -104 481 -91 q 508 -139 508 -117 q 487 -217 508 -186 q 432 -263 465 -248 q 363 -278 398 -278 z "},"ę":{"ha":744,"x_min":22,"x_max":739,"o":"m 309 557 q 425 577 340 558 q 503 593 472 588 q 465 664 494 637 q 401 691 435 691 q 343 660 370 691 q 309 557 316 629 m 522 -260 q 460 -248 489 -260 q 413 -211 431 -235 q 395 -151 395 -186 q 415 -58 395 -102 q 448 1 429 -26 q 260 39 338 1 q 49 294 105 113 q 22 481 22 381 q 51 672 22 593 q 131 803 81 752 q 242 878 180 854 q 368 901 304 901 q 526 865 452 901 q 647 762 600 829 q 693 602 693 694 q 658 499 693 534 q 538 439 623 463 q 307 388 453 416 q 338 275 311 311 q 421 238 365 238 q 545 342 487 238 q 588 366 558 366 q 653 348 618 366 q 713 300 688 329 q 739 241 739 271 q 733 218 739 229 q 566 31 674 85 q 517 -118 517 -54 q 523 -159 517 -149 q 544 -170 528 -170 q 570 -156 557 -170 q 585 -117 583 -142 q 598 -84 587 -94 q 623 -73 609 -73 q 652 -86 638 -73 q 666 -121 666 -99 q 644 -200 665 -169 q 589 -245 623 -231 q 522 -260 556 -260 z "},"Ě":{"ha":720,"x_min":35,"x_max":692,"o":"m 587 -1 l 573 1 q 449 10 506 10 q 334 5 389 10 q 212 -1 278 -1 q 128 15 165 -1 q 70 62 91 31 q 48 140 48 94 l 49 158 q 60 443 60 291 q 37 836 60 668 q 35 863 35 850 q 98 955 35 930 q 224 972 144 972 q 337 968 279 972 q 456 963 395 963 q 573 971 513 963 l 587 972 q 644 950 621 972 q 680 894 667 928 q 692 824 692 860 q 682 764 692 792 q 650 718 671 736 q 595 700 628 700 q 574 702 585 700 q 334 721 481 717 q 323 599 327 659 l 340 599 q 471 608 403 599 l 482 609 q 528 591 509 609 q 557 546 547 574 q 567 490 567 518 q 558 441 567 464 q 533 404 550 418 q 488 389 515 389 q 472 391 480 389 q 321 404 412 401 q 334 252 325 330 q 574 270 481 256 q 595 272 585 272 q 650 254 628 272 q 682 208 671 236 q 692 148 692 180 q 680 78 692 112 q 644 21 667 43 q 587 -1 621 -1 m 363 1018 q 326 1025 343 1018 q 302 1046 308 1031 q 241 1139 281 1090 q 202 1192 218 1166 q 185 1234 185 1217 l 185 1244 q 198 1285 185 1268 q 231 1311 212 1302 q 271 1320 251 1320 q 313 1306 294 1320 q 334 1265 331 1293 q 363 1126 336 1195 q 393 1265 391 1195 q 415 1306 396 1293 q 456 1320 433 1320 q 496 1311 476 1320 q 529 1285 515 1302 q 542 1244 542 1268 l 542 1234 q 525 1192 542 1217 q 486 1139 509 1166 q 425 1046 446 1090 q 401 1025 419 1031 q 363 1018 384 1018 z "},"ě":{"ha":744,"x_min":22,"x_max":739,"o":"m 309 557 q 425 578 340 559 q 503 593 472 588 q 465 664 494 637 q 401 691 435 691 q 343 660 370 691 q 309 557 316 629 m 440 1 q 260 39 338 1 q 129 141 182 76 q 49 294 76 207 q 22 481 22 381 q 51 672 22 593 q 131 803 81 752 q 242 878 180 854 q 368 901 304 901 q 526 865 452 901 q 646 763 600 829 q 694 605 692 696 q 658 499 694 535 q 538 439 623 463 q 307 388 453 416 q 338 275 311 311 q 421 238 365 238 l 429 238 q 543 343 490 245 q 588 366 558 366 q 653 348 618 366 q 713 300 688 329 q 739 241 739 271 q 734 218 739 229 q 664 107 706 156 q 566 30 623 59 q 440 1 510 1 m 369 972 q 331 979 349 972 q 307 1000 313 986 q 246 1093 287 1044 q 207 1146 224 1121 q 191 1188 191 1171 l 191 1199 q 204 1240 191 1223 q 237 1265 217 1257 q 276 1274 256 1274 q 318 1261 300 1274 q 339 1219 336 1248 q 369 1081 342 1149 q 399 1219 396 1149 q 420 1261 401 1248 q 462 1274 439 1274 q 501 1265 481 1274 q 534 1240 521 1257 q 547 1199 547 1223 l 547 1188 q 531 1146 547 1171 q 492 1093 514 1121 q 431 1000 451 1044 q 407 979 425 986 q 369 972 389 972 z "},"Ĝ":{"ha":745,"x_min":7,"x_max":739,"o":"m 405 0 q 119 132 227 0 q 7 496 12 264 q 31 671 7 586 q 103 824 55 756 q 225 932 152 892 q 395 972 298 972 q 542 928 479 972 q 641 813 606 884 q 677 661 676 743 q 659 601 677 624 q 611 566 640 577 q 552 554 583 554 q 478 573 511 554 q 446 628 446 593 q 450 655 446 640 q 454 686 454 671 q 438 738 454 717 q 393 759 423 759 q 286 499 286 755 q 307 340 286 400 q 358 253 327 280 q 422 226 390 226 q 481 247 454 226 q 522 305 508 268 q 444 294 494 302 q 433 294 439 294 q 387 311 406 294 q 358 357 368 329 q 348 414 348 385 q 356 462 348 439 q 382 499 365 485 q 427 513 399 513 q 443 512 434 513 q 645 501 522 501 l 688 501 q 726 479 713 501 q 739 426 739 456 q 728 369 739 397 q 696 321 717 340 l 697 291 q 672 161 697 216 q 605 70 647 106 q 511 17 563 35 q 405 0 459 0 m 465 1018 q 424 1031 442 1018 q 402 1073 406 1044 q 372 1211 395 1158 q 342 1073 349 1158 q 320 1031 338 1044 q 279 1018 302 1018 q 239 1027 259 1018 q 207 1053 220 1036 q 193 1093 193 1069 l 193 1104 q 210 1146 193 1121 q 250 1200 227 1171 q 310 1291 290 1248 q 334 1313 316 1305 q 372 1320 352 1320 q 410 1313 393 1320 q 434 1291 428 1305 q 494 1200 454 1248 q 534 1146 517 1171 q 551 1104 551 1121 l 551 1093 q 537 1053 551 1069 q 505 1027 524 1036 q 465 1018 485 1018 z "},"ĝ":{"ha":759,"x_min":31,"x_max":752,"o":"m 378 549 q 419 576 401 549 q 438 659 438 604 q 417 736 438 711 q 373 762 397 762 q 330 739 350 762 q 311 667 311 715 q 332 579 312 609 q 378 549 351 549 m 336 -162 q 186 -135 248 -162 q 93 -60 125 -108 q 61 48 61 -13 q 102 197 61 117 q 65 255 77 222 q 53 323 53 288 q 67 398 53 361 q 108 467 81 435 q 31 648 31 538 q 80 794 33 736 q 204 882 127 852 q 364 911 280 911 q 448 904 407 911 q 483 952 465 926 q 516 999 500 979 q 545 1025 532 1020 q 568 1030 558 1030 q 622 1003 600 1030 q 643 947 643 976 q 610 898 643 911 q 551 871 581 887 q 659 781 623 836 q 696 642 696 726 q 668 526 696 576 q 592 444 640 477 q 485 394 544 410 q 363 377 425 377 q 290 383 326 377 q 283 365 283 372 q 298 348 283 353 q 340 344 313 344 q 389 346 371 344 q 453 348 410 347 q 623 319 557 348 q 721 242 689 290 q 752 140 752 195 q 724 34 752 87 q 642 -64 695 -20 q 511 -135 588 -108 q 336 -162 433 -162 m 284 60 q 328 66 302 60 q 397 94 375 77 q 425 129 419 111 q 431 160 431 146 q 412 188 431 179 q 364 200 392 197 q 308 203 336 203 l 273 202 q 242 161 257 189 q 227 107 227 134 q 284 60 227 60 m 406 1031 q 365 1045 383 1031 q 343 1086 347 1058 q 313 1225 336 1172 q 283 1086 290 1172 q 261 1045 279 1058 q 220 1031 243 1031 q 180 1040 200 1031 q 148 1066 161 1049 q 134 1107 134 1083 l 134 1118 q 151 1160 134 1135 q 191 1213 168 1185 q 251 1305 231 1261 q 275 1326 257 1319 q 313 1333 293 1333 q 351 1326 334 1333 q 375 1305 369 1319 q 435 1213 395 1261 q 475 1160 458 1185 q 492 1118 492 1135 l 492 1107 q 478 1066 492 1083 q 446 1040 465 1049 q 406 1031 426 1031 z "},"Ğ":{"ha":745,"x_min":7,"x_max":739,"o":"m 405 0 q 119 132 227 0 q 7 496 12 264 q 31 671 7 586 q 103 824 55 756 q 225 932 152 892 q 395 972 298 972 q 542 928 479 972 q 641 813 606 884 q 677 661 676 743 q 659 601 677 624 q 611 566 640 577 q 552 554 583 554 q 478 573 511 554 q 446 628 446 593 q 450 655 446 640 q 454 686 454 671 q 438 738 454 717 q 393 759 423 759 q 286 499 286 755 q 307 340 286 400 q 358 253 327 280 q 422 226 390 226 q 481 247 454 226 q 522 305 508 268 q 444 294 494 302 q 433 294 439 294 q 387 311 406 294 q 358 357 368 329 q 348 414 348 385 q 356 462 348 439 q 382 499 365 485 q 427 513 399 513 q 443 512 434 513 q 645 501 522 501 l 688 501 q 726 479 713 501 q 739 426 739 456 q 728 369 739 397 q 696 321 717 340 l 697 291 q 672 161 697 216 q 605 70 647 106 q 511 17 563 35 q 405 0 459 0 m 414 1018 l 344 1018 q 271 1033 306 1018 q 213 1075 235 1047 q 191 1144 191 1103 q 211 1164 191 1156 q 251 1173 231 1173 q 276 1167 265 1173 q 287 1149 287 1162 q 314 1120 287 1130 q 372 1110 340 1110 q 431 1120 404 1110 q 458 1149 458 1130 q 468 1167 458 1162 q 494 1173 479 1173 q 533 1164 513 1173 q 553 1144 553 1156 q 533 1077 553 1105 q 481 1033 513 1048 q 414 1018 450 1018 z "},"ğ":{"ha":759,"x_min":31,"x_max":752,"o":"m 378 549 q 419 576 401 549 q 438 659 438 604 q 417 736 438 711 q 373 762 397 762 q 330 739 350 762 q 311 667 311 715 q 332 579 312 609 q 378 549 351 549 m 336 -162 q 186 -135 248 -162 q 93 -60 125 -108 q 61 48 61 -13 q 102 197 61 117 q 65 255 77 222 q 53 323 53 288 q 67 398 53 361 q 108 467 81 435 q 31 648 31 538 q 80 794 33 736 q 204 882 127 852 q 364 911 280 911 q 448 904 407 911 q 483 952 465 926 q 516 999 500 979 q 545 1025 532 1020 q 568 1030 558 1030 q 622 1003 600 1030 q 643 947 643 976 q 610 898 643 911 q 551 871 581 887 q 659 781 623 836 q 696 642 696 726 q 668 526 696 576 q 592 444 640 477 q 485 394 544 410 q 363 377 425 377 q 290 383 326 377 q 283 365 283 372 q 298 348 283 353 q 340 344 313 344 q 389 346 371 344 q 453 348 410 347 q 623 319 557 348 q 721 242 689 290 q 752 140 752 195 q 724 34 752 87 q 642 -64 695 -20 q 511 -135 588 -108 q 336 -162 433 -162 m 284 60 q 328 66 302 60 q 397 94 375 77 q 425 129 419 111 q 431 160 431 146 q 412 188 431 179 q 364 200 392 197 q 308 203 336 203 l 273 202 q 242 161 257 189 q 227 107 227 134 q 284 60 227 60 m 336 1017 l 266 1017 q 193 1032 228 1017 q 135 1075 157 1046 q 113 1143 113 1103 q 133 1163 113 1155 q 173 1172 153 1172 q 198 1166 187 1172 q 209 1148 209 1161 q 236 1119 209 1129 q 294 1109 262 1109 q 353 1119 326 1109 q 380 1148 380 1129 q 390 1166 380 1161 q 416 1172 401 1172 q 455 1163 435 1172 q 475 1143 475 1155 q 455 1076 475 1105 q 403 1033 435 1048 q 336 1017 372 1017 z "},"Ġ":{"ha":745,"x_min":7,"x_max":739,"o":"m 405 0 q 119 132 227 0 q 7 496 12 264 q 31 671 7 586 q 103 824 55 756 q 225 932 152 892 q 395 972 298 972 q 542 928 479 972 q 641 813 606 884 q 677 661 676 743 q 659 601 677 624 q 611 566 640 577 q 552 554 583 554 q 478 573 511 554 q 446 628 446 593 q 450 655 446 640 q 454 686 454 671 q 438 738 454 717 q 393 759 423 759 q 286 499 286 755 q 307 340 286 400 q 358 253 327 280 q 422 226 390 226 q 481 247 454 226 q 522 305 508 268 q 444 294 494 302 q 433 294 439 294 q 387 311 406 294 q 358 357 368 329 q 348 414 348 385 q 356 462 348 439 q 382 499 365 485 q 427 513 399 513 q 443 512 434 513 q 645 501 522 501 l 688 501 q 726 479 713 501 q 739 426 739 456 q 728 369 739 397 q 696 321 717 340 l 697 291 q 672 161 697 216 q 605 70 647 106 q 511 17 563 35 q 405 0 459 0 m 372 1018 q 302 1046 331 1018 q 273 1115 273 1075 q 302 1184 273 1156 q 372 1213 331 1213 q 442 1184 413 1213 q 471 1115 471 1156 q 442 1046 471 1075 q 372 1018 413 1018 z "},"ġ":{"ha":759,"x_min":31,"x_max":752,"o":"m 378 549 q 419 576 401 549 q 438 659 438 604 q 417 736 438 711 q 373 762 397 762 q 330 739 350 762 q 311 667 311 715 q 332 579 312 609 q 378 549 351 549 m 336 -162 q 186 -135 248 -162 q 93 -60 125 -108 q 61 48 61 -13 q 102 197 61 117 q 65 255 77 222 q 53 323 53 288 q 67 398 53 361 q 108 467 81 435 q 31 648 31 538 q 80 794 33 736 q 204 882 127 852 q 364 911 280 911 q 448 904 407 911 q 483 952 465 926 q 516 999 500 979 q 545 1025 532 1020 q 568 1030 558 1030 q 622 1003 600 1030 q 643 947 643 976 q 610 898 643 911 q 551 871 581 887 q 659 781 623 836 q 696 642 696 726 q 668 526 696 576 q 592 444 640 477 q 485 394 544 410 q 363 377 425 377 q 290 383 326 377 q 283 365 283 372 q 298 348 283 353 q 340 344 313 344 q 389 346 371 344 q 453 348 410 347 q 623 319 557 348 q 721 242 689 290 q 752 140 752 195 q 724 34 752 87 q 642 -64 695 -20 q 511 -135 588 -108 q 336 -162 433 -162 m 284 60 q 328 66 302 60 q 397 94 375 77 q 425 129 419 111 q 431 160 431 146 q 412 188 431 179 q 364 200 392 197 q 308 203 336 203 l 273 202 q 242 161 257 189 q 227 107 227 134 q 284 60 227 60 m 336 1017 q 266 1046 295 1017 q 237 1114 237 1074 q 266 1183 237 1155 q 336 1212 295 1212 q 406 1183 377 1212 q 435 1114 435 1155 q 406 1046 435 1074 q 336 1017 377 1017 z "},"Ģ":{"ha":745,"x_min":7,"x_max":739,"o":"m 405 0 q 119 132 227 0 q 7 496 12 264 q 31 671 7 586 q 103 824 55 756 q 225 932 152 892 q 395 972 298 972 q 542 928 479 972 q 641 813 606 884 q 677 661 676 743 q 659 601 677 624 q 611 566 640 577 q 552 554 583 554 q 478 573 511 554 q 446 628 446 593 q 450 655 446 640 q 454 686 454 671 q 438 738 454 717 q 393 759 423 759 q 286 499 286 755 q 307 340 286 400 q 358 253 327 280 q 422 226 390 226 q 481 247 454 226 q 522 305 508 268 q 444 294 494 302 q 433 294 439 294 q 387 311 406 294 q 358 357 368 329 q 348 414 348 385 q 356 462 348 439 q 382 499 365 485 q 427 513 399 513 q 443 512 434 513 q 645 501 522 501 l 688 501 q 726 479 713 501 q 739 426 739 456 q 728 369 739 397 q 696 321 717 340 l 697 291 q 672 161 697 216 q 605 70 647 106 q 511 17 563 35 q 405 0 459 0 m 412 -339 q 369 -324 389 -339 q 349 -294 349 -309 q 357 -279 349 -286 q 374 -266 363 -277 q 396 -243 385 -255 q 406 -224 406 -231 q 400 -220 406 -221 q 338 -197 364 -220 q 312 -141 312 -174 q 338 -85 312 -109 q 400 -62 364 -62 q 454 -77 434 -62 q 483 -118 474 -93 q 492 -172 492 -143 q 476 -263 492 -218 q 412 -339 449 -339 z "},"ģ":{"ha":759,"x_min":31,"x_max":752,"o":"m 378 549 q 419 576 401 549 q 438 659 438 604 q 417 736 438 711 q 373 762 397 762 q 330 739 350 762 q 311 667 311 715 q 332 579 312 609 q 378 549 351 549 m 336 -162 q 186 -135 248 -162 q 93 -60 125 -108 q 61 48 61 -13 q 102 197 61 117 q 65 255 77 222 q 53 323 53 288 q 67 398 53 361 q 108 467 81 435 q 31 648 31 538 q 80 794 33 736 q 204 882 127 852 q 364 911 280 911 q 448 904 407 911 q 483 952 465 926 q 516 999 500 979 q 545 1025 532 1020 q 568 1030 558 1030 q 622 1003 600 1030 q 643 947 643 976 q 610 898 643 911 q 551 871 581 887 q 659 781 623 836 q 696 642 696 726 q 668 526 696 576 q 592 444 640 477 q 485 394 544 410 q 363 377 425 377 q 290 383 326 377 q 283 365 283 372 q 298 348 283 353 q 340 344 313 344 q 389 346 371 344 q 453 348 410 347 q 623 319 557 348 q 721 242 689 290 q 752 140 752 195 q 724 34 752 87 q 642 -64 695 -20 q 511 -135 588 -108 q 336 -162 433 -162 m 284 60 q 328 66 302 60 q 397 94 375 77 q 425 129 419 111 q 431 160 431 146 q 412 188 431 179 q 364 200 392 197 q 308 203 336 203 l 273 202 q 242 161 257 189 q 227 107 227 134 q 284 60 227 60 m 323 974 q 272 988 291 974 q 244 1027 253 1003 q 236 1079 236 1051 q 251 1166 236 1123 q 313 1239 277 1239 q 354 1224 334 1239 q 374 1196 374 1210 q 365 1182 374 1187 q 349 1168 359 1179 q 328 1147 338 1158 q 318 1129 318 1135 q 323 1126 318 1126 q 384 1103 359 1126 q 408 1050 408 1081 q 384 996 408 1018 q 323 974 359 974 z "},"Ĥ":{"ha":849,"x_min":37,"x_max":802,"o":"m 658 0 q 577 14 616 0 q 512 56 538 28 q 487 121 487 83 q 488 138 487 130 q 516 410 511 283 q 435 412 479 412 q 322 410 380 412 q 350 138 328 283 q 351 121 351 130 q 326 56 351 83 q 261 14 300 28 q 180 0 222 0 q 111 12 143 0 q 57 49 78 24 q 37 113 37 74 q 39 136 37 123 q 62 527 62 302 q 50 813 62 680 l 50 831 q 72 911 50 880 q 131 957 95 942 q 205 971 166 971 q 276 958 242 971 q 331 920 310 945 q 353 859 353 895 q 351 842 353 851 q 325 606 331 717 q 513 615 423 607 q 488 842 506 722 q 486 860 486 851 q 508 920 486 895 q 563 958 529 945 q 633 971 596 971 q 708 957 672 971 q 766 911 743 942 q 789 831 789 880 l 788 813 q 777 527 777 680 q 800 136 777 302 q 802 113 802 123 q 781 49 802 74 q 728 12 760 24 q 658 0 695 0 m 512 1017 q 471 1030 489 1017 q 449 1072 452 1044 q 418 1211 442 1158 q 389 1072 395 1158 q 367 1030 385 1044 q 326 1017 349 1017 q 286 1026 306 1017 q 253 1052 267 1035 q 240 1093 240 1069 l 240 1103 q 257 1145 240 1120 q 296 1199 274 1171 q 357 1291 336 1247 q 381 1312 363 1305 q 419 1319 399 1319 q 457 1312 439 1319 q 481 1291 475 1305 q 541 1199 501 1247 q 581 1145 564 1171 q 597 1103 597 1120 l 597 1093 q 584 1052 597 1069 q 551 1026 571 1035 q 512 1017 532 1017 z "},"ĥ":{"ha":772,"x_min":12,"x_max":764,"o":"m 619 -3 q 530 11 574 -3 q 457 52 486 25 q 428 116 428 79 q 437 199 429 147 q 450 297 444 242 q 456 420 456 353 q 441 504 456 477 q 402 530 426 530 q 334 494 373 530 q 357 136 337 274 q 359 113 359 124 q 339 49 359 74 q 286 12 318 24 q 216 0 253 0 q 136 13 176 0 q 70 52 96 26 q 44 114 44 77 q 45 138 44 125 q 59 273 52 208 q 71 381 66 328 q 75 487 75 434 q 67 659 75 572 q 45 842 58 745 q 43 860 43 851 q 65 921 43 896 q 120 958 86 945 q 191 971 154 971 q 265 956 229 971 q 324 910 301 941 q 347 831 347 880 l 346 813 q 338 702 341 762 q 420 770 378 749 q 505 791 463 791 q 604 761 558 791 q 677 679 649 731 q 705 562 705 627 q 704 517 705 538 q 703 470 703 496 q 747 163 703 262 q 764 98 764 126 q 744 41 764 63 q 690 7 723 18 q 619 -3 657 -3 m 283 1017 q 242 1030 260 1017 q 220 1072 224 1043 q 190 1210 214 1157 q 160 1072 167 1157 q 139 1030 157 1043 q 97 1017 121 1017 q 58 1025 77 1017 q 25 1051 38 1034 q 12 1092 12 1068 l 12 1103 q 28 1145 12 1120 q 68 1198 45 1170 q 128 1290 108 1246 q 152 1311 134 1304 q 191 1318 170 1318 q 229 1311 211 1318 q 252 1290 246 1304 q 313 1198 273 1246 q 352 1145 335 1170 q 369 1103 369 1120 l 369 1092 q 356 1051 369 1068 q 323 1025 342 1034 q 283 1017 303 1017 z "},"Ħ":{"ha":849,"x_min":-16,"x_max":840,"o":"m 658 0 q 577 14 616 0 q 512 56 538 28 q 487 121 487 83 q 488 138 487 130 q 516 410 511 283 q 435 412 479 412 q 322 410 380 412 q 350 138 328 283 q 351 121 351 130 q 326 56 351 83 q 261 14 300 28 q 180 0 222 0 q 111 12 143 0 q 57 49 78 24 q 37 113 37 74 q 39 136 37 123 q 62 527 62 302 q 60 637 62 583 q -4 686 17 646 q -16 731 -16 707 q -7 770 -16 751 q 50 812 10 806 l 50 831 q 72 911 50 880 q 131 957 95 942 q 205 971 166 971 q 276 958 242 971 q 331 920 310 945 q 353 859 353 895 q 345 798 353 851 q 412 798 376 798 q 494 799 454 798 l 488 842 q 486 860 486 851 q 508 920 486 895 q 563 958 529 945 q 633 971 596 971 q 708 957 672 971 q 766 911 743 942 q 789 831 789 880 q 787 808 789 820 q 802 801 795 805 q 840 730 840 777 q 828 685 840 707 q 778 641 811 652 q 777 527 777 585 q 800 136 777 302 q 802 113 802 123 q 781 49 802 74 q 728 12 760 24 q 658 0 695 0 m 325 606 q 513 615 423 607 l 510 656 q 412 659 460 659 q 328 656 370 659 l 325 606 z "},"ħ":{"ha":772,"x_min":-96,"x_max":764,"o":"m 619 -3 q 530 11 574 -3 q 457 52 486 25 q 429 115 429 78 q 437 199 429 147 q 456 420 456 319 q 441 504 456 477 q 402 530 426 530 q 334 494 373 530 q 357 136 337 274 q 359 113 359 124 q 339 49 359 74 q 286 12 318 24 q 216 0 253 0 q 136 13 176 0 q 70 52 96 26 q 44 115 44 77 q 60 273 44 144 q 75 487 75 406 q 50 804 75 612 q -11 798 20 802 l -27 798 q -78 820 -60 798 q -96 870 -96 843 q -81 912 -96 892 q -35 932 -66 932 q 71 926 16 932 q 120 958 90 947 q 191 971 154 971 q 265 956 229 971 q 314 923 294 945 q 470 932 464 932 q 518 912 503 932 q 534 869 534 892 q 515 820 534 842 q 463 797 496 797 l 455 798 q 345 808 395 804 q 338 702 341 759 q 505 791 414 791 q 604 761 558 791 q 677 679 649 731 q 705 562 705 627 q 704 517 705 538 q 703 470 703 496 q 747 163 703 263 q 764 98 764 126 q 744 41 764 63 q 690 7 723 18 q 619 -3 657 -3 z "},"Ĩ":{"ha":397,"x_min":10,"x_max":386,"o":"m 186 -1 q 116 12 149 -1 q 63 49 83 24 q 43 113 43 74 q 44 134 43 123 q 65 484 65 281 q 41 811 65 680 q 38 843 38 828 q 60 916 38 887 q 118 958 83 944 q 191 971 153 971 q 263 958 229 971 q 320 920 298 945 q 342 859 342 895 l 342 844 q 319 528 319 679 q 356 139 319 341 q 357 121 357 130 q 332 55 357 82 q 267 14 307 28 q 186 -1 228 -1 m 281 1017 q 221 1030 248 1017 q 174 1060 195 1044 q 150 1075 161 1069 q 132 1081 140 1081 q 100 1038 113 1081 q 87 1022 97 1027 q 66 1017 78 1017 q 28 1028 47 1017 q 10 1063 10 1040 q 44 1153 13 1125 q 117 1180 75 1180 q 171 1165 146 1180 q 214 1135 195 1151 q 239 1116 228 1124 q 261 1109 251 1109 q 296 1158 283 1109 q 309 1175 299 1170 q 331 1181 319 1181 q 368 1168 350 1181 q 386 1135 386 1156 q 352 1045 383 1074 q 281 1017 320 1017 z "},"ĩ":{"ha":387,"x_min":5,"x_max":380,"o":"m 191 1 q 121 14 154 1 q 67 51 87 26 q 46 117 46 77 q 50 150 46 132 q 69 337 69 254 q 62 451 69 400 q 49 539 56 502 q 42 591 42 577 q 64 659 42 632 q 121 699 86 686 q 193 712 155 712 q 261 700 229 712 q 314 665 293 688 q 334 609 334 642 q 332 586 334 598 q 318 433 318 517 q 351 135 318 270 q 353 112 353 123 q 329 52 353 77 q 268 15 305 28 q 191 1 231 1 m 276 770 q 216 784 243 770 q 168 814 189 798 q 145 829 155 823 q 126 835 134 835 q 95 792 107 835 q 82 776 92 781 q 60 770 73 770 q 23 782 41 770 q 5 817 5 794 q 38 906 7 879 q 111 934 69 934 q 165 919 141 934 q 209 888 189 905 q 234 870 222 878 q 256 863 245 863 q 290 912 277 863 q 303 929 294 924 q 326 935 313 935 q 362 922 345 935 q 380 888 380 910 q 346 799 378 827 q 276 770 315 770 z "},"Ī":{"ha":397,"x_min":9,"x_max":387,"o":"m 186 -1 q 116 12 149 -1 q 63 49 83 24 q 43 113 43 74 q 44 134 43 123 q 65 484 65 281 q 41 811 65 680 q 38 843 38 828 q 60 916 38 887 q 118 958 83 944 q 191 971 153 971 q 263 958 229 971 q 320 920 298 945 q 342 859 342 895 l 342 844 q 319 528 319 679 q 356 139 319 341 q 357 121 357 130 q 332 55 357 82 q 267 14 307 28 q 186 -1 228 -1 m 338 1017 l 328 1017 q 199 1033 254 1033 q 68 1017 142 1033 l 59 1017 q 22 1038 35 1017 q 9 1084 9 1059 q 20 1124 9 1107 q 57 1142 32 1142 l 68 1141 q 199 1131 131 1131 q 329 1141 266 1131 l 340 1142 q 376 1124 364 1142 q 387 1084 387 1106 q 374 1038 387 1059 q 338 1017 361 1017 z "},"ī":{"ha":387,"x_min":3,"x_max":382,"o":"m 191 1 q 121 14 154 1 q 67 51 87 26 q 46 117 46 77 q 50 150 46 132 q 69 337 69 254 q 62 451 69 400 q 49 539 56 502 q 42 591 42 577 q 64 659 42 632 q 121 699 86 686 q 193 712 155 712 q 261 700 229 712 q 314 665 293 688 q 334 609 334 642 q 332 586 334 598 q 318 433 318 517 q 351 135 318 270 q 353 112 353 123 q 329 52 353 77 q 268 15 305 28 q 191 1 231 1 m 332 768 l 323 768 q 193 784 249 784 q 63 768 137 784 l 54 768 q 17 789 30 768 q 3 836 3 810 q 15 876 3 858 q 52 893 26 893 l 62 892 q 193 882 125 882 q 323 892 260 882 l 334 893 q 370 875 359 893 q 382 835 382 857 q 369 789 382 810 q 332 768 356 768 z "},"Ĭ":{"ha":397,"x_min":17,"x_max":378,"o":"m 186 -1 q 116 12 149 -1 q 63 49 83 24 q 43 113 43 74 q 44 134 43 123 q 65 484 65 281 q 41 811 65 680 q 38 843 38 828 q 60 916 38 887 q 118 958 83 944 q 191 971 153 971 q 263 958 229 971 q 320 920 298 945 q 342 859 342 895 l 342 844 q 319 528 319 679 q 356 139 319 341 q 357 121 357 130 q 332 55 357 82 q 267 14 307 28 q 186 -1 228 -1 m 239 1017 l 170 1017 q 96 1031 132 1017 q 39 1074 61 1046 q 17 1143 17 1102 q 37 1163 17 1154 q 77 1171 56 1171 q 102 1166 91 1171 q 113 1147 113 1160 q 139 1119 113 1128 q 198 1109 166 1109 q 257 1119 230 1109 q 283 1147 283 1128 q 294 1166 283 1160 q 319 1171 304 1171 q 359 1163 339 1171 q 378 1143 378 1154 q 358 1076 378 1104 q 307 1032 338 1047 q 239 1017 275 1017 z "},"ĭ":{"ha":387,"x_min":12,"x_max":373,"o":"m 191 1 q 121 14 154 1 q 67 51 87 26 q 46 117 46 77 q 50 150 46 132 q 69 337 69 254 q 62 451 69 400 q 49 539 56 502 q 42 591 42 577 q 64 659 42 632 q 121 699 86 686 q 193 712 155 712 q 261 700 229 712 q 314 665 293 688 q 334 609 334 642 q 332 586 334 598 q 318 433 318 517 q 351 135 318 270 q 353 112 353 123 q 329 52 353 77 q 268 15 305 28 q 191 1 231 1 m 234 773 l 164 773 q 91 788 126 773 q 34 830 56 802 q 12 899 12 859 q 31 919 12 911 q 71 928 51 928 q 96 922 85 928 q 107 904 107 917 q 134 875 107 885 q 193 865 161 865 q 251 875 224 865 q 278 904 278 885 q 289 922 278 917 q 314 928 299 928 q 353 919 334 928 q 373 899 373 911 q 353 832 373 861 q 301 788 333 804 q 234 773 270 773 z "},"Į":{"ha":397,"x_min":38,"x_max":357,"o":"m 209 -278 q 148 -266 177 -278 q 101 -229 119 -253 q 83 -169 83 -204 q 149 3 83 -85 q 117 12 132 5 q 43 113 43 39 q 44 134 43 123 q 65 484 65 281 q 41 811 65 681 q 38 843 38 828 q 60 916 38 887 q 118 958 83 944 q 191 971 153 971 q 263 958 229 971 q 320 921 298 945 q 342 861 342 896 l 341 852 q 319 528 319 679 q 355 139 319 341 q 357 121 357 130 q 332 56 357 82 q 252 9 300 22 q 205 -136 205 -73 q 210 -176 205 -165 q 231 -188 216 -188 q 258 -174 245 -188 q 273 -134 271 -160 q 286 -101 275 -112 q 310 -91 297 -91 q 340 -104 326 -91 q 353 -139 353 -117 q 332 -217 353 -186 q 277 -263 311 -248 q 209 -278 243 -278 z "},"į":{"ha":387,"x_min":39,"x_max":363,"o":"m 183 745 q 81 779 123 745 q 39 859 39 812 q 81 939 39 906 q 183 972 123 972 q 285 939 243 972 q 327 859 327 906 q 285 779 327 812 q 183 745 243 745 m 218 -278 q 158 -266 186 -278 q 111 -229 129 -253 q 92 -169 92 -204 q 159 4 92 -85 q 121 14 139 7 q 46 117 46 41 q 50 150 46 132 q 69 337 69 254 q 49 540 69 426 q 42 591 42 576 q 64 659 42 632 q 121 699 86 686 q 193 712 155 712 q 261 700 229 712 q 314 665 293 688 q 334 609 334 642 q 332 586 334 598 q 318 433 318 517 q 351 135 318 270 q 353 112 353 123 q 329 52 353 77 q 264 13 304 26 q 214 -138 214 -73 q 220 -176 214 -165 q 241 -188 225 -188 q 268 -174 255 -188 q 283 -134 281 -160 q 296 -101 285 -112 q 319 -91 307 -91 q 349 -104 336 -91 q 363 -139 363 -117 q 341 -217 363 -186 q 287 -263 320 -248 q 218 -278 254 -278 z "},"İ":{"ha":397,"x_min":38,"x_max":357,"o":"m 186 -1 q 116 12 149 -1 q 63 49 83 24 q 43 113 43 74 q 44 134 43 123 q 65 484 65 281 q 41 811 65 680 q 38 843 38 828 q 60 916 38 887 q 118 958 83 944 q 191 971 153 971 q 263 958 229 971 q 320 920 298 945 q 342 859 342 895 l 342 844 q 319 528 319 679 q 356 139 319 341 q 357 121 357 130 q 332 55 357 82 q 267 14 307 28 q 186 -1 228 -1 m 173 1017 q 103 1046 132 1017 q 74 1114 74 1074 q 103 1183 74 1155 q 173 1212 132 1212 q 242 1183 214 1212 q 271 1114 271 1155 q 242 1046 271 1074 q 173 1017 214 1017 z "},"ı":{"ha":387,"x_min":42,"x_max":353,"o":"m 191 1 q 121 14 154 1 q 67 51 87 26 q 46 117 46 77 q 50 150 46 132 q 69 337 69 254 q 62 451 69 400 q 49 539 56 502 q 42 591 42 577 q 64 659 42 632 q 121 699 86 686 q 193 712 155 712 q 261 700 229 712 q 314 665 293 688 q 334 609 334 642 q 332 586 334 598 q 318 433 318 517 q 351 135 318 270 q 353 112 353 123 q 329 52 353 77 q 268 15 305 28 q 191 1 231 1 z "},"Ĳ":{"ha":1031,"x_min":38,"x_max":994,"o":"m 186 -1 q 116 12 149 -1 q 63 49 83 24 q 43 113 43 74 q 44 134 43 123 q 65 484 65 281 q 41 811 65 680 q 38 843 38 828 q 60 916 38 887 q 118 958 83 944 q 191 971 153 971 q 263 958 229 971 q 320 920 298 945 q 342 859 342 895 l 342 844 q 319 528 319 679 q 356 139 319 341 q 357 121 357 130 q 332 55 357 82 q 267 14 307 28 q 186 -1 228 -1 m 696 0 q 516 63 589 0 q 408 263 444 125 q 401 314 401 291 q 423 389 401 359 q 475 432 444 418 q 534 446 506 446 q 576 436 559 446 q 595 407 593 426 q 623 308 597 342 q 678 275 649 275 q 716 297 703 275 q 736 358 730 320 q 742 443 742 396 q 728 632 742 536 q 705 768 713 729 q 556 754 615 764 q 540 753 547 753 q 495 767 513 753 q 470 804 478 781 q 462 853 462 827 q 472 909 462 882 q 500 954 481 937 q 546 972 519 972 l 557 971 q 696 959 634 959 q 798 968 747 959 q 848 972 821 972 q 917 963 883 972 q 972 931 950 954 q 994 869 994 909 q 992 847 994 859 q 962 642 968 688 q 954 508 954 574 q 977 262 954 406 q 979 236 979 250 q 945 125 979 180 q 848 36 911 71 q 696 0 785 0 z "},"ĳ":{"ha":807,"x_min":39,"x_max":759,"o":"m 191 1 q 121 14 154 1 q 67 51 87 26 q 46 117 46 77 q 50 150 46 132 q 69 337 69 254 q 62 451 69 400 q 49 539 56 502 q 42 591 42 577 q 64 659 42 632 q 121 699 86 686 q 193 712 155 712 q 261 700 229 712 q 314 665 293 688 q 334 609 334 642 q 332 586 334 598 q 318 433 318 517 q 351 135 318 270 q 353 112 353 123 q 329 52 353 77 q 268 15 305 28 q 191 1 231 1 m 183 745 q 81 779 123 745 q 39 859 39 812 q 81 939 39 906 q 183 972 123 972 q 285 939 243 972 q 327 859 327 906 q 285 779 327 812 q 183 745 243 745 m 463 -233 q 354 -216 397 -233 q 291 -170 311 -198 q 270 -110 270 -142 q 311 -8 270 -56 q 396 39 353 39 q 433 27 416 39 q 477 7 460 7 q 508 41 500 7 q 512 123 512 62 q 467 562 512 321 q 465 589 465 576 q 484 652 465 627 q 534 688 503 676 q 600 700 565 700 q 675 686 638 700 q 735 646 711 672 q 759 581 759 619 q 758 564 759 573 q 739 296 739 431 q 749 99 739 194 q 751 51 751 74 q 725 -81 751 -26 q 657 -169 699 -135 q 564 -218 614 -202 q 463 -233 513 -233 m 598 745 q 496 779 538 745 q 454 859 454 812 q 496 939 454 906 q 598 972 538 972 q 700 939 658 972 q 742 859 742 906 q 700 779 742 812 q 598 745 658 745 z "}}}
